<?xml version="1.0" encoding="utf-8"?>
<!-- Generator: Adobe Illustrator 24.2.1, SVG Export Plug-In . SVG Version: 6.00 Build 0)  -->
<svg version="1.1" id="Layer_1" xmlns="http://www.w3.org/2000/svg" xmlns:xlink="http://www.w3.org/1999/xlink" x="0px" y="0px"
	 viewBox="0 0 40 40" style="enable-background:new 0 0 40 40;" xml:space="preserve">
<style type="text/css">
	.st0{fill-rule:evenodd;clip-rule:evenodd;fill:#B1D360;stroke:#929497;stroke-width:0.7087;stroke-miterlimit:22.9256;}
	.st1{fill-rule:evenodd;clip-rule:evenodd;fill:#712685;}
	.st2{fill-rule:evenodd;clip-rule:evenodd;fill:#D1E5AD;stroke:#929497;stroke-width:0.7087;stroke-miterlimit:22.9256;}
</style>
<g>
	<path class="st0" d="M20,37.01c9.37,0,17.01-7.64,17.01-17.01c0-9.37-7.64-17.01-17.01-17.01S2.99,10.63,2.99,20
		C2.99,29.37,10.63,37.01,20,37.01z"/>
	<path class="st1" d="M17.96,7.85h7.78v0.02c-0.46,0.71-0.72,1.08-0.78,1.13h-2.08c0.28,0.33,0.48,0.74,0.58,1.22h2.21
		c0.03,0.01,0.04,0.02,0.04,0.03c-0.5,0.75-0.75,1.11-0.76,1.11h-1.44c-0.03,0.38-0.22,0.84-0.55,1.38
		c-0.44,0.55-0.86,0.9-1.27,1.06c-0.75,0.36-1.48,0.54-2.17,0.54v0.02c0,0.06,0.17,0.28,0.51,0.67l3.84,4.63v0.22
		c0,0.02-0.01,0.03-0.04,0.03h-1.69c-3.04-3.54-4.56-5.32-4.56-5.34V13.5l0.02-0.04c0.27,0.04,0.59,0.06,0.94,0.06
		c1.71,0,2.76-0.55,3.18-1.66c0.06-0.16,0.1-0.33,0.1-0.5h-4.62c-0.02,0-0.03-0.01-0.03-0.03c0.51-0.74,0.78-1.12,0.79-1.12h3.67
		V10.2c-0.21-0.42-0.62-0.76-1.22-0.99c-0.43-0.14-0.82-0.21-1.16-0.21h-2.05V8.95C17.69,8.22,17.95,7.85,17.96,7.85z"/>
	<path class="st2" d="M10.65,20.67c0.3-0.03,3.5-0.38,3.51-0.37l8.56,2.81c0.75,0.23,1.16,1.03,0.93,1.77
		c-0.23,0.75-1.03,1.16-1.77,0.93l-4.81-1.5l-0.16,0.56l5.81,1.78l7.08-3.85c0.68-0.39,1.54-0.19,1.93,0.48
		c0.33,0.36,0.48,1.19-0.32,1.93l-8.18,5.48c-0.32,0.2-0.73,0.27-1.12,0.16l-8.18-3.23l-3.25-0.04L10.65,20.67L10.65,20.67z
		 M7.64,19.54h2.82v8.8H7.64V19.54z"/>
</g>
</svg>
