<?xml version="1.0" encoding="utf-8"?>
<!-- Generator: Adobe Illustrator 24.2.1, SVG Export Plug-In . SVG Version: 6.00 Build 0)  -->
<svg version="1.1" xmlns="http://www.w3.org/2000/svg" xmlns:xlink="http://www.w3.org/1999/xlink" x="0px" y="0px"
	 viewBox="0 0 40 40" style="enable-background:new 0 0 40 40;" xml:space="preserve">
<style type="text/css">
	.st0{display:none;}
	.st1{display:inline;}
	.st2{fill-rule:evenodd;clip-rule:evenodd;fill:#B1D360;stroke:#929497;stroke-width:0.7087;stroke-miterlimit:22.9256;}
	.st3{fill-rule:evenodd;clip-rule:evenodd;fill:#712685;}
	.st4{fill-rule:evenodd;clip-rule:evenodd;fill:#D1E5AD;stroke:#929497;stroke-width:0.7087;stroke-miterlimit:22.9256;}
	.st5{fill-rule:evenodd;clip-rule:evenodd;fill:#D1E5AD;}
	.st6{fill-rule:evenodd;clip-rule:evenodd;fill:#B1D360;}
	.st7{fill-rule:evenodd;clip-rule:evenodd;fill:#929497;}
	.st8{fill-rule:evenodd;clip-rule:evenodd;fill:#712685;stroke:#712685;stroke-width:0.2398;stroke-miterlimit:22.9256;}
</style>
<g id="Layer_1" class="st0">
	<g class="st1">
		<path class="st2" d="M20,37.01c9.37,0,17.01-7.64,17.01-17.01c0-9.37-7.64-17.01-17.01-17.01S2.99,10.63,2.99,20
			C2.99,29.37,10.63,37.01,20,37.01z"/>
		<path class="st3" d="M17.96,7.85h7.78v0.02c-0.46,0.71-0.72,1.08-0.78,1.13h-2.08c0.28,0.33,0.48,0.74,0.58,1.22h2.21
			c0.03,0.01,0.04,0.02,0.04,0.03c-0.5,0.75-0.75,1.11-0.76,1.11h-1.44c-0.03,0.38-0.22,0.84-0.55,1.38
			c-0.44,0.55-0.86,0.9-1.27,1.06c-0.75,0.36-1.48,0.54-2.17,0.54v0.02c0,0.06,0.17,0.28,0.51,0.67l3.84,4.63v0.22
			c0,0.02-0.01,0.03-0.04,0.03h-1.69c-3.04-3.54-4.56-5.32-4.56-5.34V13.5l0.02-0.04c0.27,0.04,0.59,0.06,0.94,0.06
			c1.71,0,2.76-0.55,3.18-1.66c0.06-0.16,0.1-0.33,0.1-0.5h-4.62c-0.02,0-0.03-0.01-0.03-0.03c0.51-0.74,0.78-1.12,0.79-1.12h3.67
			V10.2c-0.21-0.42-0.62-0.76-1.22-0.99c-0.43-0.14-0.82-0.21-1.16-0.21h-2.05V8.95C17.69,8.22,17.95,7.85,17.96,7.85z"/>
		<path class="st4" d="M10.65,20.67c0.3-0.03,3.5-0.38,3.51-0.37l8.56,2.81c0.75,0.23,1.16,1.03,0.93,1.77
			c-0.23,0.75-1.03,1.16-1.77,0.93l-4.81-1.5l-0.16,0.56l5.81,1.78l7.08-3.85c0.68-0.39,1.54-0.19,1.93,0.48
			c0.33,0.36,0.48,1.19-0.32,1.93l-8.18,5.48c-0.32,0.2-0.73,0.27-1.12,0.16l-8.18-3.23l-3.25-0.04L10.65,20.67L10.65,20.67z
			 M7.64,19.54h2.82v8.8H7.64V19.54z"/>
	</g>
</g>
<g id="Layer_2">
	<g>
		<ellipse transform="matrix(0.2283 -0.9736 0.9736 0.2283 -4.038 34.9055)" class="st5" cx="20" cy="20" rx="14.72" ry="14.72"/>
		<path class="st6" d="M20,2.99c9.39,0,17.01,7.61,17.01,17.01c0,9.39-7.61,17.01-17.01,17.01c-9.39,0-17.01-7.61-17.01-17.01
			C2.99,10.61,10.61,2.99,20,2.99L20,2.99z M20,7.4C13.04,7.4,7.4,13.04,7.4,20c0,6.96,5.64,12.6,12.6,12.6
			c6.96,0,12.6-5.64,12.6-12.6C32.6,13.04,26.96,7.4,20,7.4z"/>
		<path class="st7" d="M20,2.64c4.79,0,9.14,1.94,12.28,5.09c3.14,3.14,5.09,7.48,5.09,12.28c0,4.79-1.94,9.14-5.09,12.28
			c-3.14,3.14-7.48,5.09-12.28,5.09c-4.79,0-9.14-1.94-12.28-5.09C4.58,29.14,2.64,24.79,2.64,20c0-4.79,1.94-9.14,5.09-12.28
			C10.86,4.58,15.21,2.64,20,2.64L20,2.64z M31.78,8.22C28.76,5.21,24.6,3.35,20,3.35c-4.6,0-8.76,1.86-11.78,4.88
			C5.21,11.24,3.35,15.4,3.35,20c0,4.6,1.86,8.76,4.88,11.78c3.01,3.01,7.18,4.88,11.78,4.88c4.6,0,8.76-1.86,11.78-4.88
			c3.01-3.01,4.88-7.18,4.88-11.78C36.65,15.4,34.79,11.24,31.78,8.22L31.78,8.22z M20,7.05c-3.58,0-6.81,1.45-9.16,3.79
			C8.5,13.18,7.05,16.42,7.05,20c0,3.58,1.45,6.82,3.79,9.16s5.58,3.79,9.16,3.79c3.58,0,6.82-1.45,9.16-3.79
			c2.34-2.34,3.79-5.58,3.79-9.16c0-3.58-1.45-6.82-3.79-9.16C26.82,8.5,23.58,7.05,20,7.05L20,7.05z M28.66,11.34
			C26.44,9.13,23.38,7.76,20,7.76c-3.38,0-6.44,1.37-8.66,3.59C9.13,13.56,7.76,16.62,7.76,20c0,3.38,1.37,6.44,3.59,8.66
			c2.22,2.22,5.28,3.59,8.66,3.59c3.38,0,6.44-1.37,8.66-3.59c2.22-2.22,3.59-5.28,3.59-8.66C32.24,16.62,30.87,13.56,28.66,11.34z"
			/>
		<g>
			<path class="st8" d="M27.98,13.75h-7.13v0.87h6.6c0.23,0,0.42,0.19,0.42,0.42v9.93c0,0.23-0.19,0.42-0.42,0.42h-2.62v0.87h3.14
				c0.42,0,0.75-0.34,0.75-0.75v-11C28.73,14.09,28.39,13.75,27.98,13.75z"/>
			<polygon class="st8" points="22.14,18.3 26.79,18.3 26.79,19.06 22.14,19.06 22.14,18.3 			"/>
			<rect x="23.26" y="20.84" class="st8" width="3.53" height="0.77"/>
			<path class="st8" d="M17.11,13.86c-2.01,0.06-3.63,1.68-3.69,3.69c-0.07,2.19,1.74,3.99,3.93,3.93c2.01-0.06,3.63-1.68,3.69-3.69
				C21.11,15.6,19.3,13.79,17.11,13.86L17.11,13.86z M17.23,20.61c-1.62,0-2.94-1.32-2.94-2.94c0-1.62,1.32-2.94,2.94-2.94
				c1.62,0,2.94,1.32,2.94,2.94C20.17,19.29,18.86,20.61,17.23,20.61z"/>
			<path class="st8" d="M12.24,25.74c0.43-2.37,2.5-4.16,5-4.16c2.49,0,4.56,1.79,4.99,4.16l0.03,0.16c0,0,0.05,0.22,0.3,0.31
				c0.07,0.02,0.18,0.03,0.28,0.01c0.09-0.02,0.16-0.08,0.2-0.12c0.16-0.15,0.14-0.35,0.14-0.35c-0.44-2.89-2.94-5.11-5.96-5.11
				c-3.02,0-5.52,2.22-5.96,5.11c0,0-0.04,0.39,0.36,0.48c0.12,0.03,0.19,0.02,0.27-0.01c0.03-0.01,0.05-0.02,0.07-0.03
				c0.19-0.11,0.22-0.28,0.22-0.28L12.24,25.74z"/>
			<rect x="22.14" y="15.96" class="st8" width="4.66" height="0.77"/>
		</g>
	</g>
</g>
</svg>
