<?xml version="1.0" encoding="utf-8"?>
<!-- Generator: Adobe Illustrator 24.2.1, SVG Export Plug-In . SVG Version: 6.00 Build 0)  -->
<svg version="1.1" xmlns="http://www.w3.org/2000/svg" xmlns:xlink="http://www.w3.org/1999/xlink" x="0px" y="0px"
	 viewBox="0 0 40 40" style="enable-background:new 0 0 40 40;" xml:space="preserve">
<style type="text/css">
	.st0{display:none;}
	.st1{display:inline;}
	.st2{fill-rule:evenodd;clip-rule:evenodd;fill:#B1D360;stroke:#929497;stroke-width:0.7087;stroke-miterlimit:22.9256;}
	.st3{fill-rule:evenodd;clip-rule:evenodd;fill:#712685;}
	.st4{fill-rule:evenodd;clip-rule:evenodd;fill:#D1E5AD;stroke:#929497;stroke-width:0.7087;stroke-miterlimit:22.9256;}
	.st5{fill-rule:evenodd;clip-rule:evenodd;fill:#D1E5AD;}
	.st6{fill-rule:evenodd;clip-rule:evenodd;fill:#B1D360;}
	.st7{fill-rule:evenodd;clip-rule:evenodd;fill:#929497;}
	.st8{fill-rule:evenodd;clip-rule:evenodd;fill:#712685;stroke:#712685;stroke-width:0.2398;stroke-miterlimit:22.9256;}
	.st9{fill-rule:evenodd;clip-rule:evenodd;fill:#732585;}
</style>
<g id="Layer_1" class="st0">
	<g class="st1">
		<path class="st2" d="M20,37.01c9.37,0,17.01-7.64,17.01-17.01c0-9.37-7.64-17.01-17.01-17.01S2.99,10.63,2.99,20
			C2.99,29.37,10.63,37.01,20,37.01z"/>
		<path class="st3" d="M17.96,7.85h7.78v0.02c-0.46,0.71-0.72,1.08-0.78,1.13h-2.08c0.28,0.33,0.48,0.74,0.58,1.22h2.21
			c0.03,0.01,0.04,0.02,0.04,0.03c-0.5,0.75-0.75,1.11-0.76,1.11h-1.44c-0.03,0.38-0.22,0.84-0.55,1.38
			c-0.44,0.55-0.86,0.9-1.27,1.06c-0.75,0.36-1.48,0.54-2.17,0.54v0.02c0,0.06,0.17,0.28,0.51,0.67l3.84,4.63v0.22
			c0,0.02-0.01,0.03-0.04,0.03h-1.69c-3.04-3.54-4.56-5.32-4.56-5.34V13.5l0.02-0.04c0.27,0.04,0.59,0.06,0.94,0.06
			c1.71,0,2.76-0.55,3.18-1.66c0.06-0.16,0.1-0.33,0.1-0.5h-4.62c-0.02,0-0.03-0.01-0.03-0.03c0.51-0.74,0.78-1.12,0.79-1.12h3.67
			V10.2c-0.21-0.42-0.62-0.76-1.22-0.99c-0.43-0.14-0.82-0.21-1.16-0.21h-2.05V8.95C17.69,8.22,17.95,7.85,17.96,7.85z"/>
		<path class="st4" d="M10.65,20.67c0.3-0.03,3.5-0.38,3.51-0.37l8.56,2.81c0.75,0.23,1.16,1.03,0.93,1.77
			c-0.23,0.75-1.03,1.16-1.77,0.93l-4.81-1.5l-0.16,0.56l5.81,1.78l7.08-3.85c0.68-0.39,1.54-0.19,1.93,0.48
			c0.33,0.36,0.48,1.19-0.32,1.93l-8.18,5.48c-0.32,0.2-0.73,0.27-1.12,0.16l-8.18-3.23l-3.25-0.04L10.65,20.67L10.65,20.67z
			 M7.64,19.54h2.82v8.8H7.64V19.54z"/>
	</g>
</g>
<g id="Layer_2" class="st0">
	<g class="st1">
		<ellipse transform="matrix(0.2283 -0.9736 0.9736 0.2283 -4.038 34.9055)" class="st5" cx="20" cy="20" rx="14.72" ry="14.72"/>
		<path class="st6" d="M20,2.99c9.39,0,17.01,7.61,17.01,17.01c0,9.39-7.61,17.01-17.01,17.01c-9.39,0-17.01-7.61-17.01-17.01
			C2.99,10.61,10.61,2.99,20,2.99L20,2.99z M20,7.4C13.04,7.4,7.4,13.04,7.4,20c0,6.96,5.64,12.6,12.6,12.6
			c6.96,0,12.6-5.64,12.6-12.6C32.6,13.04,26.96,7.4,20,7.4z"/>
		<path class="st7" d="M20,2.64c4.79,0,9.14,1.94,12.28,5.09c3.14,3.14,5.09,7.48,5.09,12.28c0,4.79-1.94,9.14-5.09,12.28
			c-3.14,3.14-7.48,5.09-12.28,5.09c-4.79,0-9.14-1.94-12.28-5.09C4.58,29.14,2.64,24.79,2.64,20c0-4.79,1.94-9.14,5.09-12.28
			C10.86,4.58,15.21,2.64,20,2.64L20,2.64z M31.78,8.22C28.76,5.21,24.6,3.35,20,3.35c-4.6,0-8.76,1.86-11.78,4.88
			C5.21,11.24,3.35,15.4,3.35,20c0,4.6,1.86,8.76,4.88,11.78c3.01,3.01,7.18,4.88,11.78,4.88c4.6,0,8.76-1.86,11.78-4.88
			c3.01-3.01,4.88-7.18,4.88-11.78C36.65,15.4,34.79,11.24,31.78,8.22L31.78,8.22z M20,7.05c-3.58,0-6.81,1.45-9.16,3.79
			C8.5,13.18,7.05,16.42,7.05,20c0,3.58,1.45,6.82,3.79,9.16s5.58,3.79,9.16,3.79c3.58,0,6.82-1.45,9.16-3.79
			c2.34-2.34,3.79-5.58,3.79-9.16c0-3.58-1.45-6.82-3.79-9.16C26.82,8.5,23.58,7.05,20,7.05L20,7.05z M28.66,11.34
			C26.44,9.13,23.38,7.76,20,7.76c-3.38,0-6.44,1.37-8.66,3.59C9.13,13.56,7.76,16.62,7.76,20c0,3.38,1.37,6.44,3.59,8.66
			c2.22,2.22,5.28,3.59,8.66,3.59c3.38,0,6.44-1.37,8.66-3.59c2.22-2.22,3.59-5.28,3.59-8.66C32.24,16.62,30.87,13.56,28.66,11.34z"
			/>
		<g>
			<path class="st8" d="M27.98,13.75h-7.13v0.87h6.6c0.23,0,0.42,0.19,0.42,0.42v9.93c0,0.23-0.19,0.42-0.42,0.42h-2.62v0.87h3.14
				c0.42,0,0.75-0.34,0.75-0.75v-11C28.73,14.09,28.39,13.75,27.98,13.75z"/>
			<polygon class="st8" points="22.14,18.3 26.79,18.3 26.79,19.06 22.14,19.06 22.14,18.3 			"/>
			<rect x="23.26" y="20.84" class="st8" width="3.53" height="0.77"/>
			<path class="st8" d="M17.11,13.86c-2.01,0.06-3.63,1.68-3.69,3.69c-0.07,2.19,1.74,3.99,3.93,3.93c2.01-0.06,3.63-1.68,3.69-3.69
				C21.11,15.6,19.3,13.79,17.11,13.86L17.11,13.86z M17.23,20.61c-1.62,0-2.94-1.32-2.94-2.94c0-1.62,1.32-2.94,2.94-2.94
				c1.62,0,2.94,1.32,2.94,2.94C20.17,19.29,18.86,20.61,17.23,20.61z"/>
			<path class="st8" d="M12.24,25.74c0.43-2.37,2.5-4.16,5-4.16c2.49,0,4.56,1.79,4.99,4.16l0.03,0.16c0,0,0.05,0.22,0.3,0.31
				c0.07,0.02,0.18,0.03,0.28,0.01c0.09-0.02,0.16-0.08,0.2-0.12c0.16-0.15,0.14-0.35,0.14-0.35c-0.44-2.89-2.94-5.11-5.96-5.11
				c-3.02,0-5.52,2.22-5.96,5.11c0,0-0.04,0.39,0.36,0.48c0.12,0.03,0.19,0.02,0.27-0.01c0.03-0.01,0.05-0.02,0.07-0.03
				c0.19-0.11,0.22-0.28,0.22-0.28L12.24,25.74z"/>
			<rect x="22.14" y="15.96" class="st8" width="4.66" height="0.77"/>
		</g>
	</g>
</g>
<g id="Layer_3">
	<g>
		<path class="st6" d="M31.69,4.65c1.06,0.47,1.68,0.84,1.74,0.88l0.55,0.33v19.78l-0.04,0.14c-0.05,0.19-0.99,3.77-5.03,6.92
			c-1.44,1.12-3.55,2.69-5.43,3.79c-1.34,0.78-2.58,1.33-3.41,1.33c-0.16,0-0.47,0-1.12-0.24c-0.62-0.23-1.57-0.67-3.01-1.56
			c-0.8-0.49-1.66-1.07-2.53-1.68c-0.86-0.61-1.7-1.24-2.47-1.86c-1.11-0.9-2.03-1.93-2.75-2.91c-1.39-1.89-2.07-3.6-2.11-3.7
			l-0.08-0.2c0-6.62,0-13.23,0.01-19.85c0.2-0.11,0.41-0.23,0.62-0.33c0.19-0.1,1.64-0.85,3.93-1.61c1.25-0.42,2.9-0.89,4.8-1.23
			c1.44-0.26,3.03-0.44,4.7-0.47l0.4,0c1.63,0,3.17,0.17,4.58,0.42c1.84,0.33,3.42,0.81,4.62,1.24C30.45,4.12,31.13,4.4,31.69,4.65z
			"/>
		<path class="st7" d="M31.83,4.33c0.37,0.17,0.7,0.32,0.96,0.46c0.5,0.25,0.78,0.41,0.82,0.44l0.72,0.43v20.02
			c-0.01,0.06-0.03,0.13-0.05,0.19c-0.05,0.2-1.02,3.88-5.16,7.11c-0.82,0.64-1.86,1.43-2.95,2.19c-0.83,0.58-1.7,1.15-2.52,1.63
			c-0.68,0.4-1.34,0.74-1.94,0.98c-0.62,0.25-1.18,0.4-1.64,0.4c-0.17,0-0.53,0-1.24-0.26c-0.32-0.12-0.73-0.29-1.23-0.55
			c-0.51-0.26-1.11-0.6-1.84-1.04c-0.39-0.24-0.81-0.51-1.24-0.8c-0.41-0.28-0.85-0.58-1.3-0.9c-0.45-0.32-0.88-0.63-1.28-0.94
			c-0.41-0.31-0.81-0.62-1.2-0.94c-0.53-0.43-1.02-0.89-1.47-1.36c-0.51-0.54-0.95-1.09-1.35-1.62c-0.49-0.66-0.89-1.3-1.21-1.86
			C6.1,26.86,5.79,26.07,5.76,26l-0.1-0.26l0-4.03c0-5.29,0-10.59,0.01-15.88l0-0.21l0.38-0.2C6.2,5.33,6.36,5.24,6.48,5.18
			c0.2-0.1,1.67-0.86,3.98-1.63c0.69-0.23,1.5-0.48,2.41-0.71c0.75-0.19,1.57-0.38,2.44-0.53c0.73-0.13,1.5-0.24,2.29-0.33
			c0.79-0.08,1.62-0.14,2.46-0.15l0.41-0.01c0.77,0,1.54,0.04,2.29,0.11c0.82,0.08,1.6,0.19,2.34,0.32
			c0.85,0.15,1.64,0.34,2.36,0.53c0.87,0.23,1.65,0.49,2.32,0.73c0.41,0.15,0.78,0.29,1.11,0.42C31.22,4.07,31.54,4.2,31.83,4.33
			L31.83,4.33z M32.48,5.42c-0.25-0.13-0.56-0.28-0.94-0.44c-0.26-0.12-0.57-0.25-0.91-0.39c-0.35-0.14-0.71-0.28-1.08-0.42
			c-0.64-0.23-1.4-0.48-2.26-0.71c-0.71-0.19-1.49-0.37-2.3-0.52c-0.73-0.13-1.49-0.24-2.28-0.31c-0.71-0.07-1.46-0.1-2.23-0.1
			l-0.39,0c-0.82,0.01-1.62,0.07-2.4,0.15C16.89,2.76,16.14,2.87,15.43,3c-0.85,0.15-1.65,0.33-2.39,0.52
			c-0.88,0.23-1.68,0.47-2.36,0.7C8.42,4.97,6.99,5.71,6.8,5.81C6.64,5.89,6.51,5.96,6.38,6.03l-0.01,0
			c-0.01,5.22-0.01,10.45-0.01,15.67l0,3.91l0.05,0.14c0.03,0.07,0.32,0.8,0.91,1.83c0.31,0.54,0.69,1.15,1.16,1.79
			c0.38,0.51,0.81,1.04,1.29,1.55c0.42,0.45,0.89,0.88,1.39,1.29c0.38,0.3,0.77,0.61,1.19,0.92c0.43,0.33,0.86,0.64,1.26,0.92
			c0.42,0.29,0.85,0.59,1.29,0.88c0.41,0.27,0.82,0.53,1.22,0.78c0.72,0.44,1.31,0.77,1.79,1.01c0.48,0.24,0.86,0.41,1.16,0.51
			c0.59,0.21,0.87,0.21,1,0.21c0.37,0,0.84-0.13,1.38-0.35c0.56-0.23,1.19-0.55,1.85-0.94c0.81-0.47,1.65-1.03,2.47-1.6
			c1.08-0.75,2.11-1.53,2.92-2.16c3.81-2.97,4.79-6.3,4.9-6.7l0.03-0.13V6.06l-0.38-0.23C33.21,5.81,32.93,5.65,32.48,5.42z"/>
		<path class="st5" d="M28.41,23.77c-0.05,0.16-0.21,0.64-0.57,1.26c-0.41,0.71-1.16,1.77-2.45,2.77c-3.47,2.7-5.03,3.3-5.34,3.3
			c-0.16,0-0.82-0.22-2.17-1.05c-1.09-0.67-2.31-1.54-3.36-2.38c-1.77-1.42-2.74-3.49-2.95-3.96l0-12.8c0.41-0.2,1.21-0.55,2.27-0.9
			c1.45-0.48,3.7-1.07,6.22-1.11c0.09,0,0.17,0,0.26,0c2.43,0,4.58,0.58,5.95,1.07c1.01,0.36,1.75,0.72,2.14,0.92L28.41,23.77
			L28.41,23.77z"/>
		<path class="st7" d="M28.75,23.88c-0.03,0.11-0.11,0.34-0.25,0.65c-0.09,0.19-0.2,0.42-0.35,0.68c-0.21,0.37-0.52,0.83-0.93,1.33
			c-0.41,0.49-0.94,1.03-1.6,1.54c-1.38,1.07-2.46,1.82-3.28,2.33c-1.32,0.82-2.05,1.05-2.27,1.05c-0.13,0-0.46-0.09-0.99-0.35
			c-0.35-0.17-0.8-0.41-1.36-0.76c-0.54-0.33-1.13-0.72-1.72-1.14c-0.58-0.41-1.16-0.84-1.68-1.26c-0.68-0.55-1.24-1.18-1.7-1.79
			c-0.77-1.04-1.22-2-1.35-2.31l-0.03-0.07c0-4.36,0-8.73,0.01-13.09l0.2-0.1c0.24-0.11,0.61-0.28,1.1-0.48
			c0.35-0.14,0.76-0.29,1.2-0.44c0.84-0.28,1.94-0.59,3.2-0.82c0.96-0.17,2.01-0.29,3.12-0.31l0.27,0c1.24,0,2.41,0.15,3.44,0.36
			c1.04,0.21,1.93,0.49,2.62,0.73c0.51,0.18,0.96,0.37,1.33,0.53c0.37,0.16,0.66,0.31,0.85,0.41l0.19,0.1v12.74h0.13L28.75,23.88
			L28.75,23.88z M27.85,24.24c0.1-0.23,0.17-0.41,0.2-0.51V11.11c-0.17-0.08-0.38-0.18-0.63-0.29c-0.35-0.16-0.78-0.33-1.28-0.51
			c-0.68-0.24-1.54-0.51-2.53-0.71c-0.99-0.2-2.11-0.35-3.3-0.35l-0.25,0c-1.06,0.02-2.08,0.14-3.01,0.3
			c-1.23,0.22-2.29,0.52-3.1,0.79c-0.44,0.15-0.83,0.29-1.17,0.42c-0.34,0.14-0.63,0.26-0.86,0.37l0,12.49
			c0.15,0.34,0.57,1.19,1.24,2.1c0.42,0.57,0.94,1.16,1.57,1.66c0.52,0.42,1.08,0.84,1.64,1.24c0.56,0.39,1.13,0.78,1.68,1.11
			c0.55,0.34,0.98,0.57,1.3,0.73c0.42,0.21,0.63,0.27,0.68,0.27c0.15,0,0.72-0.21,1.9-0.94c0.81-0.5,1.86-1.23,3.22-2.28
			c0.62-0.48,1.11-0.98,1.5-1.44c0.38-0.46,0.66-0.88,0.86-1.23C27.67,24.63,27.77,24.42,27.85,24.24z"/>
		<path class="st9" d="M16.65,13.35h8.08v0.02c-0.48,0.73-0.75,1.12-0.81,1.18h-2.16c0.3,0.35,0.5,0.77,0.61,1.27h2.3
			c0.03,0.01,0.04,0.02,0.04,0.03C24.2,16.62,23.94,17,23.93,17h-1.5c-0.03,0.4-0.22,0.88-0.57,1.44c-0.46,0.57-0.9,0.93-1.32,1.1
			c-0.78,0.38-1.53,0.56-2.25,0.56v0.02c0,0.06,0.17,0.29,0.53,0.7l3.99,4.81v0.23c0,0.02-0.01,0.03-0.04,0.03h-1.75
			c-3.16-3.68-4.74-5.53-4.74-5.55v-1.12l0.02-0.04c0.28,0.04,0.61,0.06,0.98,0.06c1.77,0,2.87-0.58,3.3-1.72
			c0.07-0.17,0.1-0.34,0.1-0.52h-4.81c-0.02,0-0.03-0.01-0.03-0.03c0.53-0.77,0.81-1.16,0.82-1.16h3.81v-0.02
			c-0.22-0.44-0.64-0.79-1.27-1.03c-0.45-0.15-0.85-0.22-1.21-0.22h-2.13V14.5C16.37,13.73,16.63,13.35,16.65,13.35z"/>
	</g>
</g>
</svg>
