<?xml version="1.0" encoding="utf-8"?>
<!-- Generator: Adobe Illustrator 24.0.0, SVG Export Plug-In . SVG Version: 6.00 Build 0)  -->
<svg version="1.1" id="Layer_1" xmlns="http://www.w3.org/2000/svg" xmlns:xlink="http://www.w3.org/1999/xlink" x="0px" y="0px"
	 viewBox="0 0 50 40" style="enable-background:new 0 0 50 40;" xml:space="preserve">
<style type="text/css">
	.st0{fill-rule:evenodd;clip-rule:evenodd;fill:#FFED00;}
	.st1{clip-path:url(#SVGID_2_);}
	.st2{fill-rule:evenodd;clip-rule:evenodd;fill:#FFCC00;}
	.st3{fill-rule:evenodd;clip-rule:evenodd;fill:#0060AC;}
</style>
<g>
	<path class="st0" d="M12.3,6.6h18c5.8,0,10.5,4.8,10.5,10.6v5.6c0,5.8-4.8,10.5-10.5,10.5h-18c-5.8,0-10.6-4.8-10.6-10.5v-5.6
		C1.7,11.4,6.5,6.6,12.3,6.6z"/>
	<g>
		<g>
			<defs>
				<path id="SVGID_1_" d="M12.3,6.6h18c5.8,0,10.5,4.8,10.5,10.6v5.6c0,5.8-4.8,10.5-10.5,10.5h-18c-5.8,0-10.6-4.8-10.6-10.5v-5.6
					C1.7,11.4,6.5,6.6,12.3,6.6z"/>
			</defs>
			<clipPath id="SVGID_2_">
				<use xlink:href="#SVGID_1_"  style="overflow:visible;"/>
			</clipPath>
			<g class="st1">
				<rect x="21.1" y="5.7" class="st2" width="22" height="29"/>
			</g>
		</g>
	</g>
	<polygon class="st2" points="36.7,22 39.7,12.5 48.3,26.2 	"/>
	<path class="st3" d="M12.5,17.5v-1.8H6.2v8h2.3v-2.8h3.6v-1.8H8.5v-1.8L12.5,17.5L12.5,17.5z M19.3,23.8l-0.6-1.6h-3.4l-0.6,1.6
		h-2.3l3.6-8h2.2l3.6,8H19.3L19.3,23.8z M15.9,20.6H18L17,18L15.9,20.6L15.9,20.6z M30.2,23.6c-0.4,0.4-0.8,0.6-1.2,0.6
		c-0.3,0-0.6-0.1-0.9-0.5c1.6-0.6,2.7-2.1,2.7-3.9c0-2.4-1.9-4.2-4.5-4.2c-2.6,0-4.5,1.8-4.5,4.2c0,2.1,1.5,3.8,3.6,4.1
		c1.4,1.4,2.2,1.9,3.5,1.9c0.9,0,1.7-0.4,2.3-1L30.2,23.6L30.2,23.6z M24.1,19.8c0-1.4,1-2.3,2.2-2.3c1.2,0,2.2,0.9,2.2,2.3
		s-1,2.3-2.2,2.3C25,22.1,24.1,21.2,24.1,19.8L24.1,19.8z M35,23.9c2,0,3.1-0.9,3.1-2c0-2.5-3.7-1.5-3.7-2.4c0-0.2,0.3-0.4,1-0.4
		c0.5,0,1.2,0.1,1.8,0.5l0.7-1.5c-0.6-0.3-1.6-0.5-2.5-0.5c-2,0-3,0.9-3,2.1c0,2.5,3.7,1.5,3.7,2.4c0,0.3-0.2,0.4-1,0.4
		c-0.8,0-1.6-0.2-2.2-0.6l-0.7,1.5C32.8,23.7,33.9,23.9,35,23.9z"/>
</g>
</svg>
