<svg width="156" height="118" viewBox="0 0 156 118" fill="none" xmlns="http://www.w3.org/2000/svg">
<mask id="path-1-inside-1" fill="white">
<path fill-rule="evenodd" clip-rule="evenodd" d="M81.3757 80.8639H81.3904C83.6594 80.8639 85.4902 82.7094 85.4902 84.9784V85.6639C85.4902 87.9329 83.6594 89.7784 81.3904 89.7784H36.1173C33.8482 89.7784 32 87.9329 32 85.6639V84.9784C32 82.7103 33.8467 80.8654 36.1145 80.8639V68.3484C36.1145 64.1141 38.791 58.8328 42.204 56.3262L55.3165 46.6984V45.0793L42.2144 35.4522C38.8001 32.9456 36.1347 27.6642 36.1347 23.4299L36.1159 10.9145C33.8468 10.9145 32 9.069 32 6.79998V6.11447C32 3.84545 33.8482 2 36.1173 2H81.3897C83.6587 2 85.4895 3.84545 85.4895 6.11447V6.80068C85.4895 9.0697 83.6587 10.9151 81.3897 10.9151H81.375V23.4306C81.375 27.6642 78.6615 32.9491 75.2542 35.4612L62.1737 45.0724V46.7067L75.2549 56.3178C78.6615 58.83 81.3757 64.1148 81.3757 68.3484V80.8639ZM78.495 80.8646H78.6323V68.3491C78.6323 65.0073 76.3159 60.5089 73.6268 58.5255L59.9876 48.5034C59.6372 48.2449 59.4303 47.8353 59.4303 47.3999V44.3792C59.4303 43.9431 59.6595 43.5341 60.0099 43.2757L73.6261 33.2542C76.3166 31.2708 78.6323 26.7725 78.6323 23.4306V10.9151H38.8572V23.4306C38.8572 26.7711 41.1388 31.2639 43.8321 33.2417L57.5075 43.2799C57.8586 43.5383 58.0585 43.9486 58.0585 44.3854V47.3936C58.0585 47.8304 57.8537 48.2408 57.5019 48.4992L43.8355 58.5374C41.143 60.5152 38.8572 65.008 38.8572 68.3484V80.8639H38.9947V81.0005H78.495V80.8646ZM60.9394 67.8338C60.9277 67.8251 60.913 67.8253 60.8957 67.8338L60.9394 67.8338Z"/>
</mask>
<path fill-rule="evenodd" clip-rule="evenodd" d="M81.3757 80.8639H81.3904C83.6594 80.8639 85.4902 82.7094 85.4902 84.9784V85.6639C85.4902 87.9329 83.6594 89.7784 81.3904 89.7784H36.1173C33.8482 89.7784 32 87.9329 32 85.6639V84.9784C32 82.7103 33.8467 80.8654 36.1145 80.8639V68.3484C36.1145 64.1141 38.791 58.8328 42.204 56.3262L55.3165 46.6984V45.0793L42.2144 35.4522C38.8001 32.9456 36.1347 27.6642 36.1347 23.4299L36.1159 10.9145C33.8468 10.9145 32 9.069 32 6.79998V6.11447C32 3.84545 33.8482 2 36.1173 2H81.3897C83.6587 2 85.4895 3.84545 85.4895 6.11447V6.80068C85.4895 9.0697 83.6587 10.9151 81.3897 10.9151H81.375V23.4306C81.375 27.6642 78.6615 32.9491 75.2542 35.4612L62.1737 45.0724V46.7067L75.2549 56.3178C78.6615 58.83 81.3757 64.1148 81.3757 68.3484V80.8639ZM78.495 80.8646H78.6323V68.3491C78.6323 65.0073 76.3159 60.5089 73.6268 58.5255L59.9876 48.5034C59.6372 48.2449 59.4303 47.8353 59.4303 47.3999V44.3792C59.4303 43.9431 59.6595 43.5341 60.0099 43.2757L73.6261 33.2542C76.3166 31.2708 78.6323 26.7725 78.6323 23.4306V10.9151H38.8572V23.4306C38.8572 26.7711 41.1388 31.2639 43.8321 33.2417L57.5075 43.2799C57.8586 43.5383 58.0585 43.9486 58.0585 44.3854V47.3936C58.0585 47.8304 57.8537 48.2408 57.5019 48.4992L43.8355 58.5374C41.143 60.5152 38.8572 65.008 38.8572 68.3484V80.8639H38.9947V81.0005H78.495V80.8646ZM60.9394 67.8338C60.9277 67.8251 60.913 67.8253 60.8957 67.8338L60.9394 67.8338Z" fill="#5E5E5E"/>
<path d="M81.3757 80.8639H81.2449V80.9948H81.3757V80.8639ZM36.1145 80.8639L36.1146 80.9948L36.2453 80.9947V80.8639H36.1145ZM42.204 56.3262L42.1265 56.2207L42.1265 56.2207L42.204 56.3262ZM55.3165 46.6984L55.3939 46.8038L55.4473 46.7646V46.6984H55.3165ZM55.3165 45.0793H55.4473V45.0131L55.394 44.9739L55.3165 45.0793ZM42.2144 35.4522L42.2919 35.3467L42.2919 35.3467L42.2144 35.4522ZM36.1347 23.4299H36.2655L36.2655 23.4297L36.1347 23.4299ZM36.1159 10.9145L36.2467 10.9143L36.2465 10.7836H36.1159V10.9145ZM81.375 10.9151V10.7843H81.2442V10.9151H81.375ZM75.2542 35.4612L75.3317 35.5667L75.3318 35.5666L75.2542 35.4612ZM62.1737 45.0724L62.0962 44.9669L62.0428 45.0061V45.0724H62.1737ZM62.1737 46.7067H62.0428V46.7729L62.0962 46.8122L62.1737 46.7067ZM75.2549 56.3178L75.3325 56.2125L75.3324 56.2124L75.2549 56.3178ZM78.6323 80.8646V80.9955H78.7631V80.8646H78.6323ZM78.495 80.8646V80.7338H78.3641V80.8646H78.495ZM73.6268 58.5255L73.7045 58.4202L73.7043 58.4201L73.6268 58.5255ZM59.9876 48.5034L59.9099 48.6087L59.9101 48.6089L59.9876 48.5034ZM60.0099 43.2757L59.9323 43.1703L59.9322 43.1704L60.0099 43.2757ZM73.6261 33.2542L73.7037 33.3596L73.7037 33.3596L73.6261 33.2542ZM78.6323 10.9151H78.7631V10.7843H78.6323V10.9151ZM38.8572 10.9151V10.7843H38.7264V10.9151H38.8572ZM43.8321 33.2417L43.7546 33.3472L43.7546 33.3472L43.8321 33.2417ZM57.5075 43.2799L57.5851 43.1745L57.5849 43.1744L57.5075 43.2799ZM57.5019 48.4992L57.5794 48.6047L57.5794 48.6047L57.5019 48.4992ZM43.8355 58.5374L43.7581 58.4319L43.7581 58.4319L43.8355 58.5374ZM38.8572 80.8639H38.7264V80.9948H38.8572V80.8639ZM38.9947 80.8639H39.1256V80.7331H38.9947V80.8639ZM38.9947 81.0005H38.8639V81.1314H38.9947V81.0005ZM78.495 81.0005V81.1314H78.6259V81.0005H78.495ZM60.9394 67.8338L60.9394 67.9646L61.3363 67.9648L61.0173 67.7286L60.9394 67.8338ZM60.8957 67.8338L60.838 67.7163L60.8956 67.9646L60.8957 67.8338ZM81.3904 80.7331H81.3757V80.9948H81.3904V80.7331ZM85.6211 84.9784C85.6211 82.6377 83.7323 80.7331 81.3904 80.7331V80.9948C83.5865 80.9948 85.3593 82.781 85.3593 84.9784H85.6211ZM85.6211 85.6639V84.9784H85.3593V85.6639H85.6211ZM81.3904 89.9092C83.7323 89.9092 85.6211 88.0046 85.6211 85.6639H85.3593C85.3593 87.8613 83.5865 89.6475 81.3904 89.6475V89.9092ZM36.1173 89.9092H81.3904V89.6475H36.1173V89.9092ZM31.8691 85.6639C31.8691 88.0053 33.7761 89.9092 36.1173 89.9092V89.6475C33.9204 89.6475 32.1309 87.8605 32.1309 85.6639H31.8691ZM31.8691 84.9784V85.6639H32.1309V84.9784H31.8691ZM36.1144 80.7331C33.7745 80.7346 31.8691 82.6379 31.8691 84.9784H32.1309C32.1309 82.7827 33.9189 80.9962 36.1146 80.9948L36.1144 80.7331ZM35.9836 68.3484V80.8639H36.2453V68.3484H35.9836ZM42.1265 56.2207C40.3996 57.489 38.8652 59.4539 37.7626 61.6303C36.6601 63.8067 35.9836 66.2059 35.9836 68.3484H36.2453C36.2453 66.2567 36.9072 63.898 37.9961 61.7486C39.085 59.5991 40.5954 57.67 42.2814 56.4317L42.1265 56.2207ZM55.239 46.5929L42.1265 56.2207L42.2814 56.4317L55.3939 46.8038L55.239 46.5929ZM55.1856 45.0793V46.6984H55.4473V45.0793H55.1856ZM42.1369 35.5576L55.239 45.1848L55.394 44.9739L42.2919 35.3467L42.1369 35.5576ZM36.0038 23.4299C36.0038 25.5724 36.6774 27.9715 37.7774 30.148C38.8774 32.3244 40.4093 34.2893 42.137 35.5577L42.2919 35.3467C40.6052 34.1085 39.0973 32.1794 38.011 30.0299C36.9246 27.8805 36.2655 25.5218 36.2655 23.4299H36.0038ZM35.985 10.9146L36.0038 23.4301L36.2655 23.4297L36.2467 10.9143L35.985 10.9146ZM31.8691 6.79998C31.8691 9.14133 33.7746 11.0453 36.1159 11.0453V10.7836C33.9191 10.7836 32.1309 8.99667 32.1309 6.79998H31.8691ZM31.8691 6.11447V6.79998H32.1309V6.11447H31.8691ZM36.1173 1.86914C33.7761 1.86914 31.8691 3.77307 31.8691 6.11447H32.1309C32.1309 3.91784 33.9204 2.13086 36.1173 2.13086V1.86914ZM81.3897 1.86914H36.1173V2.13086H81.3897V1.86914ZM85.6204 6.11447C85.6204 3.77379 83.7316 1.86914 81.3897 1.86914V2.13086C83.5858 2.13086 85.3586 3.91711 85.3586 6.11447H85.6204ZM85.6204 6.80068V6.11447H85.3586V6.80068H85.6204ZM81.3897 11.046C83.7316 11.046 85.6204 9.14136 85.6204 6.80068H85.3586C85.3586 8.99804 83.5858 10.7843 81.3897 10.7843V11.046ZM81.375 11.046H81.3897V10.7843H81.375V11.046ZM81.5059 23.4306V10.9151H81.2442V23.4306H81.5059ZM75.3318 35.5666C77.0556 34.2957 78.5978 32.3288 79.7089 30.1509C80.82 27.9732 81.5059 25.5731 81.5059 23.4306H81.2442C81.2442 25.5217 80.5733 27.8809 79.4758 30.032C78.3783 32.183 76.8601 34.1147 75.1765 35.3559L75.3318 35.5666ZM62.2512 45.1778L75.3317 35.5667L75.1767 35.3558L62.0962 44.9669L62.2512 45.1778ZM62.3046 46.7067V45.0724H62.0428V46.7067H62.3046ZM75.3324 56.2124L62.2512 46.6013L62.0962 46.8122L75.1774 56.4233L75.3324 56.2124ZM81.5066 68.3484C81.5066 66.2059 80.8205 63.8059 79.7094 61.6281C78.5981 59.4503 77.056 57.4834 75.3325 56.2125L75.1772 56.4231C76.8604 57.6644 78.3787 59.596 79.4762 61.7471C80.5738 63.8982 81.2449 66.2574 81.2449 68.3484H81.5066ZM81.5066 80.8639V68.3484H81.2449V80.8639H81.5066ZM78.6323 80.7338H78.495V80.9955H78.6323V80.7338ZM78.5014 68.3491V80.8646H78.7631V68.3491H78.5014ZM73.5491 58.6309C74.8727 59.6071 76.1124 61.2093 77.0214 62.9875C77.9305 64.7657 78.5014 66.7051 78.5014 68.3491H78.7631C78.7631 66.6513 78.1758 64.6706 77.2545 62.8683C76.333 61.066 75.07 59.4274 73.7045 58.4202L73.5491 58.6309ZM59.9101 48.6089L73.5493 58.631L73.7043 58.4201L60.0651 48.398L59.9101 48.6089ZM59.2994 47.3999C59.2994 47.8769 59.5261 48.3256 59.9099 48.6087L60.0653 48.3981C59.7483 48.1643 59.5611 47.7937 59.5611 47.3999H59.2994ZM59.2994 44.3792V47.3999H59.5611V44.3792H59.2994ZM59.9322 43.1704C59.5521 43.4507 59.2994 43.897 59.2994 44.3792H59.5611C59.5611 43.9891 59.7668 43.6176 60.0876 43.381L59.9322 43.1704ZM73.5485 33.1488L59.9323 43.1703L60.0874 43.3811L73.7037 33.3596L73.5485 33.1488ZM78.5014 23.4306C78.5014 25.0747 77.9307 27.014 77.0216 28.7923C76.1126 30.5705 74.8727 32.1727 73.5484 33.1489L73.7037 33.3596C75.07 32.3524 76.3332 30.7137 77.2546 28.9114C78.176 27.1092 78.7631 25.1285 78.7631 23.4306H78.5014ZM78.5014 10.9151V23.4306H78.7631V10.9151H78.5014ZM38.8572 11.046H78.6323V10.7843H38.8572V11.046ZM38.9881 23.4306V10.9151H38.7264V23.4306H38.9881ZM43.9095 33.1362C42.5842 32.1629 41.3522 30.5638 40.4514 28.788C39.5505 27.0121 38.9881 25.0743 38.9881 23.4306H38.7264C38.7264 25.1274 39.3048 27.1063 40.218 28.9064C41.1312 30.7065 42.3867 32.3426 43.7546 33.3472L43.9095 33.1362ZM57.5849 43.1744L43.9095 33.1362L43.7546 33.3472L57.4301 43.3853L57.5849 43.1744ZM58.1894 44.3854C58.1894 43.9086 57.9709 43.4585 57.5851 43.1745L57.4299 43.3852C57.7462 43.6181 57.9277 43.9886 57.9277 44.3854H58.1894ZM58.1894 47.3936V44.3854H57.9277V47.3936H58.1894ZM57.5794 48.6047C57.9652 48.3212 58.1894 47.8715 58.1894 47.3936H57.9277C57.9277 47.7894 57.7422 48.1603 57.4244 48.3938L57.5794 48.6047ZM43.913 58.6429L57.5794 48.6047L57.4244 48.3938L43.7581 58.4319L43.913 58.6429ZM38.9881 68.3484C38.9881 66.7048 39.5515 64.767 40.4533 62.9912C41.3552 61.2153 42.588 59.6161 43.913 58.6429L43.7581 58.4319C42.3905 59.4365 41.1342 61.0725 40.22 62.8727C39.3058 64.6728 38.7264 66.6516 38.7264 68.3484H38.9881ZM38.9881 80.8639V68.3484H38.7264V80.8639H38.9881ZM38.9947 80.7331H38.8572V80.9948H38.9947V80.7331ZM39.1256 81.0005V80.8639H38.8639V81.0005H39.1256ZM78.495 80.8697H38.9947V81.1314H78.495V80.8697ZM78.3641 80.8646V81.0005H78.6259V80.8646H78.3641ZM61.0173 67.7286C60.952 67.6803 60.8808 67.6953 60.838 67.7163L60.9533 67.9512C60.95 67.9529 60.9382 67.9581 60.92 67.9582C60.8996 67.9582 60.8787 67.9516 60.8616 67.9389L61.0173 67.7286ZM60.8956 67.9646L60.9394 67.9646L60.9395 67.7029L60.8957 67.7029L60.8956 67.9646Z" fill="#5E5E5E" mask="url(#path-1-inside-1)"/>
<circle cx="94.4555" cy="86.9461" r="29.5441" fill="#FFF3E6" stroke="#EB6502" stroke-width="2"/>
<path d="M79.3536 88.6171C79.2761 87.9715 79.2363 87.3301 79.2363 86.766C79.2363 78.345 86.1775 71.3984 94.592 71.3984C98.5169 71.3984 102.191 72.9822 104.894 75.452L103.539 76.832C103.233 77.1377 103.116 77.5845 103.233 78.0081C103.375 78.4078 103.704 78.7138 104.126 78.8078C104.363 78.8553 112.135 81.3615 111.64 81.2619C112.269 81.4717 113.2 80.7998 113.027 79.8742C112.979 79.6372 111.258 70.9975 111.358 71.4925C111.264 71.0692 110.958 70.7164 110.535 70.5988C110.136 70.4812 109.689 70.5988 109.384 70.9044L108.232 72.0333C104.683 68.717 99.8096 66.6941 94.592 66.6941C83.5689 66.6941 74.5356 75.7343 74.5356 86.766V86.8128C74.5356 87.4759 74.5659 87.9883 74.6011 88.3803C74.648 88.8998 75.0305 89.3252 75.5416 89.4278L77.9559 89.9108C78.7418 90.0682 79.4484 89.4088 79.3536 88.6171V88.6171Z" fill="#EB6502"/>
<path d="M113.709 84.1437L111.287 83.6503C110.501 83.4899 109.789 84.1496 109.886 84.9445C109.97 85.6304 110.007 86.2974 110.007 86.8059C110.007 95.2217 103.065 102.165 94.6507 102.165C90.7257 102.165 87.051 100.582 84.348 98.0898L85.7035 96.7341C86.0089 96.4286 86.1265 95.982 86.0089 95.5587C85.8678 95.1589 85.5388 94.8534 85.1159 94.7595C84.8793 94.7117 77.1076 92.2072 77.6025 92.3067C77.2028 92.2363 76.8031 92.3539 76.5448 92.6358C76.2626 92.8944 76.1451 93.3174 76.2155 93.6936C76.2632 93.9303 77.9841 102.487 77.8847 101.992C77.9783 102.415 78.284 102.768 78.707 102.885C79.1976 103.008 79.6071 102.859 79.8586 102.58L80.987 101.451C84.5359 104.766 89.4094 106.866 94.6507 106.866C105.674 106.866 114.708 97.8311 114.708 86.8059V86.7352C114.708 86.2142 114.689 85.7027 114.645 85.1943C114.601 84.6748 114.22 84.2481 113.709 84.1437Z" fill="#EB6502"/>
<path d="M100.666 82.0733C100.904 81.836 100.904 81.4511 100.666 81.2137L100.189 80.7358C99.9512 80.4985 99.5663 80.4985 99.3289 80.7358L94.4562 85.6086L89.5835 80.7358C89.3461 80.4985 88.9612 80.4985 88.7238 80.7358L88.246 81.2137C88.0086 81.4511 88.0086 81.836 88.246 82.0733L93.1187 86.9461L88.246 91.8188C88.0086 92.0562 88.0086 92.441 88.246 92.6784L88.7238 93.1563C88.9612 93.3936 89.3461 93.3936 89.5835 93.1563L94.4562 88.2835L99.3289 93.1563C99.5663 93.3936 99.9512 93.3936 100.189 93.1563L100.666 92.6784C100.904 92.441 100.904 92.0562 100.666 91.8188L95.7937 86.9461L100.666 82.0733Z" fill="#EB6502"/>
</svg>
