<svg width="156" height="118" viewBox="0 0 156 118" fill="none" xmlns="http://www.w3.org/2000/svg">
<path d="M149.873 81.8354H144.406C143.6 71.2176 137.097 62.1536 127.976 57.7223V4H102.625V57.7223C97.6761 60.1394 93.5037 63.8801 90.5975 68.5128V26.732H65.247V81.8354H53.2192V47.8814H27.8687V81.8354H6V86.3243H86.2237C87.3747 101.431 99.978 113.344 115.315 113.344C130.652 113.344 143.255 101.402 144.406 86.3243H149.873V81.8354ZM107.114 8.48885H123.516V55.9958C120.926 55.2189 118.164 54.816 115.315 54.816C112.466 54.816 109.704 55.2189 107.114 55.9958V8.48885ZM69.7359 31.2208H86.1374V81.8354H69.7359V31.2208ZM32.3576 52.3702H48.7591V81.8354H32.3576V52.3702ZM115.315 108.855C101.705 108.855 90.5975 97.7478 90.5975 84.0799C90.5975 70.4119 101.676 59.3049 115.315 59.3049C128.925 59.3049 140.032 70.4119 140.032 84.0799C140.032 97.7478 128.954 108.855 115.315 108.855Z" fill="#5E5E5E"/>
<circle cx="115.691" cy="84.1127" r="28.1355" fill="#FFF3E6" stroke="#EB6502" stroke-width="2"/>
<path d="M128.071 72.014H101.567V74.9265H111.137C114.507 74.8849 116.754 75.9667 117.877 77.7974H101.567V80.7099H118.751V81.2924C118.751 84.4545 116.671 86.8261 111.511 86.8261H104.022V91.4029H111.844H112.552L118.917 101.139H124.742L117.752 90.4875C121.83 89.0313 124.202 85.9524 124.202 81.542C124.202 81.2508 124.202 81.0011 124.16 80.7099H128.071V77.7974H123.536C123.078 76.7156 122.454 75.7586 121.539 74.9265H128.071V72.014Z" fill="#EB6502"/>
</svg>
