<svg width="156" height="118" viewBox="0 0 156 118" fill="none" xmlns="http://www.w3.org/2000/svg">
<path d="M43.9858 13.0411C43.3486 13.0411 42.832 13.5577 42.832 14.1949C42.832 14.8322 43.3486 15.3488 43.9858 15.3488V13.0411ZM43.9858 15.3488H85.9089V13.0411H43.9858V15.3488Z" fill="#5E5E5E"/>
<path d="M43.9858 24.7486C43.3486 24.7486 42.832 25.2652 42.832 25.9025C42.832 26.5397 43.3486 27.0563 43.9858 27.0563V24.7486ZM43.9858 27.0563H85.9089V24.7486H43.9858V27.0563Z" fill="#5E5E5E"/>
<path d="M43.9858 36.456C43.3486 36.456 42.832 36.9726 42.832 37.6099C42.832 38.2471 43.3486 38.7637 43.9858 38.7637V36.456ZM43.9858 38.7637H78.9217V36.456H43.9858V38.7637Z" fill="#5E5E5E"/>
<path d="M43.9858 48.1632C43.3486 48.1632 42.832 48.6798 42.832 49.317C42.832 49.9543 43.3486 50.4709 43.9858 50.4709V48.1632ZM43.9858 50.4709H69.9382V48.1632H43.9858V50.4709Z" fill="#5E5E5E"/>
<path d="M119.079 22.2995L111.607 14.946C111.113 14.465 110.445 14.1949 109.749 14.1949C109.052 14.1949 108.384 14.465 107.89 14.946L81.4005 40.8454L78.9819 51.0655C78.8985 51.4391 78.9013 51.8263 78.9903 52.1987C79.0792 52.571 79.252 52.9193 79.496 53.2179C79.74 53.5165 80.049 53.758 80.4006 53.9247C80.7521 54.0914 81.1372 54.1791 81.5278 54.1814C81.7098 54.1994 81.8931 54.1994 82.0751 54.1814L92.6277 51.8134L119.079 25.9389C119.571 25.4554 119.846 24.8012 119.846 24.1192C119.846 23.4372 119.571 22.783 119.079 22.2995ZM91.3548 49.5699L81.4641 51.6015L83.7172 42.1042L103.537 22.7731L111.174 30.2513L91.3548 49.5699ZM112.88 28.4441L105.242 20.9659L109.672 16.6535L117.183 24.1317L112.88 28.4441Z" fill="#5E5E5E"/>
<path d="M93.7381 23.4634C93.7381 24.1007 94.2547 24.6173 94.8919 24.6173C95.5292 24.6173 96.0458 24.1007 96.0458 23.4634H93.7381ZM94.8919 2H96.0458V0.846154H94.8919V2ZM36 2V0.846154H34.8462V2H36ZM36 82H34.8462V83.1538H36V82ZM94.8919 82V83.1538H96.0458V82H94.8919ZM96.0458 23.4634V2H93.7381V23.4634H96.0458ZM94.8919 0.846154H36V3.15385H94.8919V0.846154ZM34.8462 2V82H37.1538V2H34.8462ZM36 83.1538H94.8919V80.8462H36V83.1538ZM96.0458 82V54.6829H93.7381V82H96.0458Z" fill="#5E5E5E"/>
<circle cx="91.4132" cy="87.4132" r="27.4132" fill="#FFF3E6" stroke="#EB6502" stroke-width="2"/>
<path d="M111.335 82.3379C111.497 82.8296 111.022 83.292 110.535 83.1164L102.039 80.0543C101.621 79.9037 101.492 79.3757 101.793 79.0491L103.162 77.5649C97.3687 71.8356 87.9898 71.6235 82.1969 77.3527C76.404 83.1031 76.404 92.3759 82.1969 98.1264C87.9898 103.877 97.3687 103.877 103.162 98.1264C105.904 95.4246 107.343 92.2823 107.48 88.3716C107.492 88.0288 107.768 87.7501 108.111 87.7501H111.113C111.456 87.7501 111.735 88.0275 111.721 88.3701C111.549 92.4766 109.686 97.584 106.132 101.097C98.6843 108.481 86.5893 108.481 79.1413 101.097C71.7146 93.734 71.6509 81.7663 79.0989 74.4032C86.5468 67.0401 98.4933 67.0401 105.941 74.4032L107.275 72.9593C107.596 72.6114 108.173 72.7366 108.321 73.1863L111.335 82.3379Z" fill="#EB6502"/>
<path d="M98.5822 83.8329L90.4276 92.1565L91.5103 91.0514L98.5822 83.8329ZM98.6749 82.0696C98.4307 81.8191 98.028 81.8196 97.7844 82.0706L90.6212 89.4534L87.725 86.6268C87.4795 86.3872 87.0863 86.392 86.8467 86.6375L85.4558 88.0632C85.22 88.3048 85.2204 88.6904 85.4567 88.9315L89.9839 93.5527C90.2275 93.8013 90.6277 93.8013 90.8712 93.5527L99.9689 84.2664C100.205 84.0254 100.205 83.6399 99.97 83.3983L98.6749 82.0696Z" fill="#EB6502"/>
</svg>
