<svg width="156" height="118" viewBox="0 0 156 118" fill="none" xmlns="http://www.w3.org/2000/svg">
<path d="M48.524 54.4661C47.4832 54.4661 46.591 54.2957 45.8476 53.955C45.1124 53.6057 44.53 53.0989 44.1005 52.4344C43.6709 51.7699 43.357 51.0033 43.1588 50.1344C42.9688 49.2655 42.8738 48.2603 42.8738 47.1188V40.0781C42.8738 39.1411 42.9357 38.302 43.0596 37.5609C43.1918 36.8197 43.4025 36.1383 43.6916 35.5164C43.989 34.8945 44.3731 34.3792 44.8439 33.9703C45.3148 33.5614 45.9013 33.2462 46.6034 33.0247C47.3056 32.7947 48.1192 32.6797 49.0444 32.6797C49.9366 32.6797 50.7255 32.7777 51.4111 32.9736C52.0967 33.1695 52.6667 33.4421 53.121 33.7914C53.5836 34.1406 53.9595 34.5793 54.2486 35.1075C54.5377 35.6271 54.7442 36.1979 54.8681 36.8197C54.992 37.4331 55.054 38.1231 55.054 38.8898V40.2315H50.6181V38.532C50.6181 38.2083 50.6098 37.9442 50.5933 37.7398C50.585 37.5353 50.552 37.3096 50.4942 37.0625C50.4446 36.8155 50.3661 36.6238 50.2587 36.4875C50.1596 36.3512 50.0109 36.2362 49.8127 36.1425C49.6227 36.0403 49.3872 35.9892 49.1064 35.9892C48.8173 35.9892 48.5694 36.0445 48.3629 36.1553C48.1647 36.266 48.0119 36.4023 47.9045 36.5642C47.7971 36.7175 47.7103 36.9262 47.6443 37.1903C47.5864 37.4544 47.5493 37.6972 47.5327 37.9186C47.5245 38.1316 47.5204 38.3957 47.5204 38.7109V48.4093C47.5204 49.2527 47.6401 49.9214 47.8797 50.4155C48.1275 50.901 48.5736 51.1438 49.2179 51.1438C50.4074 51.1438 51.0022 50.2025 51.0022 48.3199V45.9432H49.1436V43.1448H55.1036V54.1594H52.0926L51.8324 52.3833C51.2294 53.7718 50.1266 54.4661 48.524 54.4661Z" fill="#5E5E5E"/>
<path d="M63.3559 54.4533C61.4064 54.4533 59.9525 53.9209 58.9943 52.8561C58.0443 51.7827 57.5322 50.0747 57.4578 47.7321L61.3486 47.1188C61.3651 48.4477 61.5179 49.4145 61.807 50.0194C62.1044 50.6157 62.5463 50.9138 63.1329 50.9138C63.9011 50.9138 64.2852 50.4027 64.2852 49.3805C64.2852 48.8097 64.1861 48.2858 63.9878 47.8088C63.7896 47.3232 63.5459 46.9101 63.2568 46.5693C62.9676 46.2286 62.5629 45.8282 62.0425 45.3682L60.221 43.7454C59.7832 43.3535 59.4197 42.9958 59.1306 42.672C58.8415 42.3483 58.5565 41.965 58.2756 41.522C58.003 41.0705 57.8006 40.5722 57.6685 40.027C57.5363 39.4818 57.4702 38.8813 57.4702 38.2253C57.4702 36.462 57.9824 35.099 59.0067 34.1364C60.031 33.1738 61.4353 32.6882 63.2196 32.6797C63.8309 32.6797 64.3843 32.7478 64.88 32.8841C65.3839 33.0204 65.8051 33.1993 66.1438 33.4208C66.4908 33.6423 66.7923 33.9234 67.0484 34.2642C67.3127 34.5964 67.5192 34.9329 67.6679 35.2736C67.8249 35.6058 67.9529 35.9849 68.052 36.4108C68.1594 36.8283 68.2296 37.2116 68.2627 37.5609C68.304 37.9101 68.3329 38.2849 68.3494 38.6853L64.4215 39.2092C64.4132 38.8514 64.4008 38.5575 64.3843 38.3275C64.3761 38.089 64.3554 37.8377 64.3224 37.5736C64.2893 37.3096 64.2439 37.0966 64.1861 36.9347C64.1283 36.7729 64.0498 36.6238 63.9506 36.4875C63.8598 36.3427 63.74 36.2405 63.5913 36.1808C63.4509 36.1212 63.2815 36.0957 63.0833 36.1042C62.6868 36.1127 62.3811 36.2873 62.1664 36.6281C61.9598 36.9603 61.8566 37.3351 61.8566 37.7525C61.8566 38.1529 61.902 38.5192 61.9929 38.8514C62.092 39.1751 62.2572 39.4903 62.4885 39.797C62.7281 40.1037 62.9222 40.3337 63.0709 40.487C63.2196 40.6404 63.4674 40.8789 63.8143 41.2026L65.5615 42.787C66.0406 43.23 66.4536 43.6559 66.8005 44.0648C67.1475 44.4652 67.4779 44.9252 67.7918 45.4449C68.1057 45.956 68.3411 46.5225 68.4981 47.1443C68.6633 47.7577 68.7459 48.4179 68.7459 49.1249C68.7459 50.6583 68.2503 51.9318 67.259 52.9455C66.2677 53.9507 64.9667 54.4533 63.3559 54.4533Z" fill="#5E5E5E"/>
<path d="M72.8349 54.1594V36.4364H69.6752V32.9736H80.5048V36.4364H77.3824V54.1594H72.8349Z" fill="#5E5E5E"/>
<path d="M106.252 0H40.3258V10.3594H30V102H95.9266V91.6406H106.252V0ZM32.3829 99.6094V12.75H77.6578V28.6875H93.5437V99.6094H32.3829ZM80.0407 14.4404L91.8588 26.2969H80.0407V14.4404ZM103.87 89.25H95.9266V26.9971L79.3427 10.3594H42.7087V2.39062H103.87V89.25Z" fill="#5E5E5E"/>
<circle cx="96.1355" cy="88.1355" r="28.1355" fill="#FFF3E6" stroke="#EB6502" stroke-width="2"/>
<path d="M108.515 78.9492H101.983C102.843 79.7259 103.508 80.6828 103.98 81.8201H108.515V84.7326H104.604C104.632 84.9267 104.646 85.2041 104.646 85.5647C104.646 87.756 104.077 89.6145 102.94 91.1401C101.83 92.6379 100.249 93.7613 98.1966 94.5102L105.187 105.162H99.3616L92.9957 95.4256H92.2884H84.4662V90.8488H91.9555C94.4242 90.8488 96.241 90.3495 97.406 89.351C98.5988 88.3524 99.1951 87.0071 99.1951 85.3151V84.7326H82.0114V81.8201H98.3214C97.7389 80.877 96.879 80.1558 95.7417 79.6565C94.6322 79.1572 93.2453 78.9215 91.581 78.9492H82.0114V76.0367H108.515V78.9492Z" fill="#EB6502"/>
</svg>
