<svg xmlns="http://www.w3.org/2000/svg" width="90" height="90" viewBox="0 0 90 90">
  <g id="Group_6059" data-name="Group 6059" transform="translate(-9569 -879)">
    <g id="Ellipse_1732" data-name="Ellipse 1732" transform="translate(9569 879)" fill="#fff" stroke="#6348b5" stroke-width="2">
      <circle cx="45" cy="45" r="45" stroke="none"/>
      <circle cx="45" cy="45" r="44" fill="none"/>
    </g>
    <g id="startup" transform="translate(9555.85 897.684)">
      <g id="Group_4579" data-name="Group 4579" transform="translate(35.751 -0.001)">
        <path id="Path_7937" data-name="Path 7937" d="M214.117,110.434a5.216,5.216,0,1,0-5.216,5.216A5.222,5.222,0,0,0,214.117,110.434Zm-8.937,0a3.721,3.721,0,1,1,3.721,3.721A3.726,3.726,0,0,1,205.179,110.434Z" transform="translate(-186.955 -94.736)" fill="#6348b5"/>
        <path id="Path_7938" data-name="Path 7938" d="M52.576,391.752a.747.747,0,0,0-1.049.131,9.258,9.258,0,0,0-1.378,2.658,3.882,3.882,0,0,0-4.193.872,2.935,2.935,0,0,0-4.552-.125A3.906,3.906,0,0,0,36.6,396.44a4.219,4.219,0,0,0-.554,4.093,4.818,4.818,0,0,0,3.439,3.048.747.747,0,0,0,.314-1.461,3.312,3.312,0,0,1-2.353-2.107,2.752,2.752,0,0,1,.344-2.67,2.405,2.405,0,0,1,4.321,1.5.747.747,0,0,0,1.494.03,3.916,3.916,0,0,0-1-2.686,1.442,1.442,0,0,1,1.751-.239,1.451,1.451,0,0,1,.684.92,3.9,3.9,0,0,0,1.591,4.586.747.747,0,1,0,.8-1.262,2.405,2.405,0,1,1,3.233-3.445.747.747,0,0,0,1.209-.879,3.873,3.873,0,0,0-.4-.469,7.448,7.448,0,0,1,1.239-2.6A.747.747,0,0,0,52.576,391.752Z" transform="translate(-35.751 -352.582)" fill="#6348b5"/>
        <path id="Path_7939" data-name="Path 7939" d="M320.825,396.442a3.906,3.906,0,0,0-4.807-1.153,2.928,2.928,0,0,0-4.552.125,3.881,3.881,0,0,0-4.194-.871,9.272,9.272,0,0,0-1.377-2.659.747.747,0,0,0-1.18.917,7.45,7.45,0,0,1,1.24,2.6,3.879,3.879,0,0,0-.4.469.747.747,0,1,0,1.209.879,2.405,2.405,0,1,1,3.233,3.445.747.747,0,1,0,.8,1.262,3.9,3.9,0,0,0,1.591-4.586,1.451,1.451,0,0,1,.684-.92,1.442,1.442,0,0,1,1.751.239,3.916,3.916,0,0,0-1,2.686.747.747,0,1,0,1.494-.03,2.405,2.405,0,0,1,4.321-1.5,2.752,2.752,0,0,1,.343,2.67,3.312,3.312,0,0,1-2.353,2.107.747.747,0,1,0,.314,1.461,4.818,4.818,0,0,0,3.439-3.048A4.22,4.22,0,0,0,320.825,396.442Z" transform="translate(-277.779 -352.584)" fill="#6348b5"/>
        <path id="Path_7940" data-name="Path 7940" d="M116.679,38.055a2.136,2.136,0,0,0,1.924-1.221,41.262,41.262,0,0,0,2.472-7.071h.987a.747.747,0,0,0,0-1.494h-.618c.224-.96.415-1.882.578-2.74h5.157a16.35,16.35,0,0,1,.131,2.2.546.546,0,0,1-.545.537h-1.234a.747.747,0,0,0,0,1.494h1.234a2.045,2.045,0,0,0,2.04-2.015,18.172,18.172,0,0,0-.231-3.037q-.12-.759-.3-1.5a12.242,12.242,0,0,0-3.882-6.409l-1.853-1.625q-.152-1-.387-1.988A25.288,25.288,0,0,0,114.848.729a2.765,2.765,0,0,0-3.744,0,25.446,25.446,0,0,0-5.286,7.009.747.747,0,1,0,1.33.681c.217-.425.442-.831.672-1.221h10.312a23.2,23.2,0,0,1,2.568,6.337,22.782,22.782,0,0,1,.373,8.6,62.358,62.358,0,0,1-2.3,10.186H107.182a62.359,62.359,0,0,1-2.3-10.186,22.78,22.78,0,0,1,.373-8.6c.163-.676.359-1.352.582-2.011a.747.747,0,0,0-1.415-.481c-.238.7-.447,1.422-.62,2.142q-.237.985-.387,1.988L101.558,16.8a12.243,12.243,0,0,0-3.882,6.409q-.173.733-.292,1.477a18.174,18.174,0,0,0-.236,3.064,2.045,2.045,0,0,0,2.04,2.015h5.689a41.271,41.271,0,0,0,2.472,7.071,2.136,2.136,0,0,0,1.924,1.221h.468a4.97,4.97,0,0,0-.76,3.028,6.725,6.725,0,0,0,3.173,5.14,1.571,1.571,0,0,0,1.643,0,6.726,6.726,0,0,0,3.173-5.14,4.969,4.969,0,0,0-.76-3.028h.469Zm5.874-15.7a24.947,24.947,0,0,0,.216-4.991l.64.561a10.756,10.756,0,0,1,3.413,5.629c.038.162.074.323.107.484H122.29C122.394,23.416,122.482,22.849,122.553,22.352ZM108.775,5.7c.189-.273.378-.533.566-.783h0a23.5,23.5,0,0,1,2.782-3.1,1.265,1.265,0,0,1,1.712,0,23.657,23.657,0,0,1,2.959,3.335h0c.129.176.259.357.388.544h-8.4ZM99.13,23.551a10.756,10.756,0,0,1,3.413-5.629l.64-.561a24.944,24.944,0,0,0,.216,4.991c.071.5.159,1.064.263,1.683H99.022C99.056,23.874,99.092,23.713,99.13,23.551Zm.057,4.718a.546.546,0,0,1-.545-.536,16.145,16.145,0,0,1,.087-1.813h0c.011-.111.023-.222.036-.334,0-.019.005-.038.007-.056h5.157c.163.858.354,1.78.578,2.74h-5.32Zm10.086,8.292a.636.636,0,0,1-.573-.364c-.331-.7-.97-2.309-.995-2.376h10.541c-.021.056-.659,1.664-.995,2.376a.636.636,0,0,1-.573.364Zm6.206,4.429a5.19,5.19,0,0,1-2.46,3.958.085.085,0,0,1-.086,0,5.19,5.19,0,0,1-2.46-3.958,3.441,3.441,0,0,1,1.145-2.859h2.716A3.441,3.441,0,0,1,115.479,40.99Z" transform="translate(-91.03 0.001)" fill="#6348b5"/>
      </g>
    </g>
  </g>
</svg>
