<svg xmlns="http://www.w3.org/2000/svg" width="90" height="90" viewBox="0 0 90 90">
  <g id="Group_6060" data-name="Group 6060" transform="translate(-9722 -879)">
    <g id="Ellipse_1733" data-name="Ellipse 1733" transform="translate(9722 879)" fill="#fff" stroke="#6348b5" stroke-width="2">
      <circle cx="45" cy="45" r="45" stroke="none"/>
      <circle cx="45" cy="45" r="44" fill="none"/>
    </g>
    <g id="project" transform="translate(9745.039 897.684)">
      <path id="Path_7941" data-name="Path 7941" d="M278.671,88.17a4.252,4.252,0,0,0-5.451,2.551l-.578,1.6-8.181,22.366V115l.119,3.657.17,5.494a.851.851,0,0,0,.561.774.838.838,0,0,0,.289.051.85.85,0,0,0,.629-.28l3.665-4.1,2.432-2.721.076-.094a.175.175,0,0,0,0-.051.509.509,0,0,0,.059-.119l4.49-12.348a.851.851,0,1,0-1.6-.587l-4.176,11.54-.655-.238-.961-.349,7.56-20.775,1.6.587-2.016,5.587a.85.85,0,1,0,1.6.578l2.313-6.369.587-1.6a4.252,4.252,0,0,0-2.534-5.468Zm-3.853,3.147a2.544,2.544,0,1,1,4.8,1.7l-.289.8-4.8-1.7Zm-8.453,30.665-.068-2.117,1.48.544Zm2.628-2.942-2.755-1-.076-1.829.672.247,3.4,1.216Zm-1.012-3.988-1.6-.578,7.56-20.784,1.531.561h.068Zm0,0" transform="translate(-235.937 -78.569)" fill="#6348b5"/>
      <path id="Path_7942" data-name="Path 7942" d="M233.311,49.623h7.654a.85.85,0,0,1,.85.85v2.6a.85.85,0,0,0,1.7,0v-2.6a2.551,2.551,0,0,0-2.551-2.551h-7.654a.85.85,0,1,0,0,1.7Zm0,0" transform="translate(-207.338 -42.828)" fill="#6348b5"/>
      <path id="Path_7943" data-name="Path 7943" d="M35.327,86.615a.85.85,0,0,0-.85.85v3.827a.85.85,0,0,1-.85.85H3.012a.85.85,0,0,1-.85-.85V50.473a.85.85,0,0,1,.85-.85h6.8a.85.85,0,1,0,0-1.7h-6.8A2.551,2.551,0,0,0,.461,50.473V91.292a2.551,2.551,0,0,0,2.551,2.551H33.627a2.551,2.551,0,0,0,2.551-2.551V87.466A.85.85,0,0,0,35.327,86.615Zm0,0" transform="translate(0 -42.828)" fill="#6348b5"/>
      <path id="Path_7944" data-name="Path 7944" d="M54.408,12.4l-3.155,3.146a.856.856,0,0,0-.221.4L48.48,26.15a.844.844,0,0,0,.825,1.055h2.551a.85.85,0,1,0,0-1.7H50.394l2.228-8.921L54.408,14.8V25.5a1.7,1.7,0,0,0,.85,1.471v4.3a9.259,9.259,0,0,0,.706,3.581H54.408a.85.85,0,0,0,0,1.7h2.483a1.849,1.849,0,0,0,.11.162l2.67,3.733a.85.85,0,0,0,1.386,0l2.7-3.818a9.357,9.357,0,0,0,1.7-5.179V26.975a1.7,1.7,0,0,0,.85-1.471V14.8L68.1,16.583,70.327,25.5H68.865a.85.85,0,1,0,0,1.7h2.551a.844.844,0,0,0,.825-1.055l-2.551-10.2a.851.851,0,0,0-.221-.4L66.314,12.4v-.5h1.7a.85.85,0,0,0,0-1.7h-1.7V7.475a.857.857,0,0,0-.153-.332l-5.1-6.8A.851.851,0,0,0,59.7.34l-5.1,6.8a.85.85,0,0,0-.153.332v.17Zm9.354,16.506h-6.8V27.2h6.8Zm0,2.474a7.654,7.654,0,0,1-1.395,4.252l-2.007,2.857-1.386-1.93h1.386a.85.85,0,0,0,0-1.7H57.81a7.652,7.652,0,0,1-.85-3.581v-.671h6.8ZM62.912,11.9h1.7V25.5h-8.5V8.5h8.5v1.7h-1.7a.85.85,0,0,0,0,1.7ZM60.361,2.262l3.4,4.533h-6.8Zm0,0" transform="translate(-42.892 0)" fill="#6348b5"/>
      <path id="Path_7945" data-name="Path 7945" d="M139.863,122.473a.85.85,0,1,1-.85-.85.85.85,0,1,0,0-1.7,2.551,2.551,0,1,0,2.551,2.551.85.85,0,1,0-1.7,0Zm0,0" transform="translate(-121.543 -107.174)" fill="#6348b5"/>
      <path id="Path_7946" data-name="Path 7946" d="M140.713,183.922h-3.4a.85.85,0,0,0,0,1.7h3.4a.85.85,0,0,0,0-1.7Zm0,0" transform="translate(-121.543 -164.371)" fill="#6348b5"/>
      <path id="Path_7947" data-name="Path 7947" d="M32.461,315.324a1.7,1.7,0,0,0,1.7,1.7h1.7a1.7,1.7,0,0,0,1.7-1.7v-1.7a1.7,1.7,0,0,0-1.7-1.7h-1.7a1.7,1.7,0,0,0-1.7,1.7Zm1.7-1.7h1.7v1.7h-1.7Zm0,0" transform="translate(-28.598 -278.764)" fill="#6348b5"/>
      <path id="Path_7948" data-name="Path 7948" d="M256.461,82.473a2.551,2.551,0,1,0,2.551-2.551A2.551,2.551,0,0,0,256.461,82.473Zm3.4,0a.85.85,0,1,1-.85-.85A.85.85,0,0,1,259.863,82.473Zm0,0" transform="translate(-228.787 -71.426)" fill="#6348b5"/>
      <path id="Path_7949" data-name="Path 7949" d="M33.311,97.623h3.4a.85.85,0,1,0,0-1.7h-3.4a.85.85,0,1,0,0,1.7Zm0,0" transform="translate(-28.598 -85.725)" fill="#6348b5"/>
      <path id="Path_7950" data-name="Path 7950" d="M33.311,129.623h1.7a.85.85,0,1,0,0-1.7h-1.7a.85.85,0,1,0,0,1.7Zm0,0" transform="translate(-28.598 -114.324)" fill="#6348b5"/>
      <path id="Path_7951" data-name="Path 7951" d="M200.461,353.623v1.7a1.7,1.7,0,0,0,1.7,1.7h1.7a1.7,1.7,0,0,0,1.7-1.7v-1.7a1.7,1.7,0,0,0-1.7-1.7h-1.7A1.7,1.7,0,0,0,200.461,353.623Zm3.4,1.7h-1.7v-1.7h1.7Zm0,0" transform="translate(-178.74 -314.512)" fill="#6348b5"/>
      <path id="Path_7952" data-name="Path 7952" d="M226.162,277.875v-5.1a.85.85,0,1,0-1.7,0v5.1a.85.85,0,1,0,1.7,0Zm0,0" transform="translate(-200.189 -243.016)" fill="#6348b5"/>
      <path id="Path_7953" data-name="Path 7953" d="M45.217,401.623a.85.85,0,1,0,0-1.7H33.311a.85.85,0,0,0-.85.85v3.4a.85.85,0,0,0,.85.85H45.217a.85.85,0,0,0,0-1.7H34.162v-1.7Zm0,0" transform="translate(-28.598 -357.41)" fill="#6348b5"/>
    </g>
  </g>
</svg>
