<?xml version="1.0" encoding="UTF-8"?>
<!-- Generator: Adobe Illustrator 24.2.1, SVG Export Plug-In . SVG Version: 6.00 Build 0)  -->
<svg version="1.1" id="Layer_1" xmlns="http://www.w3.org/2000/svg" xmlns:xlink="http://www.w3.org/1999/xlink" x="0px" y="0px" viewBox="0 0 1400 492" style="enable-background:new 0 0 1400 492;" xml:space="preserve">
<style type="text/css">
	.st0{fill-rule:evenodd;clip-rule:evenodd;fill:#B1D360;}
	.st1{clip-path:url(#SVGID_2_);}
	.st2{fill-rule:evenodd;clip-rule:evenodd;fill:#D1E5AD;}
	.st3{fill-rule:evenodd;clip-rule:evenodd;fill:#FFFFFF;}
	.st4{fill-rule:evenodd;clip-rule:evenodd;fill:#2E3191;}
	.st5{fill-rule:evenodd;clip-rule:evenodd;fill:#D9A778;}
	.st6{fill-rule:evenodd;clip-rule:evenodd;fill:#F4F4F4;}
	.st7{fill-rule:evenodd;clip-rule:evenodd;fill:#414042;}
	.st8{fill-rule:evenodd;clip-rule:evenodd;fill:#6E6F72;}
	.st9{fill-rule:evenodd;clip-rule:evenodd;fill:#4F4239;}
	.st10{fill-rule:evenodd;clip-rule:evenodd;fill:#8DB09E;}
	.st11{fill-rule:evenodd;clip-rule:evenodd;fill:#EFD0B1;}
	.st12{fill-rule:evenodd;clip-rule:evenodd;fill:#EAEAE8;}
	.st13{fill-rule:evenodd;clip-rule:evenodd;fill:#3F3D3F;}
	.st14{fill-rule:evenodd;clip-rule:evenodd;fill:#FFC64B;}
	.st15{fill-rule:evenodd;clip-rule:evenodd;fill:#E19D26;}
	.st16{fill-rule:evenodd;clip-rule:evenodd;fill:#CB8D2A;}
	.st17{fill-rule:evenodd;clip-rule:evenodd;fill:#EB7C84;}
	.st18{fill-rule:evenodd;clip-rule:evenodd;fill:#A5CD39;}
	.st19{fill-rule:evenodd;clip-rule:evenodd;fill:#E3C4A8;}
	.st20{fill-rule:evenodd;clip-rule:evenodd;fill:#85A897;}
	.st21{fill-rule:evenodd;clip-rule:evenodd;fill:#DDDDDD;}
	.st22{fill-rule:evenodd;clip-rule:evenodd;fill:#533E29;}
	.st23{fill-rule:evenodd;clip-rule:evenodd;fill:#FDDBBB;}
	.st24{fill-rule:evenodd;clip-rule:evenodd;fill:#FFF100;}
</style>
<g>
	<rect x="0.59" y="1.59" class="st0" width="1399.41" height="488.41"/>
	<g>
		<defs>
			<rect id="SVGID_1_" x="0.59" y="1.59" width="1399.41" height="488.41"/>
		</defs>
		<clipPath id="SVGID_2_">
			<use xlink:href="#SVGID_1_" style="overflow:visible;"/>
		</clipPath>
		<g class="st1">
			<polygon class="st2" points="813.25,-289.19 821.09,-83.28 839.82,-288.75 836.75,-82.76 866.34,-287.43 852.37,-81.72      892.77,-285.23 867.92,-80.17 919.06,-282.16 883.38,-78.1 945.16,-278.22 898.71,-75.52 971.03,-273.42 913.89,-72.44      996.63,-267.77 928.9,-68.85 1021.9,-261.27 943.7,-64.78 1046.81,-253.95 958.28,-60.21 1071.31,-245.8 972.6,-55.17      1095.35,-236.85 986.64,-49.66 1118.9,-227.11 1000.37,-43.68 1141.91,-216.6 1013.78,-37.26 1164.35,-205.33 1026.84,-30.39      1186.17,-193.34 1039.52,-23.11 1207.34,-180.62 1051.8,-15.4 1227.81,-167.23 1063.67,-7.3 1247.56,-153.16 1075.1,1.19      1266.55,-138.45 1086.07,10.05 1284.74,-123.12 1096.55,19.26 1302.1,-107.21 1106.54,28.82 1318.61,-90.74 1116.02,38.69      1334.23,-73.73 1124.97,48.88 1348.94,-56.22 1133.37,59.35 1362.7,-38.24 1141.2,70.09 1375.5,-19.82 1148.47,81.07      1387.32,-0.99 1155.14,92.3 1398.13,18.22 1161.21,103.73 1407.91,37.76 1166.68,115.35 1416.65,57.62 1171.52,127.14      1424.33,77.74 1175.74,139.09 1430.94,98.1 1179.31,151.16 1436.46,118.66 1182.26,163.34 1440.9,139.39 1184.54,175.61      1444.23,160.25 1186.18,187.94 1446.45,181.2 1187.17,200.31 1447.56,202.2 1187.49,212.71 1447.56,223.22 1187.17,225.11      1446.45,244.23 1186.18,237.49 1444.23,265.18 1184.54,249.82 1440.9,286.03 1182.26,262.09 1436.46,306.76 1179.31,274.26      1430.94,327.32 1175.74,286.34 1424.33,347.69 1171.52,298.28 1416.65,367.81 1166.68,310.08 1407.91,387.66 1161.21,321.7      1398.13,407.21 1155.14,333.13 1387.32,426.41 1148.47,344.35 1375.5,445.24 1141.2,355.34 1362.7,463.66 1133.37,366.08      1348.94,481.65 1124.97,376.55 1334.23,499.15 1116.02,386.73 1318.61,516.16 1106.54,396.61 1302.1,532.64 1096.55,406.16      1284.74,548.55 1086.07,415.38 1266.55,563.88 1075.1,424.24 1247.56,578.58 1063.67,432.73 1227.81,592.65 1051.8,440.83      1207.34,606.05 1039.52,448.53 1186.17,618.76 1026.84,455.82 1164.35,630.76 1013.78,462.68 1141.91,642.02 1000.37,469.11      1118.9,652.53 986.64,475.08 1095.35,662.27 972.6,480.59 1071.31,671.22 958.28,485.64 1046.81,679.37 943.7,490.2      1021.9,686.7 928.9,494.28 996.63,693.19 913.89,497.86 971.03,698.85 898.71,500.95 945.16,703.65 883.38,503.53 919.06,707.59      867.92,505.59 892.77,710.66 852.37,507.15 866.34,712.86 836.75,508.19 839.82,714.18 821.09,508.7 813.25,714.61 805.42,508.7      786.68,714.18 789.76,508.19 760.16,712.86 774.13,507.15 733.74,710.66 758.58,505.59 707.45,707.59 743.13,503.53      681.34,703.65 727.8,500.95 655.48,698.85 712.61,497.86 629.88,693.19 697.61,494.28 604.6,686.7 682.81,490.2 579.7,679.37      668.23,485.64 555.2,671.22 653.91,480.59 531.16,662.27 639.87,475.08 507.6,652.53 626.13,469.11 484.59,642.02 612.73,462.68      462.15,630.76 599.67,455.82 440.33,618.76 586.99,448.53 419.17,606.05 574.7,440.83 398.69,592.65 562.84,432.73      378.94,578.58 551.41,424.24 359.96,563.88 540.44,415.38 341.77,548.55 529.95,406.16 324.4,532.64 519.96,396.61 307.9,516.16      510.49,386.73 292.28,499.15 501.54,376.55 277.57,481.65 493.14,366.08 263.81,463.66 485.31,355.34 251.01,445.24      478.04,344.35 239.19,426.41 471.37,333.13 228.38,407.21 465.29,321.7 218.6,387.66 459.83,310.08 209.86,367.81 454.98,298.28      202.18,347.69 450.77,286.34 195.57,327.32 447.19,274.26 190.05,306.76 444.25,262.09 185.61,286.03 441.96,249.82      182.28,265.18 440.32,237.49 180.06,244.23 439.34,225.11 178.95,223.22 439.01,212.71 178.95,202.2 439.34,200.31 180.06,181.2      440.32,187.94 182.28,160.25 441.96,175.61 185.61,139.39 444.25,163.34 190.05,118.66 447.19,151.16 195.57,98.1 450.77,139.09      202.18,77.74 454.98,127.14 209.86,57.62 459.83,115.35 218.6,37.76 465.29,103.73 228.38,18.22 471.37,92.3 239.19,-0.99      478.04,81.07 251.01,-19.82 485.31,70.09 263.81,-38.24 493.14,59.35 277.57,-56.22 501.54,48.88 292.28,-73.73 510.49,38.69      307.9,-90.74 519.96,28.82 324.4,-107.21 529.95,19.26 341.77,-123.12 540.44,10.05 359.96,-138.45 551.41,1.19 378.94,-153.16      562.84,-7.3 398.69,-167.23 574.7,-15.4 419.17,-180.62 586.99,-23.11 440.33,-193.34 599.67,-30.39 462.15,-205.33      612.73,-37.26 484.59,-216.6 626.13,-43.68 507.6,-227.11 639.87,-49.66 531.16,-236.85 653.91,-55.17 555.2,-245.8      668.23,-60.21 579.7,-253.95 682.81,-64.78 604.6,-261.27 697.61,-68.85 629.88,-267.77 712.61,-72.44 655.48,-273.42      727.8,-75.52 681.34,-278.22 743.13,-78.1 707.45,-282.16 758.58,-80.17 733.74,-285.23 774.13,-81.72 760.16,-287.43      789.76,-82.76 786.68,-288.75 805.42,-83.28    "/>
			<polygon class="st3" points="896.6,-25.56 900.81,59 910.86,-25.15 909.21,59.48 925.07,-23.94 917.55,60.43 939.16,-21.91      925.82,61.86 953.08,-19.09 933.97,63.76 966.79,-15.48 941.97,66.12 980.21,-11.1 949.79,68.93 993.31,-5.96 957.41,72.17      1006.02,-0.09 964.78,75.85 1018.3,6.5 971.88,79.94 1030.1,13.77 978.69,84.43 1041.38,21.7 985.18,89.29 1052.08,30.26      991.31,94.51 1062.17,39.41 997.07,100.07 1071.6,49.11 1002.43,105.95 1080.35,59.34 1007.38,112.12 1088.37,70.03      1011.89,118.57 1095.63,81.17 1015.94,125.25 1102.11,92.7 1019.52,132.16 1107.78,104.57 1022.62,139.25 1112.61,116.75      1025.22,146.5 1116.59,129.17 1027.31,153.89 1119.7,141.8 1028.89,161.39 1121.94,154.58 1029.95,168.96 1123.28,167.46      1030.47,176.57 1123.73,180.39 1030.47,184.2 1123.28,193.32 1029.95,191.82 1121.94,206.2 1028.89,199.39 1119.7,218.98      1027.31,206.88 1116.59,231.6 1025.22,214.27 1112.61,244.03 1022.62,221.53 1107.78,256.2 1019.52,228.62 1102.11,268.08      1015.94,235.52 1095.63,279.6 1011.89,242.21 1088.37,290.74 1007.38,248.65 1080.35,301.44 1002.43,254.82 1071.6,311.66      997.07,260.7 1062.17,321.37 991.31,266.26 1052.08,330.52 985.18,271.49 1041.38,339.07 978.69,276.35 1030.1,347      971.88,280.84 1018.3,354.27 964.78,284.92 1006.02,360.86 957.41,288.6 993.31,366.73 949.79,291.85 980.21,371.87      941.97,294.66 966.79,376.25 933.97,297.01 953.08,379.86 925.82,298.91 939.16,382.69 917.55,300.34 925.07,384.71      909.21,301.3 910.86,385.93 900.81,301.78 896.6,386.33 892.39,301.78 882.34,385.93 884,301.3 868.13,384.71 875.65,300.34      854.04,382.69 867.38,298.91 840.12,379.86 859.23,297.01 826.41,376.25 851.23,294.66 812.99,371.87 843.41,291.85      799.9,366.73 835.79,288.6 787.18,360.86 828.42,284.92 774.9,354.27 821.32,280.84 763.1,347 814.51,276.35 751.83,339.07      808.03,271.49 741.12,330.52 801.89,266.26 731.03,321.37 796.13,260.7 721.6,311.66 790.77,254.82 712.85,301.44 785.82,248.65      704.83,290.74 781.31,242.21 697.57,279.6 777.26,235.52 691.09,268.08 773.68,228.62 685.42,256.2 770.58,221.53 680.59,244.03      767.98,214.27 676.61,231.6 765.89,206.88 673.5,218.98 764.31,199.39 671.26,206.2 763.26,191.82 669.92,193.32 762.73,184.2      669.48,180.39 762.73,176.57 669.92,167.46 763.26,168.96 671.26,154.58 764.31,161.39 673.5,141.8 765.89,153.89 676.61,129.17      767.98,146.5 680.59,116.75 770.58,139.25 685.42,104.57 773.68,132.16 691.09,92.7 777.26,125.25 697.57,81.17 781.31,118.57      704.83,70.03 785.82,112.12 712.85,59.34 790.77,105.95 721.6,49.11 796.13,100.07 731.03,39.41 801.89,94.51 741.12,30.26      808.03,89.29 751.83,21.7 814.51,84.43 763.1,13.77 821.32,79.94 774.9,6.5 828.42,75.85 787.18,-0.09 835.79,72.17 799.9,-5.96      843.41,68.93 812.99,-11.1 851.23,66.12 826.41,-15.48 859.23,63.76 840.12,-19.09 867.38,61.86 854.04,-21.91 875.65,60.43      868.13,-23.94 884,59.48 882.34,-25.15 892.39,59    "/>
		</g>
	</g>
	<g>
		<path class="st4" d="M155.7,291.61l-14.82-20.81c8.59-3.61,13.59-10.73,13.59-20.44c0-14.52-11.05-23.49-28.7-23.49h-28.6v64.74    h15.29v-18.03h13.31h0.75l12.74,18.03H155.7L155.7,291.61z M138.99,250.36c0,7.03-4.72,11.28-14.07,11.28h-12.46v-22.57h12.46    C134.27,239.08,138.99,243.24,138.99,250.36L138.99,250.36z M215.26,266.92c0-16-11.52-25.8-26.43-25.8    c-15.48,0-27.09,10.73-27.09,25.62c0,14.8,11.42,25.62,28.98,25.62c9.16,0,16.24-2.78,20.96-8.05l-7.84-8.32    c-3.49,3.24-7.36,4.81-12.74,4.81c-7.74,0-13.12-3.79-14.54-9.99h38.42C215.07,269.6,215.26,268.03,215.26,266.92L215.26,266.92z     M188.92,252.03c6.61,0,11.42,4.07,12.46,10.36h-25.02C177.41,256,182.22,252.03,188.92,252.03L188.92,252.03z M242.17,292.35    c15.2,0,23.98-6.57,23.98-15.82c0-19.61-30.68-11.38-30.68-19.88c0-2.59,2.83-4.63,9.44-4.63c4.63,0,9.63,0.93,14.63,3.7    l4.91-10.27c-4.81-2.77-12.55-4.35-19.54-4.35c-14.82,0-23.5,6.66-23.5,16.09c0,19.88,30.68,11.55,30.68,19.7    c0,2.77-2.55,4.53-9.35,4.53c-6.23,0-13.12-1.94-17.65-4.81l-4.91,10.36C224.89,290.04,233.57,292.35,242.17,292.35L242.17,292.35    z M304,279.03c-1.6,1.2-3.78,1.85-5.95,1.85c-3.97,0-6.33-2.31-6.33-6.57v-20.25h12.65v-11.1h-12.65v-12.11H277v12.11h-7.83v11.1    H277v20.44c0,11.84,6.99,17.85,18.97,17.85c4.53,0,8.97-1.02,11.99-3.14L304,279.03L304,279.03z M336.75,241.11    c-8.12,0-16.33,2.13-21.9,6.01l5.29,10.08c3.68-2.87,9.25-4.62,14.63-4.62c7.93,0,11.71,3.61,11.71,9.8h-11.71    c-15.48,0-21.81,6.1-21.81,14.89c0,8.6,7.08,15.08,18.97,15.08c7.46,0,12.74-2.4,15.48-6.94v6.2h13.78v-28.39    C361.2,248.14,352.23,241.11,336.75,241.11L336.75,241.11z M335.62,282.64c-5.19,0-8.31-2.4-8.31-6.01c0-3.33,2.17-5.83,9.06-5.83    h10.1v5.09C344.78,280.42,340.53,282.64,335.62,282.64L335.62,282.64z M388.58,248.42v-6.57h-14.07v49.76h14.73v-23.49    c0-9.53,5.38-13.87,13.5-13.87c1.13,0,2.08,0.09,3.3,0.18v-13.32C398.21,241.11,392.17,243.61,388.58,248.42L388.58,248.42z     M445.41,279.03c-1.6,1.2-3.78,1.85-5.95,1.85c-3.97,0-6.33-2.31-6.33-6.57v-20.25h12.65v-11.1h-12.65v-12.11h-14.73v12.11h-7.83    v11.1h7.83v20.44c0,11.84,6.99,17.85,18.97,17.85c4.53,0,8.97-1.02,11.99-3.14L445.41,279.03z"/>
		<path class="st4" d="M129.49,317.83L113,354.31L96.5,317.83h-6.16l19.58,42.85l-1.92,4.16c-2.5,5.39-5.17,7.18-9.08,7.18    c-3.17,0-5.83-1.14-8-3.26l-2.75,4.33c2.67,2.61,6.58,3.92,10.66,3.92c6.25,0,10.91-2.69,14.58-11.1l21.91-48.07H129.49    L129.49,317.83z M160.32,361.17c12.83,0,22.24-9.14,22.24-21.87c0-12.73-9.41-21.79-22.24-21.79s-22.33,9.06-22.33,21.79    C137.99,352.03,147.49,361.17,160.32,361.17L160.32,361.17z M160.32,356.03c-9.33,0-16.33-6.69-16.33-16.73    c0-10.04,7-16.73,16.33-16.73c9.33,0,16.24,6.69,16.24,16.73C176.56,349.33,169.65,356.03,160.32,356.03L160.32,356.03z     M228.21,317.83v22.53c0,9.79-5.75,15.59-14.91,15.59c-8.33,0-13.16-4.65-13.16-13.79v-24.32h-5.91v24.89    c0,12.32,7.33,18.45,18.49,18.45c7,0,12.66-3.02,15.74-8.24v7.83h5.67v-42.93H228.21L228.21,317.83z M256.37,326.24v-8.41h-5.66    v42.93h5.91v-21.87c0-10.12,5.58-15.83,14.75-15.83c0.42,0,0.92,0.08,1.42,0.08v-5.63C264.7,317.5,259.11,320.52,256.37,326.24z"/>
		<path class="st4" d="M152.99,390.11c-6.08,0-11.3,2.55-14.49,7.38v-22.42h-5.14v52.65h4.92v-7.38c3.12,5.04,8.4,7.73,14.7,7.73    c10.86,0,18.98-7.73,18.98-19.02C171.97,397.77,163.86,390.11,152.99,390.11L152.99,390.11z M152.63,423.6    c-8.11,0-14.2-5.82-14.2-14.55c0-8.73,6.08-14.55,14.2-14.55c8.04,0,14.2,5.82,14.2,14.55    C166.83,417.78,160.67,423.6,152.63,423.6L152.63,423.6z M211.66,390.39v19.59c0,8.51-5,13.55-12.96,13.55    c-7.24,0-11.45-4.05-11.45-11.99v-21.15h-5.14v21.64c0,10.71,6.37,16.04,16.08,16.04c6.08,0,11.01-2.63,13.69-7.17v6.81h4.92    v-37.33H211.66L211.66,390.39z M241.43,428.07c9.92,0,15.72-4.19,15.72-10.65c0-14.32-24.7-6.73-24.7-16.82    c0-3.55,3.04-6.17,9.92-6.17c3.91,0,7.9,0.92,11.23,3.19l2.25-4.05c-3.19-2.13-8.55-3.48-13.47-3.48    c-9.71,0-15.07,4.54-15.07,10.65c0,14.76,24.7,7.11,24.7,16.82c0,3.69-2.97,6.1-10.21,6.1c-5.36,0-10.5-1.84-13.55-4.19    l-2.32,3.98C229.05,426.08,235.13,428.07,241.43,428.07L241.43,428.07z M269.25,382.23c2.17,0,3.77-1.63,3.77-3.69    c0-1.92-1.67-3.48-3.77-3.48c-2.1,0-3.77,1.63-3.77,3.55C265.48,380.6,267.15,382.23,269.25,382.23L269.25,382.23z M266.64,427.72    h5.14v-37.33h-5.14V427.72L266.64,427.72z M305.54,390.11c-6.59,0-11.74,2.63-14.49,7.17v-6.88h-4.92v37.33h5.14v-19.59    c0-8.52,5.14-13.48,13.33-13.48c7.24,0,11.44,4.05,11.44,11.92v21.15h5.14v-21.64C321.18,395.36,314.8,390.11,305.54,390.11    L305.54,390.11z M368.55,409.05c0-11.21-7.75-18.95-18.47-18.95c-10.72,0-18.62,7.88-18.62,18.95c0,11.07,8.11,19.02,19.99,19.02    c6.01,0,11.3-2.13,14.7-6.1l-2.9-3.26c-2.9,3.26-7.02,4.9-11.66,4.9c-8.33,0-14.42-5.18-14.99-12.99h31.87    C368.48,410.05,368.55,409.48,368.55,409.05L368.55,409.05z M350.08,394.43c7.46,0,12.89,5.11,13.55,12.42h-27.02    C337.26,399.54,342.69,394.43,350.08,394.43L350.08,394.43z M389.26,428.07c9.92,0,15.72-4.19,15.72-10.65    c0-14.32-24.7-6.73-24.7-16.82c0-3.55,3.04-6.17,9.92-6.17c3.91,0,7.9,0.92,11.23,3.19l2.24-4.05c-3.19-2.13-8.55-3.48-13.47-3.48    c-9.71,0-15.07,4.54-15.07,10.65c0,14.76,24.7,7.11,24.7,16.82c0,3.69-2.97,6.1-10.21,6.1c-5.36,0-10.5-1.84-13.55-4.19    l-2.32,3.98C376.88,426.08,382.96,428.07,389.26,428.07L389.26,428.07z M424.68,428.07c9.92,0,15.72-4.19,15.72-10.65    c0-14.32-24.7-6.73-24.7-16.82c0-3.55,3.04-6.17,9.92-6.17c3.91,0,7.89,0.92,11.23,3.19l2.25-4.05    c-3.19-2.13-8.55-3.48-13.47-3.48c-9.71,0-15.07,4.54-15.07,10.65c0,14.76,24.7,7.11,24.7,16.82c0,3.69-2.97,6.1-10.21,6.1    c-5.36,0-10.5-1.84-13.55-4.19l-2.32,3.98C412.3,426.08,418.38,428.07,424.68,428.07L424.68,428.07z M450.12,412.81h4l1.09-34.77    h-6.1L450.12,412.81L450.12,412.81z M452.14,428.07c2.17,0,3.77-1.7,3.77-3.69c0-2.06-1.59-3.62-3.77-3.62    c-2.17,0-3.84,1.56-3.84,3.62C448.3,426.37,449.96,428.07,452.14,428.07z"/>
	</g>
	<g>
		<g>
			<g>
				<path class="st5" d="M920.71,286.42c0,0-17.85-3.73-11.94-16.71c5.91-12.98,18.62-0.12,18.62-0.12L920.71,286.42z"/>
				<polygon class="st6" points="931.64,271.27 927.64,268.97 920.45,287.09 924.75,289.28     "/>
				<path class="st7" d="M1039.44,235.48c0,0-17.35,98.13-116.72,54.35l7.41-20.9c0,0,64.75,38.08,92.18-36.86L1039.44,235.48z"/>
				<path class="st8" d="M941.15,293.5c-1-0.54-1.36-1.77-0.81-2.75c0.55-0.98,1.81-1.34,2.81-0.79c1,0.54,1.36,1.77,0.81,2.75      C943.41,293.69,942.15,294.04,941.15,293.5z"/>
				<path class="st8" d="M934.31,291.18c-1-0.54-1.36-1.77-0.81-2.75c0.56-0.98,1.81-1.33,2.81-0.79c1,0.54,1.36,1.77,0.81,2.75      C936.57,291.37,935.31,291.72,934.31,291.18z"/>
				<path class="st8" d="M927.65,288.96c-1-0.54-1.36-1.77-0.81-2.75c0.55-0.98,1.81-1.33,2.81-0.79c1,0.54,1.36,1.77,0.81,2.75      C929.91,289.15,928.65,289.51,927.65,288.96z"/>
				<path class="st5" d="M1189.82,241.7c0,0,28.3-142.14-60.7-161.29c-113.45-24.41-106.02,146.1-106.02,146.1L1189.82,241.7z"/>
				<path class="st7" d="M1015.47,347.72l5.85,56.36l8.61,44.4c0,0-18.9-10.52-26.03,3.9c-10.05,20.32,39.29,6.51,39.29,6.51      l-8.45-56.94l1.18-35.57c0,0,43.59,13.08,108.55,11.25l1.1,28.18l10.49,52.38c0,0-12.09-16.9-25.41-2.19      c-17.88,19.74,37.26,7.46,37.26,7.46l-7.12-58.63l4.17-35.85C1164.98,368.99,1109.19,346.96,1015.47,347.72z"/>
				<path class="st7" d="M1139.16,231.12l-59.55,61.09l-43.52-71.77l-14.94-1.4l-5.67,128.73c0,0,14.87,7.44,44.44,12.86      c12.34,2.48,31.39,4.69,31.39,4.69c19.46,1.9,45.91,3.52,73.68,3.72l29.4-131.35L1139.16,231.12z"/>
				<polygon class="st6" points="1036.09,220.44 1079.61,292.21 1139.16,231.12     "/>
				<polygon class="st8" points="1036.09,220.44 1032.41,248.9 1048.51,253.83 1043.93,275.32 1079.61,292.21     "/>
				<polygon class="st8" points="1079.61,292.21 1117.28,278.73 1117.66,262.81 1135.61,258.41 1139.16,231.12     "/>
				<polygon class="st7" points="1070.46,238.05 1076.72,230.64 1090.77,231.57 1094.92,241.66 1088.61,247.57 1093.06,278.47       1079.61,292.21 1068.04,273.15 1076.16,246.62     "/>
				<path class="st8" d="M1082.72,305.93c-0.81,2.44-3.48,3.78-5.98,2.99c-2.5-0.79-3.86-3.41-3.06-5.85c0.8-2.44,3.48-3.78,5.97-3      C1082.16,300.87,1083.53,303.49,1082.72,305.93z"/>
				<path class="st8" d="M1081.27,327.15c-0.8,2.44-3.48,3.79-5.97,3c-2.5-0.79-3.86-3.41-3.06-5.85c0.8-2.45,3.48-3.79,5.97-3      C1080.71,322.08,1082.08,324.71,1081.27,327.15z"/>
				<path class="st9" d="M1021.7,26.41c0,0-30.59,102.99,138.45,98.83l0.25,33.93c0,0,15.92-14.98,18.21,1.45      c2.64,18.93-15.16,12.06-15.16,12.06s11.71,47.07,27.2,64.55c2.52-2.5,73.69-159.27-1.81-157.76c0,0-0.86-35-48.46-45.25      C1073.89,19.91,1060.02,77.04,1021.7,26.41z"/>
				<path class="st9" d="M1119.18,160.85c-0.9,6.35,1.09,11.87,4.44,12.32c3.35,0.46,6.8-4.32,7.69-10.67      c0.9-6.35-1.09-11.87-4.44-12.32C1123.52,149.72,1120.07,154.5,1119.18,160.85z"/>
				<path class="st9" d="M1044.85,150.05c-0.9,6.35,1.09,11.87,4.44,12.32c3.35,0.45,6.79-4.32,7.69-10.67      c0.9-6.35-1.09-11.87-4.44-12.32C1049.2,138.92,1045.75,143.7,1044.85,150.05z"/>
				<path class="st5" d="M1171.46,360.71c0,0-14.82,12.42-21.79-0.04c-6.97-12.46,12.52-14.82,12.52-14.82L1171.46,360.71z"/>
				<polygon class="st6" points="1164.04,343.71 1159.81,345.58 1170.73,361.8 1174.27,358.87     "/>
				<path class="st7" d="M1193.55,240.55c0,0,73.34,63.6-19.23,121.02l-13.1-18.02c0,0,68.9-31.24,27.17-82.46L1193.55,240.55z"/>
				<path class="st8" d="M1188.05,348.98c-1.03,0.48-2.26,0.06-2.75-0.95c-0.5-1.01-0.06-2.22,0.96-2.7      c1.03-0.49,2.26-0.06,2.76,0.94C1189.51,347.28,1189.08,348.49,1188.05,348.98z"/>
				<path class="st8" d="M1182.16,353.1c-1.03,0.49-2.26,0.06-2.76-0.95c-0.49-1.01-0.06-2.22,0.97-2.7      c1.03-0.49,2.26-0.06,2.76,0.94C1183.62,351.4,1183.19,352.62,1182.16,353.1z"/>
				<path class="st8" d="M1176.46,357.13c-1.03,0.49-2.26,0.06-2.76-0.95c-0.5-1.01-0.06-2.22,0.97-2.7      c1.03-0.48,2.26-0.06,2.76,0.95C1177.92,355.44,1177.49,356.65,1176.46,357.13z"/>
				<path class="st10" d="M925.79,273.62l1.09-2.75l0,0L925.79,273.62L925.79,273.62L925.79,273.62L925.79,273.62z M935.84,271.75      c-1.59-0.7-2.88-1.33-3.83-1.82l0,0C932.96,270.42,934.26,271.05,935.84,271.75C935.84,271.75,935.84,271.75,935.84,271.75z"/>
				<path class="st11" d="M913.7,274.44c-2.06,0-4.09-0.09-6.11-0.22c0.04-0.74,0.16-1.53,0.39-2.36c1.54,0.08,3.09,0.12,4.66,0.12      c4.85,0,9.6-0.37,14.24-1.09l-1.09,2.75C921.83,274.14,917.8,274.44,913.7,274.44z"/>
				<path class="st12" d="M925.79,273.62l1.09-2.75c0.92-0.14,1.83-0.3,2.74-0.47l-0.99,2.8      C927.68,273.36,926.74,273.5,925.79,273.62z"/>
				<path class="st13" d="M928.62,273.21l0.99-2.8c0.8-0.15,1.6-0.31,2.39-0.48c0.95,0.49,2.25,1.12,3.83,1.82      C933.47,272.33,931.06,272.82,928.62,273.21z"/>
				<ellipse class="st14" cx="912.64" cy="183.53" rx="90.27" ry="88.44"/>
				<path class="st15" d="M839.16,183.53c0-39.76,32.9-71.99,73.48-71.99c40.58,0,73.48,32.23,73.48,71.99s-32.9,71.99-73.48,71.99      S839.16,223.29,839.16,183.53z"/>
				<path class="st16" d="M986.09,184.81c-0.7-39.17-33.3-70.71-73.45-70.71c-40.14,0-72.75,31.54-73.45,70.71      c-0.01-0.43-0.03-0.85-0.03-1.28l0,0c0-39.76,32.9-71.99,73.48-71.99c40.58,0,73.48,32.23,73.48,71.99l0,0      C986.12,183.96,986.09,184.38,986.09,184.81z"/>
				<path class="st17" d="M1110.17,189.69c0,0-30.52-7.54-50.61-5.67c0,0-7.17,24.17,22.27,28.31      C1110.96,216.42,1110.17,189.69,1110.17,189.69z"/>
				<polygon class="st18" points="887.53,81.84 871.79,20.64 892.78,16.44 895.86,80.42     "/>
				<polygon class="st18" points="918.83,81.45 930.06,33.11 943.72,40.38 924.78,82.94     "/>
				<polygon class="st18" points="867.81,89.87 838.74,44.95 827.51,59.77 862.13,94.11     "/>
			</g>
			<g>
				<path class="st5" d="M707.04,230.67l14.43-6.46c15.92,69.22,79.92,33.34,101.06,12.34c0.7-0.7,5.35-4.8,7.3-2.67      c0.94,1.03,0.68,2.31,0.07,3.45c1.16-0.51,2.44-0.72,3.32,0.23c0.85,0.93,0.71,2.07,0.22,3.13c1.06-0.41,2.19-0.49,2.98,0.37      c0.94,1.02,0.67,2.31,0.07,3.45c1.16-0.51,2.44-0.72,3.31,0.23c1.83,1.99-0.09,4.29-1.87,5.95      C791.19,294.1,724.13,308.47,707.04,230.67z"/>
				<path class="st6" d="M721.47,224.21l-14.43,6.46c2.97,13.51,7.43,24.38,13.03,32.87l12.96-12.92      C728.12,244.36,724.12,235.75,721.47,224.21z"/>
				<path class="st19" d="M728.05,272.65c-2.35-2.23-4.56-4.75-6.64-7.59l0.01-2.87l4.76-4.75L728.05,272.65z"/>
				<path class="st20" d="M722.67,228.94c-0.41-1.45-0.79-2.95-1.15-4.5c0-0.01-0.01-0.02-0.01-0.03c0,0,0,0,0-0.01l0,0      c0.36,1.54,0.75,3.02,1.15,4.46L722.67,228.94z"/>
				<path class="st19" d="M721.52,224.44c0-0.01-0.01-0.02-0.01-0.03C721.51,224.42,721.52,224.43,721.52,224.44z"/>
				<path class="st21" d="M721.42,262.19l0.09-37.8c0,0,0,0,0,0.01c0,0.01,0.01,0.02,0.01,0.03c0.36,1.55,0.75,3.05,1.15,4.5      l3.51,28.51L721.42,262.19z"/>
				<path class="st5" d="M721.52,220.76c0,0-1.49-209.37-153.36-139.84c0,0-45.61,32.67-28.92,146.84      C662.04,250,721.52,220.76,721.52,220.76z"/>
				<path class="st22" d="M571.13,162.28l1.85-33.58c80.45-1.52,139.59-19.92,139.59-19.92c-14.44-71.12-79.91-74.97-112.64-69.17      c-41.49,6.53-58.57,33.52-62.58,42.91c-3.13-3.91-3.53-8.83-3.53-8.83c-5.79,7.01-2.68,12.92-2.68,12.92      c-8.1,0.2-10.81,7.73-10.81,7.73c2.66-0.78,5.15-0.71,7.28-0.29c-42.28,19.03,11.62,133.83,11.62,133.83      c17.64-10.64,30.98-53.57,30.98-53.57s-18.89,6.81-16.52-7.84C556.06,151.8,571.13,162.28,571.13,162.28z"/>
				<path class="st23" d="M514.17,116.91c-0.15,0-0.24,0-0.24,0S514.02,116.9,514.17,116.91z"/>
				<path class="st5" d="M459.62,176.7c-6.42-42.96,26.4-65.28,26.4-65.28s29.13-20.26,39.43-3.89c0,0,2.38,3.34-1.24,3.19      c-3.62-0.16-8.21-5.53-13.22-2.63c0,0,5-1.48,5.17,2.47c0.08,1.9-3.8,2-4.8,1.99c-0.15-0.01-0.23-0.01-0.23-0.01      s0.08,0,0.23,0.01c0.94,0.03,4.46,0.27,4.63,2.46c0.24,3.21-2.66,3.25-3.6,3.18c-0.18-0.03-0.29-0.03-0.29-0.03      s0.12,0.02,0.29,0.03c0.86,0.12,3.29,0.71,2.37,3.7c-0.98,3.18-6,0.97-6,0.97s-11.48-0.23-16.9,6.27      c-42.42,53.62,18.73,93.56,47.38,98.73l3.43,22.64C506.78,242.89,466.03,219.66,459.62,176.7z"/>
				<path class="st23" d="M515.21,122.55c-0.18-0.01-0.29-0.03-0.29-0.03S515.03,122.52,515.21,122.55z"/>
				<path class="st22" d="M555.91,338.13l5.45,49.54l-3.8,54.6c0,0,53.96,16.69,39.34-5.73c-13.5-20.71-30.52-3.5-30.52-3.5      l10.23-47.54l1.22-33.76c0,0,66.36,8.3,123.66-3.98l-0.28,35l-8.27,58.74c0,0,54.95,17.66,40.09-6.8      c-11.51-17.55-29.84-3.73-29.84-3.73l12.98-48.28l5.09-50.72L555.91,338.13z"/>
				<path class="st6" d="M721.52,220.76l-0.26,111.2c0,0-68.55,15.04-165.34,6.17l-16.68-110.25      C539.24,227.88,650.69,244.85,721.52,220.76z"/>
				<polygon class="st21" points="666.94,330.95 651.51,315.7 670.72,252.73 665.1,245.12 667.94,240.03 681.2,238.4 684.65,244.54       680.01,251.87 684.8,316.48     "/>
				<polygon class="st22" points="681.2,238.4 684.65,244.54 680.02,251.87 688.72,315.33 670.86,329.79 655.44,314.55       670.72,252.73 665.1,245.12 667.94,240.03     "/>
				<path class="st6" d="M539.24,227.88c-6.51-1.17-14.7-4.15-22.97-8.67l-2.41,21.87c9.46,4.29,19.3,7.41,28.8,9.43L539.24,227.88z      "/>
				<path class="st20" d="M816.35,242.08L816.35,242.08c0.48-0.39,0.95-0.78,1.4-1.17c0,0,0,0,0,0      C817.29,241.3,816.83,241.69,816.35,242.08z"/>
				<path class="st22" d="M682.37,155.89c0.98,6.3,4.47,11,7.79,10.51c3.32-0.5,5.23-6,4.25-12.3c-0.98-6.3-4.47-11-7.79-10.51      C683.29,144.08,681.39,149.59,682.37,155.89z"/>
				<path class="st22" d="M608.43,166.21c0.98,6.3,4.46,11.01,7.79,10.51c3.32-0.5,5.23-6,4.25-12.3c-0.98-6.3-4.47-11-7.79-10.51      C609.35,154.4,607.45,159.91,608.43,166.21z"/>
				<path class="st17" d="M631.59,187.75c0,0,31.28-0.8,50.34,5.31c0,0,1.27,27.4-27.9,22.7      C625.76,211.2,631.59,187.75,631.59,187.75z"/>
			</g>
		</g>
		<path class="st24" d="M881.11,139.59h65.06v0.13c-3.83,5.79-6,8.87-6.49,9.27H922.3c2.38,2.74,4.02,6.08,4.87,10h18.51    c0.23,0.05,0.35,0.14,0.35,0.27c-4.16,6.11-6.26,9.14-6.35,9.14h-12.05c-0.25,3.14-1.8,6.92-4.59,11.33    c-3.7,4.48-7.23,7.37-10.62,8.69c-6.3,2.96-12.35,4.43-18.12,4.43v0.13c0,0.45,1.41,2.29,4.25,5.5l32.14,37.98v1.79    c0,0.18-0.11,0.27-0.35,0.27H916.2c-25.42-29.02-38.14-43.61-38.14-43.74v-8.8l0.14-0.34c2.24,0.32,4.89,0.47,7.9,0.47    c14.27,0,23.11-4.54,26.6-13.59c0.53-1.33,0.81-2.69,0.81-4.12h-38.69c-0.18,0-0.28-0.09-0.28-0.25c4.3-6.11,6.49-9.16,6.58-9.16    h30.71v-0.14c-1.76-3.48-5.17-6.2-10.23-8.14c-3.6-1.15-6.86-1.72-9.74-1.72h-17.18v-0.34    C878.83,142.62,880.97,139.59,881.11,139.59z"/>
	</g>
</g>
</svg>