<svg xmlns="http://www.w3.org/2000/svg" width="90" height="90" viewBox="0 0 90 90">
  <g id="Group_6057" data-name="Group 6057" transform="translate(-10485 -746)">
    <g id="Ellipse_1730" data-name="Ellipse 1730" transform="translate(10485 746)" fill="#fff" stroke="#101010" stroke-width="2">
      <circle cx="45" cy="45" r="45" stroke="none"/>
      <circle cx="45" cy="45" r="44" fill="none"/>
    </g>
    <g id="noun_maharashtra_map_3177588" data-name="noun_maharashtra map_3177588" transform="translate(10502.609 762.829)">
      <path id="Path_7954" data-name="Path 7954" d="M53.188,23.6a1.423,1.423,0,0,0-1.009-.929.888.888,0,0,0-.252-.543,3.305,3.305,0,0,0-.356-.294,1.335,1.335,0,0,1-.239-.2.971.971,0,0,0-.251-.3,1.78,1.78,0,0,0,.134-.616c.006-.056.01-.113.014-.133a1.056,1.056,0,0,0-.4-1.237,1.343,1.343,0,0,0,.742-1.105,7.354,7.354,0,0,0-.02-2.128.652.652,0,0,0-.35-.463.566.566,0,0,0-.065-.031,3.771,3.771,0,0,0,.14-.9.881.881,0,0,0-.478-.812c.011-.114.014-.217.015-.322,0-.2,0-.2.053-.261a2.085,2.085,0,0,1,.339-.283,1.955,1.955,0,0,0,.9-1.185.681.681,0,0,0-.5-.75,2.906,2.906,0,0,1-1.33-.668.9.9,0,0,1-.055-.121,2.143,2.143,0,0,0-1.2-1.186.838.838,0,0,0-.149-.047.619.619,0,0,0-.137-.015,1.581,1.581,0,0,0-1.161.538l-.092.087c-.129-.011-.3-.014-.475-.014-.142,0-.478,0-.5.007a1.978,1.978,0,0,0-1.733-.115l-.014.006-.007-.008a1.4,1.4,0,0,0-1.166-.635.825.825,0,0,1-.313-.06,1.76,1.76,0,0,0-.643-.126,2.153,2.153,0,0,0-1.211.459,3.049,3.049,0,0,1-.479.278,2.777,2.777,0,0,1-.3.11,1.579,1.579,0,0,0-.712.47,3.725,3.725,0,0,1-.869-.023,3.36,3.36,0,0,0-.784-.094.833.833,0,0,0-.824-.605,3.355,3.355,0,0,0-1.46.575c-.065.037-.132.076-.17.1l-.034.014a.594.594,0,0,0-.118.07,4.334,4.334,0,0,1-3.013.925.947.947,0,0,1-.223-.1.776.776,0,0,0,.238-.244c.368-.6-.246-1.694-.247-1.694a1.426,1.426,0,0,0-1.358-.774,4.707,4.707,0,0,0-1.34.267c-.146.044-.283.087-.4.11a3.39,3.39,0,0,0-2.188,1.47,2.672,2.672,0,0,1-.818.792,1.14,1.14,0,0,0-.631.75.912.912,0,0,0,.062.563l-1.345.644a.32.32,0,0,1-.121.037c-.052,0-.21-.2-.279-.576-.163-.895-.478-1.491-1.483-1.491l-.5.009c-.1,0-.2,0-.336-.009l-2.186.024a2.332,2.332,0,0,1-.609-.124,3.556,3.556,0,0,0-1-.177c-.225,0-.364-.132-.65-.455a1.753,1.753,0,0,0-1.31-.761l-.541,0a2.7,2.7,0,0,1-1.2-.219c-.215-.087-.264-.132-.217-.8a4.188,4.188,0,0,0,.01-.607.843.843,0,0,0-.617-.691l-.082-.032a.709.709,0,0,0-.576-.3,3.118,3.118,0,0,0-1.258.342,1.677,1.677,0,0,1-.768.225.627.627,0,0,0-.256.033L9.6,7.525a.612.612,0,0,0-.1.046l-.1.052C8.5,8.1,8.193,8.683,8.5,9.343l.021.042a1.138,1.138,0,0,0-.171.348,1.3,1.3,0,0,1-.058.149,1.049,1.049,0,0,0,.047,1.023,1.113,1.113,0,0,0,.509.422,2.1,2.1,0,0,0,.064.351c.007.027.014.055.019.081l-.107.052a.95.95,0,0,0-.6.6.81.81,0,0,0-.856.534.76.76,0,0,0,.408.883.99.99,0,0,1,.116.085,2.441,2.441,0,0,0,.478.324c.076.042.2.113.223.13l.065.132a6.588,6.588,0,0,1,.415.954.861.861,0,0,0-.767.726,5.7,5.7,0,0,1-.521-.286,1.974,1.974,0,0,0-.966-.385.815.815,0,0,0-.812.71,1.553,1.553,0,0,0,.19.9l.035.074-.018.1a.192.192,0,0,1-.047.114,1.08,1.08,0,0,0-.4.927,1.015,1.015,0,0,0,.042.2,1.618,1.618,0,0,0-.165.026,1.033,1.033,0,0,0-.836.766l-.037.08c-.076-.03-.154-.056-.232-.083a1.6,1.6,0,0,0-.169-.05,1.566,1.566,0,0,1-.054-.409.638.638,0,0,0-.934-.548l-1.366.719a.691.691,0,0,0-.3.336,2.768,2.768,0,0,0-.238.988,6.328,6.328,0,0,0,.065,1.009c.014.111.027.222.037.334.02.207.03.417.038.619.013.288.026.584.065.878a1.4,1.4,0,0,0,.3.756.818.818,0,0,0-.036.149.941.941,0,0,0,.028.718.861.861,0,0,0,.166.247,1.591,1.591,0,0,0,.051.61l0,.436.021-.321a1.2,1.2,0,0,1-.021.321,1.875,1.875,0,0,0,.089,1.055,1.1,1.1,0,0,0,.577.619.748.748,0,0,0-.306.28,1.159,1.159,0,0,0,.13,1.166,1.749,1.749,0,0,1,.1.311c.026.1.053.2.087.3a1.5,1.5,0,0,0,.1,1.432,1.968,1.968,0,0,1,.088.211.822.822,0,0,0,.13.27,1.6,1.6,0,0,0,.026,1.028,3.545,3.545,0,0,0,.582,1.189,7.177,7.177,0,0,1,.54,3.017A15.544,15.544,0,0,0,4.965,40.2c.1.379.206.771.3,1.155l.976,4.567a2.677,2.677,0,0,0,.5,1.22l.24.273a1.673,1.673,0,0,1,.448.741l.157.416A.636.636,0,0,0,8,48.953a.643.643,0,0,0,.55-.088l.473-.334c.008.017.015.033.021.048.17.376.485,1.079,1.244,1.121l.081,0a1.331,1.331,0,0,0,1.175-.919c.017-.036.032-.07.048-.1.053-.014.106-.02.161-.03a1.123,1.123,0,0,0,1.09-1.214c0-.109.012-.274.028-.419a.831.831,0,0,0,.481-.327.931.931,0,0,0,.145-.649,1.157,1.157,0,0,0,.16-.223,1.028,1.028,0,0,0-.228-1.2l-.037-.043a.508.508,0,0,0-.2-.279,1.441,1.441,0,0,1-.106-.259,2.907,2.907,0,0,0-.157-.393,2.818,2.818,0,0,0,.336-.394l.06-.08a.987.987,0,0,0,1.09.063,1.146,1.146,0,0,0,.454-.672l.992-.689a1.856,1.856,0,0,0,.62-.742,3.108,3.108,0,0,0,.38.3,1.22,1.22,0,0,0,.639.17,3.256,3.256,0,0,0,1.419-.48c.177-.093.345-.183.426-.218a1.665,1.665,0,0,1,.392.2,1.1,1.1,0,0,0,1.23.163.683.683,0,0,0,.313-.576c0-.239-.019-.56-.039-.9-.026-.443-.065-1.077-.045-1.578a1.8,1.8,0,0,0,1.086.238,1.3,1.3,0,0,0,.362.318,1.567,1.567,0,0,0,.877.16c.9,0,2.459-.071,2.781-.554.2-.311.293-.79-.449-1.309a2.568,2.568,0,0,1-.217-.165,1.734,1.734,0,0,0,.046-.769c-.006-.053-.014-.12-.037-.134a1.973,1.973,0,0,1,.283.079,1.994,1.994,0,0,0,.62.126,1.024,1.024,0,0,0,1.025-1.009l.093-.02a2.155,2.155,0,0,0,.433-.132,1.323,1.323,0,0,0,.706-1.252c0-.053.005-.109.012-.158a1.415,1.415,0,0,1,.3-.392,1.829,1.829,0,0,1,.239-.045,1.39,1.39,0,0,0,1.313-.964,2.294,2.294,0,0,0,1.005.206,1.787,1.787,0,0,1,.233.018.689.689,0,0,0,.72-.558,2.037,2.037,0,0,0,.008-.59c-.006-.059-.013-.152-.027-.146.028-.053.06-.076.243-.16a1.639,1.639,0,0,0,.994-1.048c.033-.1.056-.193.089-.32.045-.183.045-.183.143-.267.159-.133.318-.29.519-.486.076-.076.151-.15.237-.23a.732.732,0,0,0,.216-.645c-.074-.44-.453-.612-.895-.812a2.186,2.186,0,0,0-.287-.112l-.03-.036c.087-.054.188-.11.242-.141a.692.692,0,0,0,.286-.329,5.612,5.612,0,0,0,.216-.627l.189.079.077.036a1.571,1.571,0,0,0,1.414.1.925.925,0,0,0,.292-1.033c.369-.142.863-.338.975-.866a.969.969,0,0,0-.318-.911l-.05-.051c.018-.026.038-.054.059-.086h0l.081-.121a1.689,1.689,0,0,0,.253-.865,2.312,2.312,0,0,0,.717.12c.1,0,.2.009.32.022a1.333,1.333,0,0,1,.126.143,2.3,2.3,0,0,0,.331.34,1.981,1.981,0,0,0,.757.343c.057.016.135.037.189.057,0,.037.007.076.01.118a1.387,1.387,0,0,0,.844,1.369c1.076.362,1.729.094,1.989-.643l0,0a2.153,2.153,0,0,0,.711.449.686.686,0,0,0,.413-.022,1.4,1.4,0,0,0,.331-.172.839.839,0,0,0,.173.023,1.546,1.546,0,0,0,.994-.518c.038.028.077.058.107.082.066.051.128.1.174.128a1.23,1.23,0,0,1,.1.1,1.569,1.569,0,0,0,.477.357c-.017.077-.048.183-.075.275a4.117,4.117,0,0,0-.13.546,4.641,4.641,0,0,0,.071,1.476,5.35,5.35,0,0,1,.088.822l-.005.12a1.47,1.47,0,0,0,.275,1.159,1.225,1.225,0,0,0,.526.3c.021.018.042.039.065.062a1.177,1.177,0,0,0,.784.407l.128,0a3.729,3.729,0,0,0,.622-.065,2.505,2.505,0,0,1,.436-.046.637.637,0,0,0,.625-.516l.087-.444c.014-.025.029-.047.043-.068a.884.884,0,0,0-.106-1.213.906.906,0,0,1,.046-.166c.061-.183.108-.357.152-.526a1.622,1.622,0,0,1,.443-.92c.042-.038.158-.16.3-.313a1.038,1.038,0,0,0,.806.471,1.154,1.154,0,0,0,.485-.126l.087-.037A2.158,2.158,0,0,0,53.2,24.59,1.237,1.237,0,0,0,53.188,23.6ZM8.84,12.71l.641-.084a.553.553,0,0,1-.019.111ZM51.61,24.525a2.38,2.38,0,0,0-.225-.2l-.121-.1a.636.636,0,0,0-1.025-.2c-.1.093-.311.322-.469.492-.11.118-.2.22-.243.257a2.834,2.834,0,0,0-.812,1.536c-.037.143-.076.29-.127.444A1.3,1.3,0,0,0,48.694,28a1.687,1.687,0,0,0-.079.161.611.611,0,0,0-.038.126l-.011.053-.124.02a2.56,2.56,0,0,1-.377.043l-.041-.041a1.284,1.284,0,0,0-.41-.3l-.085-.033c0-.084,0-.177.006-.216,0-.071.007-.136.007-.185a6.723,6.723,0,0,0-.11-1.054,3.466,3.466,0,0,1-.065-1.054,2.785,2.785,0,0,1,.1-.392c.121-.415.4-1.388-.619-1.77a1.135,1.135,0,0,1-.1-.1,2.02,2.02,0,0,0-.275-.245c-.039-.026-.082-.059-.125-.093a1.6,1.6,0,0,0-.953-.424.976.976,0,0,0-.779.394,1.479,1.479,0,0,1-.164.156.752.752,0,0,0-.752.1c-.016-.014-.032-.028-.05-.042A1.986,1.986,0,0,0,42.48,22.5c-.138,0-.825.05-.825,1.04a.678.678,0,0,1,0,.081,1.435,1.435,0,0,1-.347-.076,2.18,2.18,0,0,1-.035-.283,3.2,3.2,0,0,0-.04-.33,1.3,1.3,0,0,0-1.088-.97.579.579,0,0,1-.455-.277,1.36,1.36,0,0,0-.923-.58,4.369,4.369,0,0,0-.437-.037.744.744,0,0,1-.539-.161,1.451,1.451,0,0,0-.87-.406.731.731,0,0,0-.516.23,1.143,1.143,0,0,0-.155.954,1.493,1.493,0,0,1-.015.7h0l-.074.111a1.118,1.118,0,0,0-.1,1.447,1.172,1.172,0,0,0-.78.6.836.836,0,0,0-.053.28,2.494,2.494,0,0,0-.931-.267c-.655,0-.809.566-.907.925-.032.116-.069.253-.126.411a1.391,1.391,0,0,0-.767.9,1.36,1.36,0,0,0,.407,1.108,1.473,1.473,0,0,0,.513.345c-.053.049-.1.1-.158.141a1.572,1.572,0,0,0-.567.97c-.016.059-.032.126-.057.2-.048.151-.092.176-.318.28a1.612,1.612,0,0,0-.833.722,1.127,1.127,0,0,0-.126.452c-.037-.354-.15-1.086-.825-1.086a1.079,1.079,0,0,0-.768.417,1.776,1.776,0,0,0-.336,1.331c0,.068.006.132.005.2-.073.02-.19.037-.278.05a2.082,2.082,0,0,0-.551.138,2.229,2.229,0,0,0-.928,1,.641.641,0,0,0-.065.149,2.327,2.327,0,0,0-.069.483c0,.059-.01.143-.019.2-.038.011-.082.019-.127.029-.307.069-1.022.23-1.063.935l-.005,0a1.636,1.636,0,0,0-1.274.016,1.265,1.265,0,0,0-.626,1.393.851.851,0,0,1,.008.234,1.086,1.086,0,0,0,.143,1.092,11.35,11.35,0,0,1-1.3.049c-.008-.011-.018-.025-.032-.048a.86.86,0,0,0-.771-.454,1.963,1.963,0,0,0-.365.044,1.346,1.346,0,0,1-.51-.205,3.431,3.431,0,0,0-.7-.311.64.64,0,0,0-.758.354,6.731,6.731,0,0,0-.17,2.757,1.393,1.393,0,0,0-.962-.093,4.8,4.8,0,0,0-.673.309,3.414,3.414,0,0,1-.814.348,2.951,2.951,0,0,1-.239-.2,1.973,1.973,0,0,0-.89-.56.634.634,0,0,0-.564.189,2.319,2.319,0,0,0-.423.672.839.839,0,0,1-.264.39l-1.1.761a.9.9,0,0,0-.274.308,1.009,1.009,0,0,0-.412-.115,1.4,1.4,0,0,0-1.114.712c-.037.051-.092.123-.139.177l-.015,0a1.133,1.133,0,0,0-.526.007.638.638,0,0,0-.428.712,1.221,1.221,0,0,0,.542.738.962.962,0,0,0,.105.073,1.631,1.631,0,0,1,.1.258,1.932,1.932,0,0,0,.357.68,1.174,1.174,0,0,0,.13.2.746.746,0,0,0-.188.531.825.825,0,0,0-.514.619,5.452,5.452,0,0,0-.1.907l-.027,0c-.082.014-.166.028-.252.049a1.165,1.165,0,0,0-.894.791c-.014.03-.032.067-.052.1-.049-.088-.1-.205-.137-.282a2.516,2.516,0,0,0-.3-.542.975.975,0,0,0-.731-.441.79.79,0,0,0-.514.208c-.049.039-.062.048-.089.055a.743.743,0,0,0-.087.03,2.8,2.8,0,0,0-.554-.8l-.222-.255a1.943,1.943,0,0,1-.223-.656l-.979-4.579c-.1-.41-.2-.816-.311-1.211a14.528,14.528,0,0,1-.576-2.956,8.845,8.845,0,0,0-.745-3.639,3.511,3.511,0,0,1-.4-.726.627.627,0,0,0-.037-.148c-.013-.033-.024-.075-.034-.108a.642.642,0,0,0,.284-.336.635.635,0,0,0-.037-.518,1.2,1.2,0,0,0-.326-.351l-.069-.056c-.031-.086-.072-.182-.115-.278-.021-.049-.049-.112-.075-.173a.637.637,0,0,0,.209-1.026,1.587,1.587,0,0,0-.175-.153l-.037-.031c-.015-.051-.03-.1-.044-.159-.021-.081-.043-.16-.07-.241a.7.7,0,0,0,.621-.459.9.9,0,0,0-.2-.84,2.063,2.063,0,0,0,.277-.178,2.039,2.039,0,0,0,.251-.23.637.637,0,0,0-.369-1.046H4.533c0-.02,0-.037,0-.044A.637.637,0,0,0,3.5,25.72c0-.043-.008-.087-.016-.132a.884.884,0,0,0,.124-.021.636.636,0,0,0,.4-.906,1.238,1.238,0,0,0-.425-.419,1.273,1.273,0,0,0,.232-.13.639.639,0,0,0,.169-.839h0l-.043-.083a.638.638,0,0,0-.8-.3l-.189.074c-.027-.237-.037-.475-.048-.706s-.02-.455-.042-.683c-.012-.124-.026-.247-.042-.374a5.046,5.046,0,0,1-.055-.8,1.266,1.266,0,0,1,.07-.357l.4-.21c.014.036.03.071.045.106a.977.977,0,0,0,.758.552l.148.043a1.163,1.163,0,0,1,.256.109,1.037,1.037,0,0,0,1.285,0,.765.765,0,0,0,.247-.769c.012-.028.022-.055.033-.083.045,0,.09,0,.138,0a1.919,1.919,0,0,0,.554-.07.836.836,0,0,0,.557-.475,1.1,1.1,0,0,0-.149-.959l.063-.062a1.294,1.294,0,0,0,.32-.728,1.032,1.032,0,0,1,.03-.142.617.617,0,0,0,.027-.134,1.407,1.407,0,0,0,1.854-.173,1.021,1.021,0,0,0,.16-.372.981.981,0,0,0,.679-.485c.345-.622-.041-1.493-.432-2.268l-.053-.105a1.315,1.315,0,0,0-.424-.487,1.01,1.01,0,0,0,.137-.4,1.21,1.21,0,0,0,.732-.824,1.345,1.345,0,0,0,.028-.3,1.579,1.579,0,0,0,.726-.082c.308-.118,1.835-.747,1.577-1.571a.645.645,0,0,0-.145-.247.814.814,0,0,0-.607-.226,2.861,2.861,0,0,0-.4.037,1.717,1.717,0,0,1-.743-.008,1,1,0,0,0-.613.1.652.652,0,0,0,.105-.341.723.723,0,0,0-.311-.607c.069-.041.142-.08.188-.1l.734-.267h0a3.056,3.056,0,0,0,1.238-.338,3.563,3.563,0,0,1,.52-.2,1.559,1.559,0,0,0,.22.128c0,.04-.005.082-.008.125a1.782,1.782,0,0,0,1.015,2.054,3.932,3.932,0,0,0,1.674.311l.541,0c.065,0,.253.214.355.33a2.073,2.073,0,0,0,1.6.885,2.492,2.492,0,0,1,.647.129,3.453,3.453,0,0,0,.983.172l2.133-.025c.226.014.469.012.676.005l.188,0c.059,0,.1,0,.113,0a1.971,1.971,0,0,1,.117.447c.236,1.288,1.2,1.938,2.2,1.459l1.684-.807a.951.951,0,0,0,.569-.621.827.827,0,0,0-.129-.648,4.026,4.026,0,0,0,1.065-1.042,2.162,2.162,0,0,1,1.436-1c.145-.03.323-.082.533-.145a3.759,3.759,0,0,1,.949-.206c.183,0,.2.042.22.071.039.08.082.182.121.282a1.283,1.283,0,0,0-.209.076.828.828,0,0,0-.5.755c0,.808,1.314,1.624,1.933,1.623h0a5.6,5.6,0,0,0,3.748-1.133c.06-.03.135-.072.25-.138s.332-.19.53-.288a1.216,1.216,0,0,0,1.128.487,1.4,1.4,0,0,1,.387.034,3.372,3.372,0,0,0,.91.115,1.667,1.667,0,0,0,1.167-.329,1.782,1.782,0,0,1,.268-.23,3.817,3.817,0,0,0,.419-.155,4.348,4.348,0,0,0,.685-.39,1.112,1.112,0,0,1,.505-.245.492.492,0,0,1,.181.039,2.072,2.072,0,0,0,.714.145c.035,0,.066,0,.081,0s.01-.023.149.153a1.219,1.219,0,0,0,.937.526,1.465,1.465,0,0,0,.572-.141.5.5,0,0,1,.585.032,2.31,2.31,0,0,0,1.154.175c.149,0,.29,0,.383.01.026,0,.121.01.149.01a1.292,1.292,0,0,0,.927-.452,1.039,1.039,0,0,1,.185-.158.76.76,0,0,1,.35.329.846.846,0,0,1,.059.126,1.763,1.763,0,0,0,.211.388,2.992,2.992,0,0,0,1.168.829,2.776,2.776,0,0,0-.561.5,1.523,1.523,0,0,0-.323,1.03,1.506,1.506,0,0,1-.022.273.921.921,0,0,0,.036.728.815.815,0,0,0,.427.376,7.969,7.969,0,0,1-.218.849,1.125,1.125,0,0,0,.005.966.693.693,0,0,0,.6.319,6.015,6.015,0,0,1-.056,1,.61.61,0,0,1-.021.1,1.186,1.186,0,0,1-.159.093,3.009,3.009,0,0,0-.432.264,1.1,1.1,0,0,0-.535.916,1.025,1.025,0,0,0,.678.773c.04.02.1.05.149.078-.009.045-.017.092-.023.142a.735.735,0,0,0-.646.69.677.677,0,0,0,.077.386.868.868,0,0,0-.034.559.7.7,0,0,0,.644.489.98.98,0,0,0,.382-.089,2.34,2.34,0,0,0,.36.321.686.686,0,0,0,0,.58c.2.442.739.486,1.1.513a.514.514,0,0,1,.082.023.712.712,0,0,1,.093.216A.892.892,0,0,1,51.61,24.525Z" fill="#101010"/>
    </g>
  </g>
</svg>
