<svg xmlns="http://www.w3.org/2000/svg" xmlns:xlink="http://www.w3.org/1999/xlink" width="79.441" height="79.441" viewBox="0 0 79.441 79.441">
  <defs>
    <radialGradient id="radial-gradient" cx="0.5" cy="0.5" r="0.498" gradientUnits="objectBoundingBox">
      <stop offset="0" stop-color="#fff"/>
      <stop offset="0.608" stop-color="#fdfeff"/>
      <stop offset="0.736" stop-color="#f8fcfe"/>
      <stop offset="0.818" stop-color="#edf8fd"/>
      <stop offset="0.881" stop-color="#def1fc"/>
      <stop offset="0.932" stop-color="#cae9fb"/>
      <stop offset="0.975" stop-color="#b2dff9"/>
      <stop offset="1" stop-color="#a0d8f7"/>
    </radialGradient>
  </defs>
  <g id="Group_1159" data-name="Group 1159" transform="translate(-246 -1364.213)">
    <g id="Group_1156" data-name="Group 1156" transform="translate(-508 -180)">
      <path id="Path_1" data-name="Path 1" d="M40.531,3A37.531,37.531,0,1,1,3,40.531,37.642,37.642,0,0,1,40.531,3Z" transform="translate(753.189 1543.715)" fill-rule="evenodd" fill="url(#radial-gradient)"/>
      <path id="Path_2" data-name="Path 2" d="M42.021,2.2A39.512,39.512,0,1,1,13.872,13.772,41.074,41.074,0,0,1,42.021,2.2ZM66.729,17.525A35.029,35.029,0,0,0,6.991,42.233,33.732,33.732,0,0,0,17.312,66.941,34.989,34.989,0,0,0,42.021,77.262,33.732,33.732,0,0,0,66.729,66.941C72.984,60.373,77.05,51.929,77.05,42.233A34.989,34.989,0,0,0,66.729,17.525Z" transform="translate(751.7 1542.013)" fill="#0075bd" fill-rule="evenodd"/>
      <g id="tax" transform="translate(774.386 1564.6)">
        <path id="Path_1116" data-name="Path 1116" d="M37.535,14.576h-4.38V8.459a1.142,1.142,0,0,0-.332-.8C32.823,7.65,25.544.3,25.5.266a1.137,1.137,0,0,0-.6-.258C24.807,0,25.739,0,7.78,0A2.268,2.268,0,0,0,5.515,2.266v12.31H1.135A1.133,1.133,0,0,0,0,15.709V32.625a1.133,1.133,0,0,0,1.133,1.133h4.38V36.4A2.268,2.268,0,0,0,7.78,38.667H30.889A2.268,2.268,0,0,0,33.155,36.4V33.758h4.38a1.133,1.133,0,0,0,1.133-1.133V15.709A1.133,1.133,0,0,0,37.535,14.576ZM25.905,3.944l3.382,3.382H25.905ZM7.78,2.266H23.64V8.459a1.133,1.133,0,0,0,1.133,1.133h6.117v4.984H7.78ZM30.889,36.4H7.78V33.758H30.889ZM36.4,31.492H2.268V16.842H36.4Z" transform="translate(0 0)" fill="#0075bd"/>
        <path id="Path_1117" data-name="Path 1117" d="M80.176,249H74.135a1.133,1.133,0,0,0,0,2.266h1.888V258.6a1.133,1.133,0,1,0,2.266,0v-7.325h1.888a1.133,1.133,0,0,0,0-2.266Z" transform="translate(-67.487 -230.2)" fill="#0075bd"/>
        <path id="Path_1118" data-name="Path 1118" d="M202.7,249.859a1.328,1.328,0,0,0-2.47-.03c-.009.022.134-.357-3.165,8.365a1.133,1.133,0,1,0,2.119.8l.409-1.08H203.3l.4,1.078a1.133,1.133,0,0,0,2.121-.8Zm-2.25,5.79,1.006-2.659,1,2.659Z" transform="translate(-182.109 -230.199)" fill="#0075bd"/>
        <path id="Path_1119" data-name="Path 1119" d="M335.235,249.478l-2.1,2.939-2.1-2.939a1.133,1.133,0,1,0-1.844,1.317l2.55,3.571-2.55,3.571a1.133,1.133,0,1,0,1.844,1.317l2.1-2.939,2.1,2.939a1.133,1.133,0,1,0,1.844-1.317l-2.55-3.571,2.55-3.571a1.133,1.133,0,1,0-1.844-1.317Z" transform="translate(-304.135 -230.198)" fill="#0075bd"/>
        <path id="Path_1120" data-name="Path 1120" d="M143.572,65h-5.437a1.133,1.133,0,0,0,0,2.266h5.437a1.133,1.133,0,0,0,0-2.266Z" transform="translate(-126.654 -60.095)" fill="#0075bd"/>
        <path id="Path_1121" data-name="Path 1121" d="M143.572,129h-5.437a1.133,1.133,0,0,0,0,2.266h5.437a1.133,1.133,0,0,0,0-2.266Z" transform="translate(-126.654 -119.262)" fill="#0075bd"/>
      </g>
    </g>
  </g>
</svg>
