<?xml version="1.0" encoding="utf-8"?>
<!-- Generator: Adobe Illustrator 24.2.3, SVG Export Plug-In . SVG Version: 6.00 Build 0)  -->
<svg version="1.1" xmlns="http://www.w3.org/2000/svg" xmlns:xlink="http://www.w3.org/1999/xlink" x="0px" y="0px"
	 viewBox="0 0 30 30" style="enable-background:new 0 0 30 30;" xml:space="preserve">
<style type="text/css">
	.st0{display:none;}
	.st1{display:inline;}
	.st2{fill-rule:evenodd;clip-rule:evenodd;fill:url(#SVGID_1_);}
	.st3{fill-rule:evenodd;clip-rule:evenodd;fill:#5D9C27;}
	.st4{fill-rule:evenodd;clip-rule:evenodd;fill:url(#SVGID_2_);}
	.st5{fill-rule:evenodd;clip-rule:evenodd;fill:#0075BD;}
	.st6{fill-rule:evenodd;clip-rule:evenodd;fill:#FFFFFF;}
	.st7{fill-rule:evenodd;clip-rule:evenodd;fill:url(#SVGID_3_);}
	.st8{fill-rule:evenodd;clip-rule:evenodd;fill:#EB6502;}
	.st9{fill-rule:evenodd;clip-rule:evenodd;fill:none;stroke:#EB6502;stroke-width:0.7087;stroke-miterlimit:22.9256;}
	.st10{fill-rule:evenodd;clip-rule:evenodd;fill:url(#SVGID_4_);}
	.st11{fill-rule:evenodd;clip-rule:evenodd;fill:url(#SVGID_5_);}
	.st12{fill-rule:evenodd;clip-rule:evenodd;fill:url(#SVGID_6_);}
	.st13{fill-rule:evenodd;clip-rule:evenodd;fill:url(#SVGID_7_);}
	.st14{fill-rule:evenodd;clip-rule:evenodd;fill:#E567A2;}
	.st15{fill-rule:evenodd;clip-rule:evenodd;fill:url(#SVGID_8_);}
	.st16{clip-path:url(#SVGID_10_);}
	.st17{fill-rule:evenodd;clip-rule:evenodd;fill:url(#SVGID_11_);}
	.st18{fill-rule:evenodd;clip-rule:evenodd;fill:#94A5AF;}
	.st19{fill-rule:evenodd;clip-rule:evenodd;fill:url(#SVGID_12_);}
	.st20{fill-rule:evenodd;clip-rule:evenodd;fill:#741E7C;}
</style>
<g id="MSME_Loan" class="st0">
	<g class="st1">
		<g>
			<radialGradient id="SVGID_1_" cx="15.0001" cy="16.8784" r="11.9587" gradientUnits="userSpaceOnUse">
				<stop  offset="0" style="stop-color:#FFFFFF"/>
				<stop  offset="0.6065" style="stop-color:#FEFEFD"/>
				<stop  offset="0.7344" style="stop-color:#FAFCF8"/>
				<stop  offset="0.8164" style="stop-color:#F3F8ED"/>
				<stop  offset="0.8787" style="stop-color:#E9F2DE"/>
				<stop  offset="0.9297" style="stop-color:#DCEBCA"/>
				<stop  offset="0.9722" style="stop-color:#CCE2B2"/>
				<stop  offset="1" style="stop-color:#BFDA9E"/>
			</radialGradient>
			<path class="st2" d="M15,4.9c6.6,0,12,5.4,12,12s-5.4,12-12,12c-6.6,0-12-5.4-12-12S8.4,4.9,15,4.9z"/>
			<path class="st3" d="M15,15.2c-0.6,0-1.4,0-2.1,0c-0.1,0-0.2,0-0.2,0.1c0,0,0,0.6,0,0.7c0,0.1,0.1,0.1,0.3,0.1c0.2,0,0.5,0,0.7,0
				c0.4,0,0.9,0,1.4,0c0,0.2-0.2,0.5-0.4,0.6c-0.6,0.4-1.5,0.2-1.8,0.3c-0.2,0-0.1,0.2-0.1,0.4c0,0.7,0,0.4,0.3,0.8l0.2,0.3
				c0.2,0.3,0.5,0.6,0.7,0.8l0.7,0.8c0.1,0.1,0.2,0.2,0.2,0.3c0.1,0.1,0.2,0.2,0.2,0.3c0.3,0.4,0.2,0.3,0.7,0.3c0.2,0,0.3,0,0.5,0
				c0.1,0,0.2,0,0.2-0.1c0.1-0.1,0-0.2-0.1-0.3c-0.3-0.4-0.7-0.9-1.1-1.3l-1.2-1.4c2-0.3,2-1.7,2.1-1.8c0,0,0.7,0,0.7,0
				c0.3,0,0.3,0,0.3-0.4c0-0.5,0.1-0.4-1.1-0.4c-0.1-0.2-0.1-0.4-0.2-0.6c0-0.1-0.1-0.1-0.1-0.2c0.2,0,0.5,0,0.7,0
				c0.1,0,0.5,0,0.6,0c0.1-0.1,0.1-0.2,0.1-0.3c0-0.6,0-0.6-0.5-0.6h-3.4c-0.2,0-0.5,0-0.7,0c-0.2,0-0.2,0.3-0.2,0.5
				c0,0.2-0.1,0.5,0.2,0.5c0.6,0,1.2-0.1,1.8,0.2C14.8,14.9,15,15.1,15,15.2L15,15.2z M7.1,21.6h15.8c0.1,0,0.1,0.1,0.1,0.3v1.8
				c0,0.1-0.1,0.3-0.1,0.3H7.1C7,23.9,7,23.8,7,23.7v-1.8C7,21.7,7,21.6,7.1,21.6L7.1,21.6L7.1,21.6z M7.3,20H7.1l0,0
				C7,20,7,20,7,20l0,0v0.9l0,0C7,21,7,21,7.1,21l0,0h2.5l0,0c0,0,0.1,0,0.1-0.1l0,0V20l0,0c0-0.1,0-0.1-0.1-0.1l0,0H9.4l0,0
				c0,0-0.1,0-0.1-0.1l0,0v-5.5l0,0c0-0.1,0-0.1,0.1-0.1l0,0h0.2l0,0c0,0,0.1,0,0.1-0.1l0,0v-0.9l0,0c0-0.1,0-0.1-0.1-0.1l0,0H7.1
				l0,0c0,0-0.1,0-0.1,0.1l0,0v0.9l0,0c0,0.1,0,0.1,0.1,0.1l0,0h0.2l0,0c0,0,0.1,0,0.1,0.1l0,0L7.3,20L7.3,20
				C7.4,19.9,7.3,20,7.3,20L7.3,20L7.3,20L7.3,20z M20.6,20h-0.2l0,0c0,0-0.1,0-0.1,0.1l0,0v0.9l0,0c0,0.1,0,0.1,0.1,0.1l0,0h2.5
				l0,0c0,0,0.1,0,0.1-0.1l0,0V20l0,0c0-0.1,0-0.1-0.1-0.1l0,0h-0.2l0,0c0,0-0.1,0-0.1-0.1l0,0v-5.5l0,0c0-0.1,0-0.1,0.1-0.1l0,0
				h0.2l0,0c0,0,0.1,0,0.1-0.1l0,0v-0.9l0,0c0-0.1,0-0.1-0.1-0.1l0,0h-2.5l0,0c0,0-0.1,0-0.1,0.1l0,0v0.9l0,0c0,0.1,0,0.1,0.1,0.1
				l0,0h0.2l0,0c0,0,0.1,0,0.1,0.1l0,0L20.6,20L20.6,20C20.7,19.9,20.7,20,20.6,20L20.6,20L20.6,20L20.6,20z M15,8.8
				c0.6,0,1.1,0.5,1.1,1.1c0,0.6-0.5,1.1-1.1,1.1c-0.6,0-1.1-0.5-1.1-1.1C13.9,9.3,14.4,8.8,15,8.8L15,8.8z M6.9,12.8h16.2l0,0
				c0.1,0,0.1-0.1,0.1-0.1c0,0,0-0.1,0-0.1l-7-5.2C15.8,7.1,15.4,7,15,7s-0.8,0.1-1.2,0.4l-7,5.2c0,0,0,0.1,0,0.1
				C6.8,12.7,6.9,12.8,6.9,12.8L6.9,12.8L6.9,12.8z"/>
			<path class="st3" d="M15,4.1c3.5,0,6.7,1.4,9,3.7c2.3,2.3,3.7,5.5,3.7,9c0,3.5-1.4,6.7-3.7,9c-2.3,2.3-5.5,3.7-9,3.7
				c-3.5,0-6.7-1.4-9-3.7c-2.3-2.3-3.7-5.5-3.7-9c0-3.5,1.4-6.7,3.7-9C8.3,5.6,11.5,4.1,15,4.1L15,4.1z M22.9,9
				c-2-2-4.8-3.3-7.9-3.3C11.9,5.7,9.1,7,7.1,9c-2,2-3.3,4.8-3.3,7.9s1.2,5.9,3.3,7.9c2,2,4.8,3.3,7.9,3.3c3.1,0,5.9-1.2,7.9-3.3
				c2-2,3.3-4.8,3.3-7.9S24.9,11,22.9,9z"/>
		</g>
	</g>
</g>
<g id="Business_Planning" class="st0">
	<g class="st1">
		<radialGradient id="SVGID_2_" cx="14.9999" cy="16.2439" r="11.9586" gradientUnits="userSpaceOnUse">
			<stop  offset="0" style="stop-color:#FFFFFF"/>
			<stop  offset="0.608" style="stop-color:#FDFEFF"/>
			<stop  offset="0.7363" style="stop-color:#F8FCFE"/>
			<stop  offset="0.8185" style="stop-color:#EDF8FD"/>
			<stop  offset="0.8809" style="stop-color:#DEF1FC"/>
			<stop  offset="0.932" style="stop-color:#CAE9FB"/>
			<stop  offset="0.9747" style="stop-color:#B2DFF9"/>
			<stop  offset="1" style="stop-color:#A0D8F7"/>
		</radialGradient>
		<path class="st4" d="M15,4.3c6.6,0,12,5.4,12,12s-5.4,12-12,12s-12-5.4-12-12S8.4,4.3,15,4.3z"/>
		<path class="st5" d="M15,3.5c3.5,0,6.7,1.4,9,3.7c2.3,2.3,3.7,5.5,3.7,9c0,3.5-1.4,6.7-3.7,9c-2.3,2.3-5.5,3.7-9,3.7
			c-3.5,0-6.7-1.4-9-3.7c-2.3-2.3-3.7-5.5-3.7-9c0-3.5,1.4-6.7,3.7-9C8.3,4.9,11.5,3.5,15,3.5L15,3.5z M22.9,8.4
			c-2-2-4.8-3.3-7.9-3.3S9.1,6.3,7.1,8.4c-2,2-3.3,4.8-3.3,7.9s1.2,5.9,3.3,7.9c2,2,4.8,3.3,7.9,3.3s5.9-1.2,7.9-3.3
			s3.3-4.8,3.3-7.9S24.9,10.4,22.9,8.4z"/>
		<path class="st6" d="M10.3,8.8h9.3c0.4,0,0.8,0.3,0.8,0.8v13.4c0,0.4-0.3,0.8-0.8,0.8h-9.3c-0.4,0-0.8-0.3-0.8-0.8V9.5
			C9.6,9.1,9.9,8.8,10.3,8.8z"/>
		<path class="st5" d="M10.3,8.3h9.3c0.3,0,0.7,0.1,0.9,0.4c0.2,0.2,0.4,0.5,0.4,0.9v13.4c0,0.3-0.1,0.7-0.4,0.9
			c-0.2,0.2-0.6,0.4-0.9,0.4h-9.3c-0.3,0-0.7-0.1-0.9-0.4c-0.2-0.2-0.4-0.6-0.4-0.9V9.5c0-0.4,0.1-0.7,0.4-0.9
			C9.7,8.4,10,8.3,10.3,8.3L10.3,8.3z M19.7,9.3h-9.3c-0.1,0-0.1,0-0.2,0.1c0,0.1-0.1,0.1-0.1,0.2v13.4c0,0.1,0,0.1,0.1,0.2
			c0.1,0.1,0.1,0.1,0.2,0.1h9.3c0.1,0,0.1,0,0.2-0.1c0.1-0.1,0.1-0.1,0.1-0.2V9.5c0-0.1,0-0.1-0.1-0.2C19.8,9.3,19.7,9.3,19.7,9.3z"
			/>
		<path class="st5" d="M14.7,17.8c-0.1-0.2-0.4-0.3-0.6-0.3c-0.4,0-0.7,0.3-0.7,0.7c0,0.1,0,0.3,0.1,0.4l0.7,1
			c0.1,0.2,0.3,0.3,0.5,0.3c0,0,0,0,0,0c0,0,0,0,0,0c0.2,0,0.4-0.1,0.5-0.2l3.3-3.3c0.1-0.1,0.2-0.3,0.2-0.5c0-0.4-0.3-0.7-0.7-0.7
			c-0.2,0-0.4,0.1-0.5,0.2l-2.7,2.7L14.7,17.8z"/>
		<path class="st5" d="M12.8,21.9h4c0.7,0,1.4-0.6,1.4-1.4v-1.1c0-0.4-0.3-0.7-0.7-0.7c-0.4,0-0.7,0.3-0.7,0.7l0,1.1l-3.8,0l0-3.9
			h1.9c0.4,0,0.7-0.3,0.7-0.7c0-0.4-0.3-0.7-0.7-0.7h-1.9c-0.7,0-1.4,0.6-1.4,1.4v4C11.5,21.3,12.1,21.9,12.8,21.9L12.8,21.9z"/>
		<path class="st5" d="M11.8,10.6h6.4c0.3,0,0.5,0.2,0.5,0.5v0c0,0.3-0.2,0.5-0.5,0.5h-6.4c-0.3,0-0.5-0.2-0.5-0.5v0
			C11.3,10.8,11.5,10.6,11.8,10.6z"/>
		<path class="st5" d="M11.8,12.6h6.4c0.3,0,0.5,0.2,0.5,0.5v0c0,0.3-0.2,0.5-0.5,0.5h-6.4c-0.3,0-0.5-0.2-0.5-0.5v0
			C11.3,12.8,11.5,12.6,11.8,12.6z"/>
	</g>
</g>
<g id="Udyam_Reg">
	<g>
		<path class="st6" d="M8.3,9.8h10v12.4h-10V9.8L8.3,9.8z M10.2,12.6h6.3H10.2z"/>
	</g>
	<path class="st6" d="M23.5,12.9c0.8,0.8,0.8,2.2,0,3.1c-0.4,0.4-1,0.7-1.6,0.6l-3,3l-2.1-2.1l3-3c0-0.6,0.2-1.2,0.6-1.6
		C21.3,12.1,22.7,12.1,23.5,12.9z"/>
	<g>
		<g>
			<radialGradient id="SVGID_3_" cx="14.9999" cy="14.9999" r="11.9586" gradientUnits="userSpaceOnUse">
				<stop  offset="0" style="stop-color:#FFFFFF"/>
				<stop  offset="0.6413" style="stop-color:#FFFEFD"/>
				<stop  offset="0.7766" style="stop-color:#FFFAF8"/>
				<stop  offset="0.8632" style="stop-color:#FEF3ED"/>
				<stop  offset="0.9291" style="stop-color:#FDE9DE"/>
				<stop  offset="0.9822" style="stop-color:#FCDDCA"/>
				<stop  offset="1" style="stop-color:#FBD7C2"/>
			</radialGradient>
			<path class="st7" d="M15,3c6.6,0,12,5.4,12,12s-5.4,12-12,12S3,21.6,3,15S8.4,3,15,3z"/>
			<path class="st8" d="M15,2.2c3.5,0,6.7,1.4,9,3.7c2.3,2.3,3.7,5.5,3.7,9c0,3.5-1.4,6.7-3.7,9c-2.3,2.3-5.5,3.7-9,3.7
				c-3.5,0-6.7-1.4-9-3.7c-2.3-2.3-3.7-5.5-3.7-9c0-3.5,1.4-6.7,3.7-9C8.3,3.7,11.5,2.2,15,2.2L15,2.2z M22.9,7.1
				c-2-2-4.8-3.3-7.9-3.3S9.1,5.1,7.1,7.1c-2,2-3.3,4.8-3.3,7.9s1.2,5.9,3.3,7.9c2,2,4.8,3.3,7.9,3.3s5.9-1.2,7.9-3.3
				s3.3-4.8,3.3-7.9S24.9,9.1,22.9,7.1z"/>
			<g>
				<path class="st6" d="M8.3,7.8h10v12.4h-10V7.8L8.3,7.8z M10.2,10.7h6.3H10.2z"/>
			</g>
			<path class="st8" d="M8.3,7.3h10.5v13.4h-11V7.3H8.3L8.3,7.3z M17.9,8.3h-9v11.4h9V8.3z"/>
			<path class="st6" d="M23.5,11c0.8,0.8,0.8,2.2,0,3.1c-0.4,0.4-1,0.7-1.6,0.6l-3,3l-2.1-2.1l3-3c0-0.6,0.2-1.2,0.6-1.6
				C21.3,10.2,22.7,10.2,23.5,11z"/>
			<path class="st8" d="M23.9,10.7c0.5,0.5,0.8,1.2,0.8,1.9c0,0.7-0.3,1.4-0.8,1.9c-0.3,0.3-0.6,0.5-0.9,0.6
				c-0.3,0.1-0.6,0.2-0.8,0.2l-3.2,3.2l-2.8-2.8l3.2-3.2c0-0.3,0.1-0.6,0.2-0.8c0.1-0.3,0.3-0.6,0.6-0.9c0.5-0.5,1.2-0.8,1.9-0.8
				C22.7,9.9,23.3,10.1,23.9,10.7L23.9,10.7z M23.6,12.5c0-0.4-0.2-0.9-0.5-1.2c-0.3-0.3-0.8-0.5-1.2-0.5c-0.4,0-0.9,0.2-1.2,0.5
				c-0.2,0.2-0.3,0.4-0.4,0.6c-0.1,0.2-0.1,0.4-0.1,0.7l0,0.2l-2.8,2.8l1.4,1.4l2.8-2.8l0.2,0c0.2,0,0.5,0,0.7-0.1
				c0.2-0.1,0.4-0.2,0.6-0.4C23.5,13.4,23.6,13,23.6,12.5z"/>
			<path class="st6" d="M15.4,14.2l5,5c0.8,0.8,0.8,2.1,0,2.9l-1.5,1.5L11,15.7l1.5-1.5C13.2,13.4,14.6,13.4,15.4,14.2z"/>
			<path class="st8" d="M15.7,13.8l5,5c0.5,0.5,0.7,1.2,0.7,1.8c0,0.7-0.2,1.3-0.7,1.8l-1.8,1.8l-8.6-8.6l1.8-1.8
				c0.5-0.5,1.2-0.7,1.8-0.7C14.6,13.1,15.2,13.3,15.7,13.8L15.7,13.8z M20,19.5l-5-5c-0.3-0.3-0.7-0.5-1.1-0.5
				c-0.4,0-0.8,0.2-1.1,0.5l-1.1,1.1l7.2,7.2l1.1-1.1c0.3-0.3,0.5-0.7,0.5-1.1C20.4,20.2,20.3,19.8,20,19.5z"/>
			<line class="st9" x1="12.1" y1="14.6" x2="20" y2="22.5"/>
		</g>
		<path class="st8" d="M10.5,10.8v-0.5h1.2v1.2c-0.1,0.1-0.3,0.2-0.5,0.3C11,12,10.7,12,10.5,12c-0.3,0-0.5-0.1-0.8-0.2
			c-0.2-0.1-0.4-0.3-0.5-0.6c-0.1-0.3-0.2-0.5-0.2-0.8c0-0.3,0.1-0.6,0.2-0.9c0.1-0.3,0.3-0.4,0.5-0.6c0.2-0.1,0.4-0.2,0.7-0.2
			c0.3,0,0.6,0.1,0.8,0.2c0.2,0.2,0.3,0.4,0.4,0.7l-0.6,0.1c0-0.2-0.1-0.3-0.2-0.4c-0.1-0.1-0.2-0.1-0.4-0.1c-0.2,0-0.4,0.1-0.6,0.3
			C9.7,9.8,9.7,10,9.7,10.4c0,0.4,0.1,0.7,0.2,0.8c0.1,0.2,0.3,0.3,0.6,0.3c0.1,0,0.2,0,0.4-0.1c0.1-0.1,0.2-0.1,0.3-0.2v-0.4H10.5
			L10.5,10.8z M12.1,10.9l0.5-0.1c0,0.2,0.1,0.4,0.2,0.5c0.1,0.1,0.2,0.1,0.4,0.1c0.2,0,0.3,0,0.4-0.1c0.1-0.1,0.1-0.2,0.1-0.3
			c0-0.1,0-0.1-0.1-0.2c0-0.1-0.1-0.1-0.2-0.1c-0.1,0-0.2-0.1-0.4-0.1c-0.3-0.1-0.5-0.2-0.6-0.3c-0.2-0.2-0.3-0.4-0.3-0.6
			c0-0.2,0-0.3,0.1-0.4c0.1-0.1,0.2-0.2,0.3-0.3c0.2-0.1,0.3-0.1,0.5-0.1c0.3,0,0.6,0.1,0.8,0.3c0.2,0.2,0.3,0.4,0.3,0.7l-0.6,0
			c0-0.2-0.1-0.3-0.2-0.3c-0.1-0.1-0.2-0.1-0.4-0.1c-0.2,0-0.3,0-0.4,0.1c-0.1,0-0.1,0.1-0.1,0.2c0,0.1,0,0.1,0.1,0.2
			c0.1,0.1,0.2,0.1,0.5,0.2c0.3,0.1,0.5,0.1,0.6,0.2c0.1,0.1,0.2,0.2,0.3,0.3c0.1,0.1,0.1,0.3,0.1,0.5c0,0.2,0,0.3-0.1,0.5
			c-0.1,0.2-0.2,0.3-0.4,0.3C13.7,12,13.5,12,13.2,12c-0.4,0-0.6-0.1-0.8-0.3C12.2,11.6,12.1,11.3,12.1,10.9L12.1,10.9z M15.4,12
			V9.4h-0.8V8.8h2.2v0.5H16V12H15.4z"/>
	</g>
</g>
<g id="Shop_Act" class="st0">
	<g class="st1">
		<radialGradient id="SVGID_4_" cx="14.9999" cy="14.9999" r="11.9586" gradientUnits="userSpaceOnUse">
			<stop  offset="0" style="stop-color:#FFFFFF"/>
			<stop  offset="0.6413" style="stop-color:#FFFEFD"/>
			<stop  offset="0.7766" style="stop-color:#FFFAF8"/>
			<stop  offset="0.8632" style="stop-color:#FEF3ED"/>
			<stop  offset="0.9291" style="stop-color:#FDE9DE"/>
			<stop  offset="0.9822" style="stop-color:#FCDDCA"/>
			<stop  offset="1" style="stop-color:#FBD7C2"/>
		</radialGradient>
		<path class="st10" d="M15,3c6.6,0,12,5.4,12,12s-5.4,12-12,12S3,21.6,3,15S8.4,3,15,3z"/>
		<path class="st8" d="M8.3,7.3h10.5v13.4h-11V7.3H8.3L8.3,7.3z M17.9,8.3h-9v11.4h9V8.3z"/>
		<path class="st8" d="M23.9,10.7c0.5,0.5,0.8,1.2,0.8,1.9c0,0.7-0.3,1.4-0.8,1.9c-0.3,0.3-0.6,0.5-0.9,0.6
			c-0.3,0.1-0.6,0.2-0.8,0.2l-3.2,3.2l-2.8-2.8l3.2-3.2c0-0.3,0.1-0.6,0.2-0.8c0.1-0.3,0.3-0.6,0.6-0.9c0.5-0.5,1.2-0.8,1.9-0.8
			C22.7,9.9,23.3,10.1,23.9,10.7L23.9,10.7z M23.6,12.5c0-0.4-0.2-0.9-0.5-1.2c-0.3-0.3-0.8-0.5-1.2-0.5c-0.4,0-0.9,0.2-1.2,0.5
			c-0.2,0.2-0.3,0.4-0.4,0.6c-0.1,0.2-0.1,0.4-0.1,0.7l0,0.2l-2.8,2.8l1.4,1.4l2.8-2.8l0.2,0c0.2,0,0.5,0,0.7-0.1
			c0.2-0.1,0.4-0.2,0.6-0.4C23.5,13.4,23.6,13,23.6,12.5z"/>
		<path class="st6" d="M15.4,14.2l5,5c0.8,0.8,0.8,2.1,0,2.9l-1.5,1.5L11,15.7l1.5-1.5C13.2,13.4,14.6,13.4,15.4,14.2z"/>
		<path class="st8" d="M15.7,13.8l5,5c0.5,0.5,0.7,1.2,0.7,1.8c0,0.7-0.2,1.3-0.7,1.8l-1.8,1.8l-8.6-8.6l1.8-1.8
			c0.5-0.5,1.2-0.7,1.8-0.7C14.6,13.1,15.2,13.3,15.7,13.8L15.7,13.8z M20,19.5l-5-5c-0.3-0.3-0.7-0.5-1.1-0.5
			c-0.4,0-0.8,0.2-1.1,0.5l-1.1,1.1l7.2,7.2l1.1-1.1c0.3-0.3,0.5-0.7,0.5-1.1C20.4,20.2,20.3,19.8,20,19.5z"/>
		<line class="st9" x1="12.1" y1="14.6" x2="20" y2="22.5"/>
		<g>
			<path class="st8" d="M15,2.2c3.5,0,6.7,1.4,9,3.7c2.3,2.3,3.7,5.5,3.7,9c0,3.5-1.4,6.7-3.7,9c-2.3,2.3-5.5,3.7-9,3.7
				c-3.5,0-6.7-1.4-9-3.7c-2.3-2.3-3.7-5.5-3.7-9c0-3.5,1.4-6.7,3.7-9C8.3,3.7,11.5,2.2,15,2.2L15,2.2z M22.9,7.1
				c-2-2-4.8-3.3-7.9-3.3S9.1,5.1,7.1,7.1c-2,2-3.3,4.8-3.3,7.9s1.2,5.9,3.3,7.9c2,2,4.8,3.3,7.9,3.3s5.9-1.2,7.9-3.3
				s3.3-4.8,3.3-7.9S24.9,9.1,22.9,7.1z"/>
		</g>
	</g>
</g>
<g id="GST" class="st0">
	<g class="st1">
		<g>
			<radialGradient id="SVGID_5_" cx="14.9999" cy="14.9999" r="11.9586" gradientUnits="userSpaceOnUse">
				<stop  offset="0" style="stop-color:#FFFFFF"/>
				<stop  offset="0.6413" style="stop-color:#FFFEFD"/>
				<stop  offset="0.7766" style="stop-color:#FFFAF8"/>
				<stop  offset="0.8632" style="stop-color:#FEF3ED"/>
				<stop  offset="0.9291" style="stop-color:#FDE9DE"/>
				<stop  offset="0.9822" style="stop-color:#FCDDCA"/>
				<stop  offset="1" style="stop-color:#FBD7C2"/>
			</radialGradient>
			<path class="st11" d="M15,3c6.6,0,12,5.4,12,12s-5.4,12-12,12C8.4,27,3,21.6,3,15S8.4,3,15,3z"/>
			<path class="st8" d="M15,2.2c3.5,0,6.7,1.4,9,3.7c2.3,2.3,3.7,5.5,3.7,9c0,3.5-1.4,6.7-3.7,9c-2.3,2.3-5.5,3.7-9,3.7
				c-3.5,0-6.7-1.4-9-3.7c-2.3-2.3-3.7-5.5-3.7-9c0-3.5,1.4-6.7,3.7-9C8.3,3.7,11.5,2.2,15,2.2L15,2.2z M22.9,7.1
				c-2-2-4.8-3.3-7.9-3.3c-3.1,0-5.9,1.2-7.9,3.3c-2,2-3.3,4.8-3.3,7.9s1.2,5.9,3.3,7.9c2,2,4.8,3.3,7.9,3.3c3.1,0,5.9-1.2,7.9-3.3
				s3.3-4.8,3.3-7.9S24.9,9.1,22.9,7.1z"/>
			<g>
				<path class="st6" d="M8.3,7.8h10v12.4h-10V7.8L8.3,7.8z M10.2,10.7h6.3H10.2z"/>
			</g>
			<path class="st8" d="M8.3,7.3h10.5v13.4h-11V7.3H8.3L8.3,7.3z M17.9,8.3h-9v11.4h9V8.3z"/>
			<path class="st6" d="M23.5,11c0.8,0.8,0.8,2.2,0,3.1c-0.4,0.4-1,0.7-1.6,0.6l-3,3l-2.1-2.1l3-3c0-0.6,0.2-1.2,0.6-1.6
				C21.3,10.2,22.7,10.2,23.5,11z"/>
			<path class="st8" d="M23.9,10.7c0.5,0.5,0.8,1.2,0.8,1.9c0,0.7-0.3,1.4-0.8,1.9c-0.3,0.3-0.6,0.5-0.9,0.6
				c-0.3,0.1-0.6,0.2-0.8,0.2l-3.2,3.2l-2.8-2.8l3.2-3.2c0-0.3,0.1-0.6,0.2-0.8c0.1-0.3,0.3-0.6,0.6-0.9c0.5-0.5,1.2-0.8,1.9-0.8
				C22.7,9.9,23.3,10.1,23.9,10.7L23.9,10.7z M23.6,12.5c0-0.4-0.2-0.9-0.5-1.2c-0.3-0.3-0.8-0.5-1.2-0.5c-0.4,0-0.9,0.2-1.2,0.5
				c-0.2,0.2-0.3,0.4-0.4,0.6c-0.1,0.2-0.1,0.4-0.1,0.7l0,0.2l-2.8,2.8l1.4,1.4l2.8-2.8l0.2,0c0.2,0,0.5,0,0.7-0.1
				c0.2-0.1,0.4-0.2,0.6-0.4C23.5,13.4,23.6,13,23.6,12.5z"/>
			<path class="st6" d="M15.4,14.2l5,5c0.8,0.8,0.8,2.1,0,2.9l-1.5,1.5L11,15.7l1.5-1.5C13.2,13.4,14.6,13.4,15.4,14.2z"/>
			<path class="st8" d="M15.7,13.8l5,5c0.5,0.5,0.7,1.2,0.7,1.8c0,0.7-0.2,1.3-0.7,1.8l-1.8,1.8l-8.6-8.6l1.8-1.8
				c0.5-0.5,1.2-0.7,1.8-0.7C14.6,13.1,15.2,13.3,15.7,13.8L15.7,13.8z M20,19.5l-5-5c-0.3-0.3-0.7-0.5-1.1-0.5
				c-0.4,0-0.8,0.2-1.1,0.5l-1.1,1.1l7.2,7.2l1.1-1.1c0.3-0.3,0.5-0.7,0.5-1.1C20.4,20.2,20.3,19.8,20,19.5z"/>
			<line class="st9" x1="12.1" y1="14.6" x2="20" y2="22.5"/>
		</g>
		<path class="st8" d="M11,11.3v-0.5h1.2V12c-0.1,0.1-0.3,0.2-0.5,0.3c-0.2,0.1-0.4,0.1-0.7,0.1c-0.3,0-0.5-0.1-0.8-0.2
			C10,12.2,9.9,12,9.7,11.7c-0.1-0.3-0.2-0.5-0.2-0.8c0-0.3,0.1-0.6,0.2-0.9c0.1-0.3,0.3-0.4,0.5-0.6c0.2-0.1,0.4-0.2,0.7-0.2
			c0.3,0,0.6,0.1,0.8,0.2c0.2,0.2,0.3,0.4,0.4,0.7l-0.6,0.1c0-0.2-0.1-0.3-0.2-0.4c-0.1-0.1-0.2-0.1-0.4-0.1c-0.2,0-0.4,0.1-0.6,0.3
			c-0.1,0.2-0.2,0.4-0.2,0.8c0,0.4,0.1,0.7,0.2,0.8c0.1,0.2,0.3,0.3,0.6,0.3c0.1,0,0.2,0,0.4-0.1c0.1-0.1,0.2-0.1,0.3-0.2v-0.4H11
			L11,11.3z M12.6,11.4l0.5-0.1c0,0.2,0.1,0.4,0.2,0.5c0.1,0.1,0.2,0.1,0.4,0.1c0.2,0,0.3,0,0.4-0.1c0.1-0.1,0.1-0.2,0.1-0.3
			c0-0.1,0-0.1-0.1-0.2c0-0.1-0.1-0.1-0.2-0.1c-0.1,0-0.2-0.1-0.4-0.1c-0.3-0.1-0.5-0.2-0.6-0.3c-0.2-0.2-0.3-0.4-0.3-0.6
			c0-0.2,0-0.3,0.1-0.4c0.1-0.1,0.2-0.2,0.3-0.3c0.2-0.1,0.3-0.1,0.5-0.1c0.3,0,0.6,0.1,0.8,0.3c0.2,0.2,0.3,0.4,0.3,0.7l-0.6,0
			c0-0.2-0.1-0.3-0.2-0.3c-0.1-0.1-0.2-0.1-0.4-0.1c-0.2,0-0.3,0-0.4,0.1c-0.1,0-0.1,0.1-0.1,0.2c0,0.1,0,0.1,0.1,0.2
			c0.1,0.1,0.2,0.1,0.5,0.2c0.3,0.1,0.5,0.1,0.6,0.2c0.1,0.1,0.2,0.2,0.3,0.3c0.1,0.1,0.1,0.3,0.1,0.5c0,0.2,0,0.3-0.1,0.5
			c-0.1,0.2-0.2,0.3-0.4,0.3c-0.2,0.1-0.4,0.1-0.6,0.1c-0.4,0-0.6-0.1-0.8-0.3C12.7,12,12.6,11.8,12.6,11.4L12.6,11.4z M15.9,12.4
			V9.9h-0.8V9.3h2.2v0.5h-0.8v2.6H15.9z"/>
	</g>
</g>
<g id="Starter_Pack" class="st0">
	<g class="st1">
		<radialGradient id="SVGID_6_" cx="15" cy="14.9999" r="11.9587" gradientUnits="userSpaceOnUse">
			<stop  offset="0" style="stop-color:#FFFFFF"/>
			<stop  offset="0.608" style="stop-color:#FDFEFF"/>
			<stop  offset="0.7363" style="stop-color:#F8FCFE"/>
			<stop  offset="0.8185" style="stop-color:#EDF8FD"/>
			<stop  offset="0.8809" style="stop-color:#DEF1FC"/>
			<stop  offset="0.932" style="stop-color:#CAE9FB"/>
			<stop  offset="0.9747" style="stop-color:#B2DFF9"/>
			<stop  offset="1" style="stop-color:#A0D8F7"/>
		</radialGradient>
		<path class="st12" d="M15,3c6.6,0,12,5.4,12,12c0,6.6-5.4,12-12,12S3,21.6,3,15C3,8.4,8.4,3,15,3z"/>
		<path class="st5" d="M15,2.2c3.5,0,6.7,1.4,9,3.7c2.3,2.3,3.7,5.5,3.7,9c0,3.5-1.4,6.7-3.7,9c-2.3,2.3-5.5,3.7-9,3.7
			c-3.5,0-6.7-1.4-9-3.7c-2.3-2.3-3.7-5.5-3.7-9c0-3.5,1.4-6.7,3.7-9C8.3,3.7,11.5,2.2,15,2.2L15,2.2z M22.9,7.1
			c-2-2-4.8-3.3-7.9-3.3S9.1,5.1,7.1,7.1c-2,2-3.3,4.8-3.3,7.9c0,3.1,1.2,5.9,3.3,7.9c2,2,4.8,3.3,7.9,3.3s5.9-1.2,7.9-3.3
			s3.3-4.8,3.3-7.9C26.2,11.9,24.9,9.1,22.9,7.1z"/>
		<g>
			<path class="st5" d="M15.3,5.3h5c0.2,0,0.4,0.1,0.5,0.2C20.9,5.6,21,5.7,21,5.9v6.6c0,0.2-0.1,0.3-0.2,0.4
				c-0.1,0.1-0.3,0.2-0.5,0.2h-5c-0.2,0-0.4-0.1-0.5-0.2c-0.1-0.1-0.2-0.3-0.2-0.4V5.9c0-0.2,0.1-0.3,0.2-0.4
				C14.9,5.3,15.1,5.3,15.3,5.3z"/>
			<path class="st6" d="M20.1,6.1h-4.6c0,0-0.1,0-0.1,0c0,0,0,0.1,0,0.1v6c0,0,0,0.1,0,0.1c0,0,0.1,0,0.1,0h4.6c0,0,0.1,0,0.1,0
				c0,0,0-0.1,0-0.1v-6C20.3,6.2,20.2,6.2,20.1,6.1C20.2,6.1,20.2,6.1,20.1,6.1z"/>
			<path class="st5" d="M16.2,6.8h3.2c0.1,0,0.2,0.1,0.2,0.2l0,0c0,0.1-0.1,0.2-0.2,0.2h-3.2C16.1,7.3,16,7.2,16,7l0,0
				C16,6.9,16.1,6.8,16.2,6.8L16.2,6.8z M16.2,8.8h3.2c0.1,0,0.2,0.1,0.2,0.2v0c0,0.1-0.1,0.2-0.2,0.2h-3.2C16.1,9.3,16,9.2,16,9v0
				C16,8.9,16.1,8.8,16.2,8.8L16.2,8.8z M16.2,7.8h3.2c0.1,0,0.2,0.1,0.2,0.2v0c0,0.1-0.1,0.2-0.2,0.2h-3.2C16.1,8.3,16,8.2,16,8v0
				C16,7.9,16.1,7.8,16.2,7.8z"/>
		</g>
		<g>
			<path class="st5" d="M20.5,17.1c1,0.1,1.9-0.5,2-1.5c0.1-1-0.5-1.9-1.5-2c-1-0.1-1.9,0.5-2,1.5C18.8,16.1,19.5,17,20.5,17.1z"/>
			<path class="st5" d="M18.2,22.9c0.2-0.2,0.4-0.4,0.4-0.7c0,0,0-6.1,0-6.1c0-0.4-0.1-0.8-0.3-1.3c-0.2-0.5-0.7-1.2-2.2-2
				c-2-1-4-0.6-4.4-0.5c-0.6,0.1-1.7,0.8-1.7,1.9l0,4.6l-4.9,2.8c-0.4,0.2-0.6,0.8-0.3,1.2c0.2,0.3,0.5,0.4,0.8,0.4
				c0.1,0,0.3,0,0.4-0.1l5.6-3.2c0.2-0.1,0.4-0.4,0.4-0.7l0.3-2.3l1.1,1.3l-3.3,3.3c0,0-0.6,0.6,0,1.2c0,0,0,0,0.1,0.1h-2v0.5H23
				v-0.5L18.2,22.9L18.2,22.9z M11.4,22.9l4.1-3.5c0.3-0.3,0.4-0.6,0.2-1.1l-1.3-2.7c0.1,0,0.3,0.1,0.4,0.1c0.9,0.4,1.8,1,2.1,1.3
				l0,0l0,5.2c0,0.3,0.1,0.6,0.4,0.7L11.4,22.9z"/>
		</g>
	</g>
</g>
<g id="Social_Media" class="st0">
	<g class="st1">
		<radialGradient id="SVGID_7_" cx="15.0001" cy="14.9999" r="11.9587" gradientUnits="userSpaceOnUse">
			<stop  offset="0" style="stop-color:#FFFFFF"/>
			<stop  offset="0.6413" style="stop-color:#FFFDFE"/>
			<stop  offset="0.7766" style="stop-color:#FEF8FB"/>
			<stop  offset="0.8632" style="stop-color:#FCEDF4"/>
			<stop  offset="0.9291" style="stop-color:#FADEEB"/>
			<stop  offset="0.9822" style="stop-color:#F7CAE0"/>
			<stop  offset="1" style="stop-color:#F6C2DB"/>
		</radialGradient>
		<path class="st13" d="M15,3c6.6,0,12,5.4,12,12c0,6.6-5.4,12-12,12S3,21.6,3,15C3,8.4,8.4,3,15,3z"/>
		<path class="st14" d="M15,2.2c3.5,0,6.7,1.4,9,3.7c2.3,2.3,3.7,5.5,3.7,9c0,3.5-1.4,6.7-3.7,9c-2.3,2.3-5.5,3.7-9,3.7
			c-3.5,0-6.7-1.4-9-3.7c-2.3-2.3-3.7-5.5-3.7-9c0-3.5,1.4-6.7,3.7-9C8.3,3.7,11.5,2.2,15,2.2L15,2.2z M22.9,7.1
			c-2-2-4.8-3.3-7.9-3.3S9.1,5.1,7.1,7.1c-2,2-3.3,4.8-3.3,7.9s1.2,5.9,3.3,7.9c2,2,4.8,3.3,7.9,3.3s5.9-1.2,7.9-3.3
			c2-2,3.3-4.8,3.3-7.9S24.9,9.1,22.9,7.1z"/>
		<g>
			<rect x="8" y="11.8" transform="matrix(0.8766 -0.4813 0.4813 0.8766 -4.3786 8.235)" class="st14" width="11.7" height="1.8"/>
			
				<rect x="12.7" y="12.2" transform="matrix(0.4809 -0.8768 0.8768 0.4809 -8.3885 21.1039)" class="st14" width="1.8" height="10.9"/>
			<path class="st6" d="M18.7,7.8c1.1,0,2,0.9,2,2c0,1.1-0.9,2-2,2c-1.1,0-2-0.9-2-2C16.6,8.7,17.5,7.8,18.7,7.8z"/>
			<path class="st14" d="M18.7,7.3c0.7,0,1.3,0.3,1.8,0.7c0.5,0.5,0.7,1.1,0.7,1.8c0,0.7-0.3,1.3-0.7,1.8c-0.5,0.5-1.1,0.7-1.8,0.7
				c-0.7,0-1.3-0.3-1.8-0.7c-0.5-0.5-0.7-1.1-0.7-1.8c0-0.7,0.3-1.3,0.7-1.8C17.3,7.6,18,7.3,18.7,7.3L18.7,7.3z M19.7,8.8
				c-0.3-0.3-0.7-0.5-1.1-0.5c-0.4,0-0.8,0.2-1.1,0.5c-0.3,0.3-0.5,0.7-0.5,1.1c0,0.4,0.2,0.8,0.5,1.1c0.3,0.3,0.7,0.5,1.1,0.5
				c0.4,0,0.8-0.2,1.1-0.5c0.3-0.3,0.5-0.7,0.5-1.1C20.2,9.4,20,9,19.7,8.8z"/>
			<path class="st6" d="M18.7,18.1c1.1,0,2,0.9,2,2c0,1.1-0.9,2-2,2c-1.1,0-2-0.9-2-2C16.7,19,17.6,18.1,18.7,18.1z"/>
			<path class="st14" d="M18.7,17.6c0.7,0,1.3,0.3,1.8,0.7c0.5,0.5,0.7,1.1,0.7,1.8c0,0.7-0.3,1.3-0.7,1.8c-0.5,0.5-1.1,0.7-1.8,0.7
				c-0.7,0-1.3-0.3-1.8-0.7c-0.5-0.5-0.7-1.1-0.7-1.8s0.3-1.3,0.7-1.8C17.4,17.9,18,17.6,18.7,17.6L18.7,17.6z M19.8,19.1
				c-0.3-0.3-0.7-0.5-1.1-0.5c-0.4,0-0.8,0.2-1.1,0.5c-0.3,0.3-0.5,0.7-0.5,1.1c0,0.4,0.2,0.8,0.5,1.1c0.3,0.3,0.7,0.5,1.1,0.5
				c0.4,0,0.8-0.2,1.1-0.5c0.3-0.3,0.5-0.7,0.5-1.1C20.3,19.7,20.1,19.3,19.8,19.1z"/>
			<path class="st6" d="M8.6,13.2c1.1,0,2,0.9,2,2c0,1.1-0.9,2-2,2c-1.1,0-2-0.9-2-2C6.6,14.1,7.5,13.2,8.6,13.2z"/>
			<path class="st14" d="M8.6,12.7c0.7,0,1.3,0.3,1.8,0.7c0.5,0.5,0.7,1.1,0.7,1.8c0,0.7-0.3,1.3-0.7,1.8c-0.5,0.5-1.1,0.7-1.8,0.7
				S7.3,17.5,6.8,17c-0.5-0.5-0.7-1.1-0.7-1.8c0-0.7,0.3-1.3,0.7-1.8C7.3,13,7.9,12.7,8.6,12.7L8.6,12.7z M9.7,14.1
				c-0.3-0.3-0.7-0.5-1.1-0.5c-0.4,0-0.8,0.2-1.1,0.5c-0.3,0.3-0.5,0.7-0.5,1.1c0,0.4,0.2,0.8,0.5,1.1c0.3,0.3,0.7,0.5,1.1,0.5
				c0.4,0,0.8-0.2,1.1-0.5c0.3-0.3,0.5-0.7,0.5-1.1C10.2,14.8,10,14.4,9.7,14.1z"/>
		</g>
	</g>
</g>
<g id="funding_proposal" class="st0">
	<g class="st1">
		<radialGradient id="SVGID_8_" cx="15.0001" cy="14.9999" r="11.9587" gradientUnits="userSpaceOnUse">
			<stop  offset="0" style="stop-color:#FFFFFF"/>
			<stop  offset="0.6065" style="stop-color:#FEFEFD"/>
			<stop  offset="0.7344" style="stop-color:#FAFCF8"/>
			<stop  offset="0.8164" style="stop-color:#F3F8ED"/>
			<stop  offset="0.8787" style="stop-color:#E9F2DE"/>
			<stop  offset="0.9297" style="stop-color:#DCEBCA"/>
			<stop  offset="0.9722" style="stop-color:#CCE2B2"/>
			<stop  offset="1" style="stop-color:#BFDA9E"/>
		</radialGradient>
		<path class="st15" d="M15,3c6.6,0,12,5.4,12,12c0,6.6-5.4,12-12,12C8.4,27,3,21.6,3,15C3,8.4,8.4,3,15,3z"/>
		<g>
			<defs>
				<path id="SVGID_9_" d="M15,3c6.6,0,12,5.4,12,12c0,6.6-5.4,12-12,12C8.4,27,3,21.6,3,15C3,8.4,8.4,3,15,3z"/>
			</defs>
			<clipPath id="SVGID_10_">
				<use xlink:href="#SVGID_9_"  style="overflow:visible;"/>
			</clipPath>
			<g class="st16">
				<path class="st3" d="M12.8,21.2L12.8,21.2c0.5,0,1,0,1.5-0.1l0.1,0c0.2,0,0.4-0.1,0.6-0.2l0,0c0.2-0.1,0.3-0.2,0.4-0.2
					c0.1-0.1,0.1-0.2,0.1-0.3l0,0c0,0,0,0-0.1-0.1c-0.2-0.1-0.5-0.1-0.9-0.1c-0.9,0-1.8-0.3-2.6-0.7c-0.6-0.3-1.3-0.6-1.9-0.6
					c-0.2,0-0.6,0-0.9,0.2c-0.4,0.1-0.8,0.3-1.1,0.5l0,4l5.2,0c0,0,1.4,0.2,2.8-0.7c1.5-0.9,4.4-2.5,4.7-2.7c0,0,0.5-0.3,0.4-0.6v0
					c0-0.1-0.1-0.1-0.2-0.1c-0.2,0-0.4,0.1-0.5,0.1l0,0c-0.5,0.2-1,0.5-1.7,0.9c-1,0.6-2.2,1.2-3.3,1.6c-0.1,0-0.3,0.1-0.4,0.1
					l-0.2,0.1c-0.2,0-0.4,0.1-0.6,0.1c-0.5,0.1-1,0.1-1.3,0l0,0l0-0.5V21.2L12.8,21.2z M16.4,20.3c0.6-0.3,1.1-0.6,1.7-0.9
					c0.6-0.4,1.2-0.7,1.8-0.9l0,0c0.2-0.1,0.6-0.2,0.9-0.2c0.5,0,0.9,0.2,1.1,0.7v0c0.5,1-0.7,1.8-0.7,1.8l0,0c0,0-3.1,1.7-4.7,2.7
					c-1.6,1-3.1,0.9-3.4,0.9H6.9l0-5.6l0.3-0.1c0.4-0.2,0.9-0.5,1.5-0.7c0.4-0.1,0.9-0.2,1.3-0.2c0.8,0,1.5,0.4,2.2,0.7
					c0.7,0.3,1.5,0.7,2.2,0.6c0.7,0,1.2,0.1,1.5,0.3c0.2,0.1,0.3,0.2,0.4,0.4C16.4,19.9,16.4,20.1,16.4,20.3z"/>
				<rect x="4.3" y="17.7" class="st6" width="3.1" height="7.2"/>
				<path class="st3" d="M6.9,18.2H4.8v6.2h2.1V18.2L6.9,18.2z M4.3,17.2h3.6v8.2H3.8v-8.2H4.3z"/>
				<g>
					<path class="st6" d="M15.6,17.1c3.3,0,6-2.7,6-6c0-3.3-2.7-6-6-6c-3.3,0-6,2.7-6,6C9.5,14.4,12.2,17.1,15.6,17.1z"/>
					<path class="st3" d="M15.6,4.6c1.8,0,3.4,0.7,4.6,1.9c1.2,1.2,1.9,2.8,1.9,4.6c0,1.8-0.7,3.4-1.9,4.6c-1.2,1.2-2.8,1.9-4.6,1.9
						c-1.8,0-3.4-0.7-4.6-1.9C9.8,14.6,9,12.9,9,11.1C9,9.3,9.8,7.7,11,6.5C12.1,5.4,13.8,4.6,15.6,4.6L15.6,4.6z M19.4,7.2
						c-1-1-2.4-1.6-3.9-1.6c-1.5,0-2.9,0.6-3.9,1.6c-1,1-1.6,2.4-1.6,3.9c0,1.5,0.6,2.9,1.6,3.9c1,1,2.4,1.6,3.9,1.6
						c1.5,0,2.9-0.6,3.9-1.6c1-1,1.6-2.4,1.6-3.9C21.1,9.6,20.4,8.2,19.4,7.2z"/>
					<path class="st3" d="M15.5,9c-0.7,0-1.5,0-2.2,0c-0.1,0-0.2,0-0.2,0.1c0,0,0,0.6,0,0.7c0.1,0.1,0.2,0.1,0.3,0.1
						c0.2,0,0.5,0,0.7,0c0.5,0,1,0,1.5,0c0,0.2-0.3,0.5-0.5,0.6c-0.7,0.4-1.6,0.2-1.9,0.3c-0.2,0-0.1,0.2-0.1,0.4
						c0,0.7,0,0.5,0.3,0.8l0.3,0.3c0.2,0.3,0.5,0.6,0.8,0.9l0.8,0.9c0.1,0.1,0.2,0.2,0.2,0.3c0.1,0.1,0.2,0.2,0.2,0.3
						c0.3,0.4,0.2,0.3,0.8,0.3c0.2,0,0.4,0,0.5,0c0.1,0,0.2,0,0.2-0.1c0.1-0.1,0-0.2-0.1-0.3c-0.4-0.4-0.8-0.9-1.1-1.3l-1.3-1.5
						c2.1-0.3,2.2-1.8,2.2-1.9c0,0,0.7,0,0.8,0c0.4,0,0.3,0,0.3-0.5C18,8.9,18.1,9,16.9,9c-0.1-0.3-0.1-0.4-0.2-0.6
						c0-0.1-0.1-0.1-0.1-0.2c0.2,0,0.5,0,0.7,0c0.1,0,0.6,0,0.7,0C18,8.1,18,8,18,7.9c0-0.6,0-0.6-0.5-0.6H14c-0.2,0-0.5,0-0.7,0
						c-0.2,0-0.2,0.3-0.2,0.5c0,0.2-0.1,0.5,0.2,0.5c0.6,0,1.3-0.1,1.9,0.2C15.3,8.7,15.5,8.9,15.5,9z"/>
				</g>
			</g>
		</g>
		<path class="st3" d="M15,2.2c3.5,0,6.7,1.4,9,3.7s3.7,5.5,3.7,9c0,3.5-1.4,6.7-3.7,9c-2.3,2.3-5.5,3.7-9,3.7c-3.5,0-6.7-1.4-9-3.7
			c-2.3-2.3-3.7-5.5-3.7-9c0-3.5,1.4-6.7,3.7-9C8.3,3.7,11.5,2.2,15,2.2L15,2.2z M22.9,7.1c-2-2-4.8-3.3-7.9-3.3S9.1,5.1,7.1,7.1
			c-2,2-3.3,4.8-3.3,7.9c0,3.1,1.2,5.9,3.3,7.9c2,2,4.8,3.3,7.9,3.3s5.9-1.2,7.9-3.3c2-2,3.3-4.8,3.3-7.9
			C26.2,11.9,24.9,9.1,22.9,7.1z"/>
	</g>
</g>
<g id="meet_a_mentor" class="st0">
	<g class="st1">
		<radialGradient id="SVGID_11_" cx="15.0001" cy="14.9999" r="11.9586" gradientUnits="userSpaceOnUse">
			<stop  offset="0" style="stop-color:#FFFFFF"/>
			<stop  offset="0.725" style="stop-color:#FDFDFD"/>
			<stop  offset="0.8777" style="stop-color:#F8F8F8"/>
			<stop  offset="0.9754" style="stop-color:#EDEDED"/>
			<stop  offset="1" style="stop-color:#E9E9E9"/>
		</radialGradient>
		<path class="st17" d="M15,3c6.6,0,12,5.4,12,12s-5.4,12-12,12S3,21.6,3,15S8.4,3,15,3z"/>
		<path class="st18" d="M15,2.2c3.5,0,6.7,1.4,9,3.7c2.3,2.3,3.7,5.5,3.7,9c0,3.5-1.4,6.7-3.7,9c-2.3,2.3-5.5,3.7-9,3.7
			c-3.5,0-6.7-1.4-9-3.7c-2.3-2.3-3.7-5.5-3.7-9c0-3.5,1.4-6.7,3.7-9C8.3,3.7,11.5,2.2,15,2.2L15,2.2z M22.9,7.1
			c-2-2-4.8-3.3-7.9-3.3S9.1,5.1,7.1,7.1c-2,2-3.3,4.8-3.3,7.9s1.2,5.9,3.3,7.9c2,2,4.8,3.3,7.9,3.3s5.9-1.2,7.9-3.3
			s3.3-4.8,3.3-7.9S24.9,9.1,22.9,7.1z"/>
		<g>
			<path class="st6" d="M22,15.7l0.3,1.5c0,0,0,0,0,0l0.6,1.4H21l0.3-2.4L22,15.7L22,15.7z M18.2,18.6c0,0-0.1,0-0.1,0.1l-2.9,3.2
				h-0.8v-2.6c0-0.4-0.3-0.7-0.7-0.8l-1.2-0.2l0.3-0.8l2.8-0.3c0,0,0.1,0,0.1-0.1l2-2.3l2.6-1.6c0,0,0,0,0.1-0.1l0.1-0.3l0.2,0.8
				l-1.3,1.6c0,0,0,0,0,0.1l-0.6,3.2H18.2L18.2,18.6z M24.9,18.6l-0.9-2.8l-0.3-1.3l-0.1,0c0.2-0.3,0.3-0.8,0.3-1.2
				c-0.3-1.6-1.2-3.1-2.4-4.1c0.2-0.3,0.3-0.6,0.3-1c0-1-0.8-1.8-1.8-1.8c-1,0-1.8,0.8-1.8,1.8c0,0.8,0.5,1.5,1.3,1.7l-0.6,2.1
				l-1.9,1.3c0,0,0,0,0,0c0,0,0,0,0,0l-1.9,1.9H13c0.3-0.3,0.4-0.7,0.4-1.2c0-1-0.8-1.8-1.8-1.8c-1,0-1.8,0.8-1.8,1.8
				c0,0.5,0.2,1,0.6,1.4l-1,2.5c-0.2,0.4-0.1,0.9,0.1,1.3c0.1,0.1,0.2,0.2,0.2,0.3l-1,1.6l-1.6,1.6c-0.1,0.1-0.1,0.2,0,0.2l1,1
				c0,0,0.1,0,0.1,0c0,0,0.1,0,0.1,0l2-2c0,0,0,0,0,0l1.3-2l0,0l0.7,0.1v1.7h-0.5c-0.1,0-0.1,0-0.1,0.1l-1.9,2.6l0.2,0.3l1.9-2.6
				h0.6h1.6h1c0,0,0.1,0,0.1-0.1l2.9-3.2h0.6h2h2.3h1.6h0.3v-0.3H24.9z"/>
			<path class="st18" d="M24.2,15.7l0.9,2.6h0.3v0.9h-7l-2.8,3.2c0,0-0.1,0.1-0.2,0.1l0,0c-0.1,0-0.1,0-0.2,0h-3.1l-2.1,2.7
				l-0.6-0.7l2.1-2.7c0-0.1,0.1-0.1,0.2-0.1l0,0c0.1,0,0.1,0,0.2,0h0.2v-1.1l-0.3,0c-1.7,2.5-0.9,1.6-3.3,3.9
				c-0.1,0.1-0.2,0.1-0.3,0.1c-0.1,0-0.1,0-0.2,0c-0.1,0-0.1-0.1-0.1-0.1l-1-1c-0.1-0.1-0.1-0.2-0.1-0.3c0-0.1,0-0.2,0.1-0.3
				l1.6-1.6l0.8-1.4c0-0.1-0.1-0.1-0.1-0.2C9.2,19.3,9.1,19,9,18.8c0-0.3,0-0.5,0.1-0.8l0.9-2.4c-0.2-0.2-0.3-0.4-0.4-0.6
				c-0.1-0.3-0.2-0.6-0.2-0.9c0-0.6,0.2-1.1,0.6-1.5c0.4-0.4,0.9-0.6,1.5-0.6c0.6,0,1.1,0.2,1.5,0.6c0.4,0.4,0.6,0.9,0.6,1.5
				c0,0.2,0,0.5-0.1,0.7L13.5,15h1.2c2.2-2.2,1.3-1.5,3.8-3.1l0.5-1.8c-0.3-0.1-0.6-0.4-0.8-0.7c-0.3-0.3-0.4-0.8-0.4-1.2
				c0-0.6,0.2-1.1,0.6-1.5c0.4-0.4,0.9-0.6,1.5-0.6c0.6,0,1.1,0.2,1.5,0.6c0.4,0.4,0.6,0.9,0.6,1.5c0,0.2,0,0.4-0.1,0.6
				c0,0.1-0.1,0.2-0.1,0.3c0.6,0.5,1.1,1.1,1.4,1.8c0.4,0.7,0.7,1.5,0.9,2.4c0,0.2,0,0.5,0,0.7c0,0.2-0.1,0.3-0.2,0.4L24.2,15.7
				L24.2,15.7z M19,7.4c-0.2,0.2-0.4,0.5-0.4,0.8c0,0.3,0.1,0.6,0.4,0.8c0.2,0.2,0.5,0.4,0.8,0.4c0.3,0,0.6-0.1,0.8-0.4
				C20.9,8.8,21,8.5,21,8.2c0-0.3-0.1-0.6-0.4-0.8C20.5,7.1,20.2,7,19.8,7C19.5,7,19.2,7.1,19,7.4L19,7.4z M10.7,13.3
				c-0.2,0.2-0.4,0.5-0.4,0.8c0,0.3,0.1,0.6,0.4,0.8c0.2,0.2,0.5,0.4,0.8,0.4c0.3,0,0.6-0.1,0.8-0.4c0.2-0.2,0.4-0.5,0.4-0.8
				c0-0.3-0.1-0.6-0.4-0.8c-0.2-0.2-0.5-0.4-0.8-0.4C11.2,12.9,10.9,13.1,10.7,13.3L10.7,13.3z M8.3,23.4l1.6-1.6l0.9-1.4l-0.2,0
				c-0.1,0-0.3,0-0.4-0.1l-0.1,0C9,22.1,9.6,21.4,7.9,23L8.3,23.4L8.3,23.4z M13,20.1v1.5h0.8v-2.3c0-0.1,0-0.1,0-0.1
				c0,0-0.1-0.1-0.1-0.1l-1.4-0.2c-0.1,0-0.1,0-0.2-0.1c-0.1,0-0.1-0.1-0.1-0.1c0-0.1-0.1-0.1-0.1-0.2v0c0-0.1,0-0.1,0-0.2l0.1-0.4
				l-0.3,0L11.6,17l3.7-0.3l1.7-1.9l-0.2-0.5l-1.5,1.5c0,0-0.1,0.1-0.1,0.1c-0.1,0-0.1,0-0.2,0h-2.2c-0.2,0.1-0.3,0.2-0.5,0.2
				c-0.2,0.1-0.4,0.1-0.6,0.1c-0.2,0-0.4,0-0.5-0.1c-0.1,0-0.1,0-0.2-0.1L10,18.3c0,0.1-0.1,0.3-0.1,0.4c0,0.1,0.1,0.3,0.1,0.4
				c0.1,0.1,0.2,0.2,0.3,0.3c0.1,0.1,0.2,0.1,0.4,0.1l1.9,0.2c0.1,0,0.2,0.1,0.3,0.1C13,19.9,13,20,13,20.1L13,20.1z M18,18.4
				c0.1,0,0.1,0,0.2,0h0.3l0.6-2.9c0,0,0-0.1,0-0.1c0,0,0-0.1,0.1-0.1l1.2-1.5l0-0.1l-2.5,1.6l-1.9,2.3c0,0-0.1,0.1-0.1,0.1
				c-0.1,0-0.1,0-0.2,0l-2.7,0.2l-0.1,0.3l0.9,0.2c0.3,0,0.5,0.2,0.7,0.4c0.2,0.2,0.3,0.4,0.3,0.7v2.3H15l2.8-3.1
				C17.9,18.4,17.9,18.4,18,18.4L18,18.4z M19.9,15.7l-0.5,2.7h1l0.3-2.3c0-0.1,0-0.1,0.1-0.2c0-0.1,0.1-0.1,0.1-0.1l2-1.5
				c0.1-0.1,0.2-0.2,0.3-0.4c0.1-0.2,0.1-0.3,0-0.5c-0.1-0.7-0.4-1.4-0.8-2.1c-0.3-0.6-0.7-1.1-1.2-1.5c-0.2,0.1-0.3,0.2-0.5,0.3
				c-0.3,0.1-0.5,0.2-0.8,0.2l-0.6,2c0,0.1,0,0.1-0.1,0.1c0,0-0.1,0.1-0.1,0.1l-1.7,1.1l0.3,0.5l2.1-1.3l0.7-1.5l0.8,0.4L21,12.5
				l0.3,1.2c0,0.1,0,0.1,0,0.2c0,0.1,0,0.1-0.1,0.2L19.9,15.7L19.9,15.7z M22,17.2l-0.2-1l-0.3,0.2l-0.2,1.9h1.1
				C22.3,18,22.1,17.5,22,17.2L22,17.2z M22.9,17l0.5,1.3h0.7c-0.4-1.1-0.7-2.1-1-3.1l-0.6,0.4L22.9,17z"/>
		</g>
	</g>
</g>
<g id="FSSAI_Registration" class="st0">
	<g class="st1">
		<g>
			<radialGradient id="SVGID_12_" cx="15.0001" cy="14.9999" r="11.9586" gradientUnits="userSpaceOnUse">
				<stop  offset="0" style="stop-color:#FFFFFF"/>
				<stop  offset="0.6413" style="stop-color:#FFFEFD"/>
				<stop  offset="0.7766" style="stop-color:#FFFAF8"/>
				<stop  offset="0.8632" style="stop-color:#FEF3ED"/>
				<stop  offset="0.9291" style="stop-color:#FDE9DE"/>
				<stop  offset="0.9822" style="stop-color:#FCDDCA"/>
				<stop  offset="1" style="stop-color:#FBD7C2"/>
			</radialGradient>
			<path class="st19" d="M15,3c6.6,0,12,5.4,12,12s-5.4,12-12,12C8.4,27,3,21.6,3,15S8.4,3,15,3z"/>
			<path class="st8" d="M15,2.2c3.5,0,6.7,1.4,9,3.7c2.3,2.3,3.7,5.5,3.7,9c0,3.5-1.4,6.7-3.7,9c-2.3,2.3-5.5,3.7-9,3.7
				c-3.5,0-6.7-1.4-9-3.7c-2.3-2.3-3.7-5.5-3.7-9c0-3.5,1.4-6.7,3.7-9C8.3,3.7,11.5,2.2,15,2.2L15,2.2z M22.9,7.1
				c-2-2-4.8-3.3-7.9-3.3c-3.1,0-5.9,1.2-7.9,3.3c-2,2-3.3,4.8-3.3,7.9s1.2,5.9,3.3,7.9c2,2,4.8,3.3,7.9,3.3c3.1,0,5.9-1.2,7.9-3.3
				s3.3-4.8,3.3-7.9S24.9,9.1,22.9,7.1z"/>
			<g>
				<path class="st6" d="M8.3,7.8h10v12.4h-10V7.8L8.3,7.8z M10.2,10.7h6.3H10.2z"/>
			</g>
			<path class="st8" d="M8.3,7.3h10.5v13.4h-11V7.3H8.3L8.3,7.3z M17.9,8.3h-9v11.4h9V8.3z"/>
			<path class="st6" d="M23.5,11c0.8,0.8,0.8,2.2,0,3.1c-0.4,0.4-1,0.7-1.6,0.6l-3,3l-2.1-2.1l3-3c0-0.6,0.2-1.2,0.6-1.6
				C21.3,10.2,22.7,10.2,23.5,11z"/>
			<path class="st8" d="M23.9,10.7c0.5,0.5,0.8,1.2,0.8,1.9c0,0.7-0.3,1.4-0.8,1.9c-0.3,0.3-0.6,0.5-0.9,0.6
				c-0.3,0.1-0.6,0.2-0.8,0.2l-3.2,3.2l-2.8-2.8l3.2-3.2c0-0.3,0.1-0.6,0.2-0.8c0.1-0.3,0.3-0.6,0.6-0.9c0.5-0.5,1.2-0.8,1.9-0.8
				C22.7,9.9,23.3,10.1,23.9,10.7L23.9,10.7z M23.6,12.5c0-0.4-0.2-0.9-0.5-1.2c-0.3-0.3-0.8-0.5-1.2-0.5c-0.4,0-0.9,0.2-1.2,0.5
				c-0.2,0.2-0.3,0.4-0.4,0.6c-0.1,0.2-0.1,0.4-0.1,0.7l0,0.2l-2.8,2.8l1.4,1.4l2.8-2.8l0.2,0c0.2,0,0.5,0,0.7-0.1
				c0.2-0.1,0.4-0.2,0.6-0.4C23.5,13.4,23.6,13,23.6,12.5z"/>
			<path class="st6" d="M15.4,14.2l5,5c0.8,0.8,0.8,2.1,0,2.9l-1.5,1.5L11,15.7l1.5-1.5C13.2,13.4,14.6,13.4,15.4,14.2z"/>
			<path class="st8" d="M15.7,13.8l5,5c0.5,0.5,0.7,1.2,0.7,1.8c0,0.7-0.2,1.3-0.7,1.8l-1.8,1.8l-8.6-8.6l1.8-1.8
				c0.5-0.5,1.2-0.7,1.8-0.7C14.6,13.1,15.2,13.3,15.7,13.8L15.7,13.8z M20,19.5l-5-5c-0.3-0.3-0.7-0.5-1.1-0.5
				c-0.4,0-0.8,0.2-1.1,0.5l-1.1,1.1l7.2,7.2l1.1-1.1c0.3-0.3,0.5-0.7,0.5-1.1C20.4,20.2,20.3,19.8,20,19.5z"/>
			<line class="st9" x1="12.1" y1="14.6" x2="20" y2="22.5"/>
		</g>
		<polygon class="st8" points="10.4,13.6 10.4,9.6 13.5,9.6 13.5,10.3 11.3,10.3 11.3,11.2 13.2,11.2 13.2,11.9 11.3,11.9 
			11.3,13.6 		"/>
	</g>
</g>
<g id="Layer_4" class="st0">
	<g class="st1">
		<rect x="5" y="0.4" class="st20" width="18.8" height="6.3"/>
		<path class="st6" d="M8.6,5.4V1.7h0.7l1.5,2.4V1.7h0.7v3.7h-0.7L9.3,3v2.4H8.6L8.6,5.4z M12.3,5.4V1.7H15v0.6h-2v0.8h1.8v0.6H13v1
			h2v0.6H12.3L12.3,5.4z M16.2,5.4l-0.9-3.7h0.8l0.5,2.5l0.7-2.5h0.9l0.6,2.6l0.6-2.6h0.7l-0.9,3.7h-0.8l-0.7-2.7L17,5.4H16.2z"/>
	</g>
</g>
</svg>
